<?xml version="1.0" encoding="UTF-8"?>
<svg width="20px" height="20px" viewBox="0 0 20 20" version="1.1" xmlns="http://www.w3.org/2000/svg" xmlns:xlink="http://www.w3.org/1999/xlink">
    <!-- Generator: sketchtool 51.3 (57544) - http://www.bohemiancoding.com/sketch -->
    <title>BEF0FEEF-C39C-4B6A-99B1-5FC6C15BCF88</title>
    <desc>Created with sketchtool.</desc>
    <defs></defs>
    <g id="Employee-Information" stroke="none" stroke-width="1">
        <g id="Appointment-mode" transform="translate(-80.000000, -92.000000)" >
            <g id="add-file" transform="translate(80.000000, 92.000000)">
                <path d="M4.46529795,19.9612415 L6.59156977,19.9612415 C6.70893898,19.9612415 6.80414242,19.8817486 6.80414242,19.7834083 L6.80414242,16.7594844 C6.80414242,16.563108 6.9945494,16.4038181 7.22928781,16.4038181 L10.8439317,16.4038181 C10.9614826,16.4038181 11.056686,16.3241732 11.056686,16.2258329 L11.056686,14.4471972 C11.056686,14.348857 10.9614826,14.2692121 10.8439317,14.2692121 L7.22928781,14.2692121 C6.9945494,14.2692121 6.80414242,14.1099222 6.80414242,13.9135457 L6.80414242,10.8896218 C6.80414242,10.7914336 6.70893898,10.7117887 6.59156977,10.7117887 L4.46529795,10.7117887 C4.34774707,10.7117887 4.25254363,10.7914336 4.25254363,10.8896218 L4.25254363,13.9135457 C4.25254363,14.1099222 4.06231833,14.2692121 3.82739823,14.2692121 L0.212754372,14.2692121 C0.0953851628,14.2692121 0.000181686047,14.348857 0.000181686047,14.4471972 L0.000181686047,16.2258329 C0.000181686047,16.3241732 0.0953851628,16.4038181 0.212754372,16.4038181 L3.82739823,16.4038181 C4.06231833,16.4038181 4.25254363,16.563108 4.25254363,16.7594844 L4.25254363,19.7834083 C4.25254363,19.8817486 4.34774707,19.9612415 4.46529795,19.9612415 Z" id="Shape"></path>
                <path d="M16.1595204,3.77447105 C16.1595204,3.87281128 16.2547238,3.95245623 16.3722747,3.95245623 L19.8464753,3.95245623 L16.1299055,0.355818327 L16.1595204,3.77447105 Z" id="Shape"></path>
                <path d="M19.5105378,14.9806967 C19.7639898,14.9879925 19.9767442,14.8226228 19.9869186,14.610743 L19.9869186,4.66394089 L16.3722747,4.66394089 C15.7883358,4.66394089 15.3137718,4.27012405 15.309048,3.78161479 L15.2792514,0.0390625 L6.42986921,0.0390625 C6.17659884,0.0319187549 5.96384447,0.197288405 5.95367005,0.409168288 L5.95367005,10.000152 L6.59156977,10.000152 C7.1785974,10.000152 7.65461484,10.3983767 7.65461484,10.8896218 L7.65461484,13.5577274 L10.8439317,13.5577274 C11.431141,13.5577274 11.9071584,13.9559521 11.9071584,14.4471972 L11.9071584,14.9806967 L19.5105378,14.9806967 Z" id="Shape"></path>
            </g>
        </g>
    </g>
</svg>