<?xml version="1.0" encoding="UTF-8"?>
<svg width="36px" height="36px" viewBox="0 0 36 36" version="1.1" xmlns="http://www.w3.org/2000/svg" xmlns:xlink="http://www.w3.org/1999/xlink">
    <!-- Generator: sketchtool 51.3 (57544) - http://www.bohemiancoding.com/sketch -->
    <title>C374BC2A-90A0-458F-8C67-D448F4D4DF75</title>
    <desc>Created with sketchtool.</desc>
    <defs></defs>
    <g id="Employee-Information" stroke="none" stroke-width="1" fill="none" fill-rule="evenodd">
        <g id="Menu-switch" transform="translate(-35.000000, -330.000000)" fill="#3DD1B9" fill-rule="nonzero">
            <g id="attendance" transform="translate(35.000000, 330.000000)">
                <path d="M22.032,17.712 C22.152,17.712 22.212,17.772 22.212,17.892 L22.212,24.3 C22.212,24.3961765 22.152,24.444 22.032,24.444 L20.664,24.444 C20.568,24.444 20.52,24.3961765 20.52,24.3 L20.52,19.8 L19.62,20.1241765 C19.572,20.148 19.542,20.1541765 19.53,20.1421765 C19.518,20.1301765 19.5,20.1241765 19.476,20.1241765 C19.4281765,20.0761765 19.404,20.028 19.404,19.9801765 L19.2238235,18.8641765 C19.2238235,18.792 19.2598235,18.7321765 19.3318235,18.684 L21.276,17.748 C21.2998235,17.724 21.3238235,17.712 21.348,17.712 L22.032,17.712 Z M16.812,20.736 C17.124,20.856 17.412,21.0361765 17.676,21.2761765 C17.94,21.5161765 18.0718235,21.876 18.0718235,22.356 C18.0718235,23.028 17.8138235,23.562 17.2978235,23.958 C16.7818235,24.3538235 16.0918235,24.552 15.2278235,24.552 C14.6518235,24.552 14.1118235,24.456 13.6078235,24.264 C13.5118235,24.216 13.4758235,24.156 13.4998235,24.0838235 L13.6438235,22.9678235 C13.6438235,22.9198235 13.6678235,22.8718235 13.7158235,22.8238235 L13.8598235,22.8238235 C14.3878235,23.0159412 14.8918235,23.1118235 15.3718235,23.1118235 C15.6598235,23.1118235 15.8938235,23.0458235 16.0738235,22.9138235 C16.2538235,22.7818235 16.3438235,22.6198235 16.3438235,22.4278235 C16.3438235,22.1878235 16.2478235,22.0076471 16.0558235,21.8876471 C15.8638235,21.7676471 15.4558235,21.6836471 14.8318235,21.6357059 C14.7358235,21.6357059 14.6878235,21.5756471 14.6878235,21.4556471 L14.6878235,20.3396471 C14.6878235,20.2674706 14.7358235,20.2076471 14.8318235,20.1594706 C15.3838235,20.1116471 15.7258235,20.0214706 15.8578235,19.8894706 C15.9898235,19.7574706 16.0558235,19.6314706 16.0558235,19.5114706 C16.0558235,19.4154706 16.0258235,19.3194118 15.9658235,19.2234706 C15.9058235,19.1275294 15.6838235,19.0796471 15.2998235,19.0796471 C14.9398235,19.0796471 14.5318235,19.1756471 14.0758235,19.3676471 C14.0038235,19.3916471 13.9438235,19.3916471 13.8958235,19.3676471 C13.8478235,19.3676471 13.8238235,19.3316471 13.8238235,19.2596471 L13.6798235,18.1436471 C13.6558235,18.0956471 13.6798235,18.0356471 13.7518235,17.9635294 C14.3038235,17.7235294 14.9398235,17.6035294 15.6598235,17.6035294 C16.3318235,17.6035294 16.8718235,17.7475294 17.2798235,18.0355294 C17.6878235,18.3235294 17.8918235,18.6955294 17.8918235,19.1515294 C17.892,19.848 17.532,20.376 16.812,20.736 Z M26.316,10.008 C26.316,9.792 26.208,9.684 25.992,9.684 L24.3,9.684 L24.3,10.476 C24.3,10.884 24.162,11.274 23.8861176,11.646 C23.6101765,12.018 23.1361765,12.204 22.464,12.204 C21.768,12.204 21.2881176,12.018 21.0240588,11.646 C20.7600588,11.274 20.6280588,10.884 20.6280588,10.476 L20.6280588,9.684 L15.4080588,9.684 L15.4080588,10.476 C15.4080588,10.884 15.2760588,11.274 15.0120588,11.646 C14.7480588,12.018 14.2680588,12.204 13.5720588,12.204 C12.8760588,12.204 12.3960588,12.018 12.1320588,11.646 C11.8680588,11.274 11.7360588,10.884 11.7360588,10.476 L11.7360588,9.684 L10.0080588,9.684 C9.79205882,9.684 9.68405882,9.792 9.68405882,10.008 L9.68405882,13.356 C9.68405882,13.572 9.79205882,13.68 10.0080588,13.68 L25.9920588,13.68 C26.2080588,13.68 26.3160588,13.572 26.3160588,13.356 L26.316,10.008 Z M26.316,15.156 C26.316,14.94 26.208,14.832 25.992,14.832 L10.008,14.832 C9.792,14.832 9.684,14.94 9.684,15.156 L9.684,26.64 C9.684,26.856 9.792,26.964 10.008,26.964 L25.992,26.964 C26.208,26.964 26.316,26.856 26.316,26.64 L26.316,15.156 Z M12.816,10.476 C12.816,10.932 13.068,11.16 13.572,11.16 C14.076,11.16 14.328,10.932 14.328,10.476 L14.328,9.684 L14.328,8.856 C14.328,8.4 14.076,8.172 13.572,8.172 C13.068,8.172 12.816,8.4 12.816,8.856 L12.816,9.684 L12.816,10.476 Z M21.672,10.476 C21.672,10.932 21.936,11.16 22.464,11.16 C22.968,11.16 23.2201176,10.932 23.2201176,10.476 L23.2201176,9.684 L23.2201176,8.856 C23.2201176,8.4 22.9681176,8.172 22.464,8.172 C21.936,8.172 21.672,8.4 21.672,8.856 L21.672,9.684 L21.672,10.476 Z M18,0 C20.472,0 22.806,0.474 25.002,1.422 C27.198,2.37 29.106,3.654 30.726,5.274 C32.346,6.894 33.63,8.802 34.578,10.998 C35.526,13.194 36,15.528 36,18 C36,19.656 35.784,21.252 35.352,22.788 C34.9198235,24.3238235 34.314,25.7578235 33.534,27.09 C32.754,28.422 31.818,29.634 30.726,30.726 C29.6341176,31.818 28.422,32.7541765 27.09,33.534 C25.7578824,34.314 24.324,34.92 22.7878824,35.352 C21.252,35.784 19.656,36 18,36 C16.344,36 14.748,35.784 13.212,35.352 C11.676,34.9198235 10.242,34.314 8.91,33.534 C7.578,32.754 6.366,31.818 5.274,30.726 C4.182,29.6341176 3.246,28.422 2.466,27.09 C1.686,25.7578824 1.08,24.324 0.648,22.7879412 C0.216,21.252 0,19.656 0,18 C0,16.344 0.216,14.748 0.648,13.212 C1.08,11.676 1.686,10.242 2.466,8.91 C3.246,7.578 4.182,6.366 5.274,5.274 C6.366,4.182 7.578,3.246 8.91,2.466 C10.242,1.686 11.676,1.08 13.212,0.648 C14.748,0.216 16.344,0 18,0 Z" id="Shape"></path>
            </g>
        </g>
    </g>
</svg>