<?xml version="1.0" encoding="UTF-8"?>
<svg width="16px" height="10px" viewBox="0 0 16 10" version="1.1" xmlns="http://www.w3.org/2000/svg" xmlns:xlink="http://www.w3.org/1999/xlink">
    <!-- Generator: sketchtool 52 (66869) - http://www.bohemiancoding.com/sketch -->
    <title>388256A2-5798-4BE2-B0B4-35000687BCA5</title>
    <desc>Created with sketchtool.</desc>
    <g id="Page-1" stroke="none" stroke-width="1" fill="none" fill-rule="evenodd">
        <g id="Request" transform="translate(-39.000000, -375.000000)" fill="#999999">
            <g id="menu" transform="translate(0.000000, 180.000000)">
                <g id="back" transform="translate(39.000000, 195.000000)">
                    <path d="M15.6575199,9.99994928 C15.5201679,9.99994928 15.394212,9.92336815 15.3402309,9.79768158 C15.3006448,9.70648573 14.3109912,7.54292282 10.6108862,7.11441927 C9.84015595,7.02322343 8.91707902,6.97645633 7.79607138,6.96827209 L7.79607138,9.66497993 C7.79607138,9.78949733 7.72709552,9.90232296 7.61373519,9.96195101 C7.50097466,10.0192407 7.36602189,10.0110565 7.26105863,9.94265958 L0.152346679,5.27881064 C0.0563802669,5.21625964 0,5.11103367 0,5.0005464 C0,4.88888995 0.0563802669,4.78717151 0.152346679,4.72169757 L7.26405758,0.0572640375 C7.36902084,-0.0134711997 7.50277403,-0.0181479096 7.61673414,0.0403109642 C7.73069426,0.0999390153 7.79847054,0.212764642 7.79847054,0.33377451 L7.79847054,2.84341396 C9.34472934,3.03983577 16,4.20550572 16,9.66790288 C16,9.82632642 15.8854401,9.96487396 15.7246964,9.99644175 C15.7025041,9.99994928 15.6791123,9.99994928 15.6575199,9.99994928 Z" id="Path"></path>
                </g>
            </g>
        </g>
    </g>
</svg>