<?xml version="1.0" encoding="UTF-8"?>
<svg width="17px" height="14px" viewBox="0 0 17 14" version="1.1" xmlns="http://www.w3.org/2000/svg" xmlns:xlink="http://www.w3.org/1999/xlink">
    <!-- Generator: sketchtool 52 (66869) - http://www.bohemiancoding.com/sketch -->
    <title>E00A4E47-4C7A-48ED-92B5-AA0D6FEB7A46</title>
    <desc>Created with sketchtool.</desc>
    <g id="Page-1" stroke="none" stroke-width="1" fill="none" fill-rule="evenodd">
        <g id="Request" transform="translate(-396.000000, -116.000000)" fill="#AC96F9" fill-rule="nonzero">
            <g id="New-Request-Group" transform="translate(205.000000, 96.000000)">
                <g id="new-request" transform="translate(16.000000, 0.000000)">
                    <g id="biztrip" transform="translate(175.000000, 20.000000)">
                        <path d="M15.9037047,2.06296267 L11.130525,2.06296267 L11.130525,0.547454164 C11.130525,0.245111306 10.8839515,0 10.5799982,0 L5.75346853,0 C5.4493551,0 5.202755,0.245137839 5.202755,0.547454164 L5.202755,2.06293614 L0.429601925,2.06293614 C0.192289362,2.06296267 0,2.25407944 0,2.48995728 L0,13.1118894 C0,13.3478203 0.192289362,13.5389902 0.429601925,13.5389902 L1.75184817,13.5389902 L1.75184817,13.9072674 C1.75184817,13.958529 1.7935887,14 1.84507048,14 L2.95711949,14 C3.00860127,14 3.0503418,13.9585555 3.0503418,13.9072674 L3.0503418,13.5389902 L13.2830449,13.5389902 L13.2830449,13.9072674 C13.2830449,13.958529 13.3247321,14 13.3762138,14 L14.4883162,14 C14.539798,14 14.5814852,13.9585555 14.5814852,13.9072674 L14.5814852,13.5389902 L15.9037848,13.5389902 C16.1410707,13.5389902 16.3333333,13.3478203 16.3333333,13.1118894 L16.3333333,2.48995728 C16.3332533,2.25407944 16.1409906,2.06296267 15.9037047,2.06296267 Z M5.83333333,1.16666667 L9.33333333,1.16666667 L9.33333333,2.33333333 L5.83333333,2.33333333 L5.83333333,1.16666667 Z" id="Shape"></path>
                    </g>
                </g>
            </g>
        </g>
    </g>
</svg>