<svg xmlns="http://www.w3.org/2000/svg" width="36" height="40" viewBox="0 0 18 20">
  <metadata><?xpacket begin="﻿" id="W5M0MpCehiHzreSzNTczkc9d"?>
<x:xmpmeta xmlns:x="adobe:ns:meta/" x:xmptk="Adobe XMP Core 5.6-c140 79.160451, 2017/05/06-01:08:21        ">
   <rdf:RDF xmlns:rdf="http://www.w3.org/1999/02/22-rdf-syntax-ns#">
      <rdf:Description rdf:about=""/>
   </rdf:RDF>
</x:xmpmeta>
                                                                                                    
                                                                                                    
                                                                                                    
                                                                                                    
                                                                                                    
                                                                                                    
                                                                                                    
                                                                                                    
                                                                                                    
                                                                                                    
                                                                                                    
                                                                                                    
                                                                                                    
                                                                                                    
                                                                                                    
                                                                                                    
                                                                                                    
                                                                                                    
                                                                                                    
                                                                                                    
                           
<?xpacket end="w"?></metadata>
  <path id="Calendar" class="cls-1" d="M1114.59,200.281a1.3,1.3,0,0,0-.97-0.424h-1.39v-1.071a1.743,1.743,0,0,0-.51-1.261,1.631,1.631,0,0,0-1.22-.525h-0.69a1.616,1.616,0,0,0-1.22.525,1.743,1.743,0,0,0-.51,1.261v1.071h-4.16v-1.071a1.743,1.743,0,0,0-.51-1.261,1.616,1.616,0,0,0-1.22-.525h-0.69a1.631,1.631,0,0,0-1.22.525,1.743,1.743,0,0,0-.51,1.261v1.071h-1.39a1.3,1.3,0,0,0-.97.424,1.412,1.412,0,0,0-.41,1v14.286a1.411,1.411,0,0,0,.41,1,1.3,1.3,0,0,0,.97.424h15.24a1.3,1.3,0,0,0,.97-0.424,1.411,1.411,0,0,0,.41-1V201.286A1.412,1.412,0,0,0,1114.59,200.281Zm-13.09,15.291h-3.12v-3.215h3.12v3.215Zm0-3.929h-3.12v-3.571h3.12v3.571Zm0-4.286h-3.12v-3.214h3.12v3.214Zm-0.24-5.106a0.35,0.35,0,0,1-.11-0.251v-3.214a0.348,0.348,0,0,1,.11-0.251,0.328,0.328,0,0,1,.24-0.106h0.69a0.333,0.333,0,0,1,.25.106,0.382,0.382,0,0,1,.1.251V202a0.385,0.385,0,0,1-.1.251,0.333,0.333,0,0,1-.25.106h-0.69A0.328,0.328,0,0,1,1101.26,202.251Zm4.39,13.321h-3.46v-3.215h3.46v3.215Zm0-3.929h-3.46v-3.571h3.46v3.571Zm0-4.286h-3.46v-3.214h3.46v3.214Zm4.16,8.215h-3.46v-3.215h3.46v3.215Zm0-3.929h-3.46v-3.571h3.46v3.571Zm0-4.286h-3.46v-3.214h3.46v3.214Zm-0.25-5.106a0.385,0.385,0,0,1-.1-0.251v-3.214a0.382,0.382,0,0,1,.1-0.251,0.333,0.333,0,0,1,.25-0.106h0.69a0.312,0.312,0,0,1,.24.106,0.348,0.348,0,0,1,.11.251V202a0.35,0.35,0,0,1-.11.251,0.312,0.312,0,0,1-.24.106h-0.69A0.333,0.333,0,0,1,1109.56,202.251Zm4.06,13.321h-3.12v-3.215h3.12v3.215Zm0-3.929h-3.12v-3.571h3.12v3.571Zm0-4.286h-3.12v-3.214h3.12v3.214Z" transform="translate(-1097 -197)"/>
</svg>
