<?xml version="1.0" encoding="UTF-8"?>
<svg width="12px" height="10px" viewBox="0 0 12 10" version="1.1" xmlns="http://www.w3.org/2000/svg" xmlns:xlink="http://www.w3.org/1999/xlink">
    <!-- Generator: sketchtool 51.3 (57544) - http://www.bohemiancoding.com/sketch -->
    <title>FF36AFA7-2834-47E1-9969-15B163D6EF18</title>
    <desc>Created with sketchtool.</desc>
    <defs></defs>
    <g id="Employee-Information" stroke="none" stroke-width="1" >
        <g id="Download-setting" transform="translate(-737.000000, -270.000000)" >
            <path d="M748.78323,271.380426 L747.730345,270.235658 C747.585977,270.078572 747.410396,270 747.204012,270 C746.997437,270 746.821857,270.078572 746.677488,270.235658 L741.598708,275.765999 L739.322566,273.28279 C739.178034,273.125645 739.002563,273.047161 738.796178,273.047161 C738.589658,273.047161 738.414186,273.125645 738.269654,273.28279 L737.21677,274.427587 C737.072239,274.584702 737,274.775546 737,275.000059 C737,275.224395 737.072239,275.415416 737.21677,275.572502 L740.0193,278.619545 L741.072266,279.764313 C741.216716,279.921516 741.392242,280 741.598708,280 C741.805092,280 741.980618,279.92131 742.12515,279.764313 L743.178088,278.619545 L748.78323,272.525282 C748.927626,272.368137 749,272.177323 749,271.952809 C749.000108,271.728414 748.927626,271.53757 748.78323,271.380426 Z" id="Shape-Copy-12"></path>
        </g>
    </g>
</svg>