<?xml version="1.0" encoding="UTF-8"?>
<svg width="16px" height="16px" viewBox="0 0 16 16" version="1.1" xmlns="http://www.w3.org/2000/svg" xmlns:xlink="http://www.w3.org/1999/xlink">
    <g id="Employee-Information" stroke="none" stroke-width="1" fill="none" fill-rule="evenodd">
        <g id="Organization-chart-[Edit]" transform="translate(-225.000000, -944.000000)" >
            <g id="checked" transform="translate(225.000000, 944.000000)">
                <path d="M8,0 C3.56363636,0 0,3.56363636 0,8 C0,12.4363636 3.56363636,16 8,16 C12.4363636,16 16,12.4363636 16,8 C16,3.56363636 12.4363636,0 8,0 Z M11.8961538,5.05527638 L6.35769231,10.8944724 C6.28846154,10.9648241 6.21923077,11 6.11538462,11 C6.01153846,11 5.90769231,10.9648241 5.87307692,10.8944724 L3.17307692,7.93969849 L3.10384615,7.86934673 C3.03461538,7.79899497 3,7.69346734 3,7.62311558 C3,7.55276382 3.03461538,7.44723618 3.10384615,7.37688442 L3.58846154,6.88442211 C3.72692308,6.74371859 3.93461538,6.74371859 4.07307692,6.88442211 L4.10769231,6.91959799 L6.01153846,8.99497487 C6.08076923,9.06532663 6.18461538,9.06532663 6.25384615,8.99497487 L10.8923077,4.10552764 L10.9269231,4.10552764 C11.0653846,3.96482412 11.2730769,3.96482412 11.4115385,4.10552764 L11.8961538,4.59798995 C12.0346154,4.70351759 12.0346154,4.91457286 11.8961538,5.05527638 Z" id="Shape"></path>
            </g>
        </g>
    </g>
</svg>