<?xml version="1.0" encoding="UTF-8"?>
<svg width="16px" height="16px" viewBox="0 0 16 16" version="1.1" xmlns="http://www.w3.org/2000/svg" xmlns:xlink="http://www.w3.org/1999/xlink">
    <!-- Generator: sketchtool 51.3 (57544) - http://www.bohemiancoding.com/sketch -->
    <title>2108F3F9-1823-4CE0-B5AD-9455E228888B</title>
    <desc>Created with sketchtool.</desc>
    <defs></defs>
    <g id="Employee-Information" stroke="none" stroke-width="1" >
        <g id="Organization-chart-[Edit]" transform="translate(-230.000000, -354.000000)" >
            <g id="delete" transform="translate(230.000000, 354.000000)">
                <path d="M13.6596065,2.34047517 C10.5390818,-0.780004472 5.46134144,-0.780312302 2.34050894,2.34047517 C-0.780323562,5.46126264 -0.780015727,10.5386219 2.34050894,13.6594094 C5.46103361,16.7801969 10.538774,16.7801969 13.6596065,13.6594094 C16.7801312,10.5386219 16.7801312,5.46095481 13.6596065,2.34047517 Z M11.813883,11.7017203 C11.5657271,11.9498763 11.1634666,11.9498763 10.9153106,11.7017203 L8.55608134,9.34249109 L6.08468941,11.813883 C5.83653344,12.062039 5.43427294,12.062039 5.18611697,11.813883 C4.93796101,11.5657271 4.93796101,11.1634666 5.18611697,10.9153106 L7.65750891,8.44391866 L5.29827966,6.08468941 C5.05012369,5.83653344 5.05012369,5.4339552 5.29827966,5.18611697 C5.54643562,4.93796101 5.94869613,4.93796101 6.19685209,5.18611697 L8.55608134,7.54534622 L10.8028302,5.2985974 C11.0509861,5.05044143 11.4532466,5.05044143 11.7014026,5.2985974 C11.9495586,5.54675336 11.9495586,5.94901387 11.7014026,6.19716983 L9.45465378,8.44391866 L11.813883,10.8031479 C12.062039,11.0513039 12.062039,11.4535644 11.813883,11.7017203 Z" id="Shape"></path>
            </g>
        </g>
    </g>
</svg>