<?xml version="1.0" encoding="UTF-8"?>
<svg width="24px" height="14px" viewBox="0 0 24 14" version="1.1" xmlns="http://www.w3.org/2000/svg" xmlns:xlink="http://www.w3.org/1999/xlink">
    <!-- Generator: sketchtool 52 (66869) - http://www.bohemiancoding.com/sketch -->
    <title>307A5677-146D-4CD1-A29B-35B8389BCAB3</title>
    <desc>Created with sketchtool.</desc>
    <g id="Page-1" stroke="none" stroke-width="1" fill="none" fill-rule="evenodd">
        <g id="Request" transform="translate(-872.000000, -116.000000)" fill="#20C38F">
            <g id="New-Request-Group" transform="translate(205.000000, 96.000000)">
                <g id="new-request" transform="translate(16.000000, 0.000000)">
                    <g id="computer" transform="translate(651.000000, 20.000000)">
                        <path d="M0,13.9923368 L7.50494386,13.9923368 L7.50494386,0 L0,0 L0,13.9923368 Z M1.40625,12.6547572 L1.40625,6.69225218 L6.09869386,6.69225218 L6.09869386,12.6547572 L1.40625,12.6547572 Z M1.40625,5.35467256 L1.40625,4.01482882 L6.09869386,4.01482882 L6.09869386,5.35467256 L1.40625,5.35467256 Z M6.09869386,1.33757962 L6.09869386,2.6772492 L1.40625,2.6772492 L1.40625,1.33757962 L6.09869386,1.33757962 Z" id="Shape" fill-rule="nonzero"></path>
                        <path d="M24,11.3150876 L24,0 L8.91339113,0 L8.91339113,11.3150876 L13.8770142,11.3150876 L13.8770142,12.6547572 L12.4691162,12.6547572 L12.4691162,13.9923368 L20.4442749,13.9923368 L20.4442749,12.6547572 L19.036377,12.6547572 L19.036377,11.3150876 L24,11.3150876 Z M22.59375,1.33757962 L22.59375,7.30025876 L10.3196411,7.30025876 L10.3196411,1.33757962 L22.59375,1.33757962 Z M10.3196411,8.63783838 L22.59375,8.63783838 L22.59375,9.97750796 L10.3196411,9.97750796 L10.3196411,8.63783838 Z M17.630127,12.6547572 L15.2832642,12.6547572 L15.2832642,11.3150876 L17.630127,11.3150876 L17.630127,12.6547572 Z" id="Shape" fill-rule="nonzero"></path>
                        <polygon id="Path" points="2.81414794 9.97750796 4.69061278 9.97750796 4.69061278 11.3150876 2.81414794 11.3150876"></polygon>
                    </g>
                </g>
            </g>
        </g>
    </g>
</svg>