<?xml version="1.0" encoding="UTF-8"?>
<svg width="24px" height="24px" viewBox="0 0 24 24" version="1.1" xmlns="http://www.w3.org/2000/svg" xmlns:xlink="http://www.w3.org/1999/xlink">
    <!-- Generator: Sketch 53.2 (72643) - https://sketchapp.com -->
    <title>confetti</title>
    <desc>Created with Sketch.</desc>
    <g id="Page-1" stroke="none" stroke-width="1" fill="none" fill-rule="evenodd">
        <g id="Home" transform="translate(-355.000000, -202.000000)" fill="#006CB2">
            <g id="confetti" transform="translate(355.000000, 202.000000)">
                <path d="M23.648625,11.3521446 C23.3842969,11.2774458 23.1600937,11.4446747 23.0699062,11.6899759 C22.9150781,12.1110843 22.3327031,12.3629398 21.9113906,12.4194217 C21.2768437,12.5045301 20.6585156,12.2188434 20.0978906,11.9514699 C19.4328281,11.6343614 18.747375,11.3317108 17.9997187,11.3381687 C17.247375,11.3446747 16.5129375,11.6536867 15.9002344,12.0880964 C15.2105156,12.5770602 14.6564531,13.2151325 14.1143437,13.8645301 C13.9489688,14.0626506 13.9250156,14.3539277 14.1143437,14.5485783 C14.2836563,14.7226506 14.6135156,14.7476627 14.7796875,14.5485783 C15.6501563,13.5056867 16.7974219,12.1299277 18.2935781,12.3192771 C18.9999844,12.4086747 19.6327031,12.8139759 20.2810781,13.0845301 C20.9475469,13.3626506 21.6786094,13.4940723 22.3849687,13.3032289 C23.0851406,13.1140241 23.7159844,12.6573976 23.977125,11.9470843 C24.0670781,11.702747 23.8774219,11.4167711 23.648625,11.3521446 Z" id="Path"></path>
                <path d="M9.68090625,6.24366265 C10.1257031,5.61031325 10.5997969,4.93383133 10.7351719,4.14693976 C10.8664687,3.38361446 10.6744219,2.61489157 10.2608437,1.97219277 C9.78384375,1.23098795 9.0915,0.697590361 8.40810937,0.172289157 C8.2044375,0.0157590361 7.88245312,0.138313253 7.76442187,0.345783133 C7.62389063,0.592819277 7.72907813,0.850650602 7.93321875,1.00756627 C8.98471875,1.81580723 10.2996094,2.94033735 9.66726562,4.4453494 C9.10565625,5.78192771 7.64446875,6.85701205 7.82714062,8.46009639 C7.91517187,9.23253012 8.361,9.93093976 9.1205625,10.1373012 C9.70659375,10.2964819 9.95653125,9.36361446 9.37073437,9.20443373 C8.896125,9.07551807 8.70867187,8.54245783 8.75939062,8.07498795 C8.833125,7.39624096 9.30276562,6.78212048 9.68090625,6.24366265 Z" id="Path"></path>
                <path d="M16.4340469,7.41836145 C16.3577344,6.77537349 16.0037344,6.19301205 15.47475,5.83927711 C15.18,5.64221687 14.8593281,5.53850602 14.5340156,5.51195181 C14.6948906,4.96674699 14.9960156,4.46578313 15.4362188,4.11903614 C15.6375938,3.96043373 15.7446563,3.7026506 15.6050156,3.45725301 C15.4890938,3.25349398 15.1642969,3.12385542 14.9613281,3.28371084 C14.2102969,3.8753253 13.7086875,4.72385542 13.5289688,5.66187952 C12.9148594,5.89151807 12.3687188,6.35527711 12.054,6.9313253 C11.2080938,8.47951807 11.7426094,10.2893976 12.5937188,11.6968193 C12.9127969,12.2244337 13.7271563,11.7392771 13.4062031,11.2085783 C12.8510625,10.2905542 12.3831094,9.1899759 12.6255,8.08804819 C12.7431563,7.5533012 13.0415625,7.05209639 13.46775,6.75527711 C13.5088125,7.28607229 13.6538438,7.81016867 13.9061719,8.27551807 C14.2564219,8.92139759 14.9212969,9.45759036 15.6559219,9.09643373 C16.2489844,8.80491566 16.5095625,8.05498795 16.4340469,7.41836145 Z M15.3868125,8.08539759 C15.1307344,8.46106024 14.8616719,8.05142169 14.7186563,7.78718072 C14.5239375,7.42742169 14.4186094,7.01725301 14.3998125,6.60795181 C14.3978906,6.56554217 14.3976563,6.52284337 14.397375,6.48009639 C14.4205781,6.48106024 14.4437813,6.48212048 14.4672188,6.48414458 C15.1567031,6.54366265 15.8260313,7.44106024 15.3868125,8.08539759 Z" id="Shape" fill-rule="nonzero"></path>
                <path d="M18.3465938,8.73918072 C17.7411563,8.73918072 17.740125,9.70660241 18.3465938,9.70660241 C18.9520313,9.70655422 18.9530156,8.73918072 18.3465938,8.73918072 Z" id="Path"></path>
                <path d="M18.9334687,7.33961446 C18.3280312,7.33961446 18.3270469,8.30703614 18.9334687,8.30703614 C19.5389062,8.30703614 19.5399375,7.33961446 18.9334687,7.33961446 Z" id="Path"></path>
                <path d="M19.8527812,8.57383133 C19.2473437,8.57383133 19.2463594,9.54125301 19.8527812,9.54125301 C20.4582187,9.54125301 20.4592031,8.57383133 19.8527812,8.57383133 Z" id="Path"></path>
                <path d="M4.20271875,4.61542169 C3.59728125,4.61542169 3.59625,5.58284337 4.20271875,5.58284337 C4.80820312,5.58284337 4.8091875,4.61542169 4.20271875,4.61542169 Z" id="Path"></path>
                <path d="M4.78959375,3.21595181 C4.18415625,3.21595181 4.18317188,4.18337349 4.78959375,4.18337349 C5.39507812,4.1833253 5.39610937,3.21595181 4.78959375,3.21595181 Z" id="Path"></path>
                <path d="M5.70890625,4.45012048 C5.10346875,4.45012048 5.10248437,5.41754217 5.70890625,5.41754217 C6.31434375,5.41754217 6.31532812,4.45012048 5.70890625,4.45012048 Z" id="Path"></path>
                <path d="M13.2815156,16.7435663 L7.03364063,10.3200482 C6.92667188,10.2101205 6.77484375,10.1596627 6.62545313,10.1846747 C6.47615625,10.2096386 6.34757813,10.3068434 6.28003125,10.4460241 L5.71828125,11.6025542 L0.04959375,23.2751807 C-0.040828125,23.4613494 -0.005296875,23.6861205 0.137859375,23.8333012 C0.228140625,23.9261687 0.348515625,23.974988 0.470625,23.974988 C0.54196875,23.974988 0.613875,23.9583133 0.680625,23.924 L13.1589844,17.5183614 C13.2943594,17.4489157 13.3889531,17.3167711 13.4131875,17.1632289 C13.4375156,17.0096867 13.3884844,16.8535904 13.2815156,16.7435663 Z M1.52076563,22.4114217 L3.55401563,18.2247711 L4.2405,21.0153253 L1.52076563,22.4114217 Z M9.28504688,18.4257349 L8.48395313,16.4184578 C8.38528125,16.1713253 8.11054688,16.0531566 7.870125,16.1545542 C7.62975,16.2559518 7.5148125,16.538506 7.6134375,16.7856386 L8.44092188,18.8590361 L5.10225,20.5728675 L4.19821875,16.8981205 L6.0975,12.9872289 L6.62010937,14.2967229 C6.69478125,14.483759 6.870375,14.5969639 7.05553125,14.5969639 C7.11501562,14.5969639 7.17548437,14.5853012 7.2339375,14.5606265 C7.4743125,14.4592289 7.58925,14.1766747 7.490625,13.9295422 L6.65582813,11.8377349 L6.83010938,11.4789398 L12.1543594,16.9528675 L9.28504688,18.4257349 Z" id="Shape" fill-rule="nonzero"></path>
                <path d="M22.0595625,15.7298313 C21.0099375,15.7298313 20.1560156,16.607759 20.1560156,17.6868916 C20.1560156,18.7662651 21.0099375,19.6444337 22.0595625,19.6444337 C23.1094687,19.6444337 23.9635781,18.7662651 23.9635781,17.6868916 C23.9635781,16.607759 23.1094687,15.7298313 22.0595625,15.7298313 Z M22.0595625,18.677012 C21.5287969,18.677012 21.0969844,18.2328193 21.0969844,17.6868916 C21.0969844,17.1412048 21.5288437,16.697253 22.0595625,16.697253 C22.5905625,16.697253 23.0226094,17.1412048 23.0226094,17.6868916 C23.0226094,18.2328193 22.5906094,18.677012 22.0595625,18.677012 Z" id="Shape" fill-rule="nonzero"></path>
                <path d="M21.5548125,2.11214458 L19.6625625,0.166698795 C19.5742969,0.076 19.454625,0.0250120482 19.3298438,0.0250120482 C19.2050625,0.0250120482 19.0854375,0.076 18.9971719,0.166746988 L17.1053906,2.11219277 C16.9217344,2.30106024 16.9217813,2.6073253 17.1054375,2.79624096 L18.9972188,4.74120482 C19.0890938,4.83566265 19.2095156,4.88289157 19.3298906,4.88289157 C19.4502656,4.88289157 19.5706875,4.83566265 19.6625156,4.74125301 L21.5547656,2.79628916 C21.6430781,2.70559036 21.692625,2.58255422 21.692625,2.45421687 C21.6925781,2.32592771 21.6429844,2.20289157 21.5548125,2.11214458 Z M19.3299844,3.71518072 L18.1035,2.45416867 L19.3299844,1.19286747 L20.5567969,2.45416867 L19.3299844,3.71518072 Z" id="Shape" fill-rule="nonzero"></path>
                <path d="M7.51190625,14.8861205 C6.90646875,14.8861205 6.90548437,15.8535422 7.51190625,15.8535422 C8.11734375,15.8535422 8.11832813,14.8861205 7.51190625,14.8861205 Z" id="Path"></path>
            </g>
        </g>
    </g>
</svg>