<svg xmlns="http://www.w3.org/2000/svg" width="32" height="40" viewBox="0 0 16 20">
  <metadata><?xpacket begin="﻿" id="W5M0MpCehiHzreSzNTczkc9d"?>
<x:xmpmeta xmlns:x="adobe:ns:meta/" x:xmptk="Adobe XMP Core 5.6-c140 79.160451, 2017/05/06-01:08:21        ">
   <rdf:RDF xmlns:rdf="http://www.w3.org/1999/02/22-rdf-syntax-ns#">
      <rdf:Description rdf:about=""/>
   </rdf:RDF>
</x:xmpmeta>
                                                                                                    
                                                                                                    
                                                                                                    
                                                                                                    
                                                                                                    
                                                                                                    
                                                                                                    
                                                                                                    
                                                                                                    
                                                                                                    
                                                                                                    
                                                                                                    
                                                                                                    
                                                                                                    
                                                                                                    
                                                                                                    
                                                                                                    
                                                                                                    
                                                                                                    
                                                                                                    
                           
<?xpacket end="w"?></metadata>
<defs>
  </defs>
  <path id="Contact" class="cls-1" d="M235.294,517.209H236V500H222.118A2.108,2.108,0,0,0,220,502.093v15.814A2.108,2.108,0,0,0,222.118,520H236v-1.395h-0.706A0.7,0.7,0,1,1,235.294,517.209Zm-2,1.4h-11.18a0.7,0.7,0,1,1,0-1.4H233.3A2.058,2.058,0,0,0,233.3,518.605Zm1.29-2.791h-12.47a2.14,2.14,0,0,0-.706.12V502.093a0.7,0.7,0,0,1,.706-0.7h12.47v14.419Zm-4.279-6.576-0.832.822-2.329-2.3,0.832-.822-2-1.973-0.5.493a2.079,2.079,0,0,0,0,2.96l3.328,3.289a2.118,2.118,0,0,0,1.5.613h0a2.119,2.119,0,0,0,1.5-.613l0.5-.494Z" transform="translate(-220 -500)"/>
</svg>
