<?xml version="1.0" encoding="UTF-8"?>
<svg width="24px" height="24px" viewBox="0 0 24 24" version="1.1" xmlns="http://www.w3.org/2000/svg" xmlns:xlink="http://www.w3.org/1999/xlink">
    <!-- Generator: sketchtool 51.3 (57544) - http://www.bohemiancoding.com/sketch -->
    <title>E1ED1E2B-4BEF-4D95-AB00-5F73771AA1F1</title>
    <desc>Created with sketchtool.</desc>
    <defs></defs>
    <g id="Employee-Information" stroke="none" stroke-width="1" >
        <g id="Organization-chart-[Edit]" transform="translate(-1225.000000, -214.000000)">
            <g id="create-new" transform="translate(1220.000000, 209.000000)">
                <path d="M25.4894098,8.51071275 C20.8086228,3.82999329 13.1920122,3.82953155 8.51076341,8.51071275 C3.82951466,13.191894 3.82997641,20.8079329 8.51076341,25.4891141 C13.1915504,30.1702953 20.808161,30.1702953 25.4894098,25.4891141 C30.1701967,20.8079329 30.1701967,13.1914322 25.4894098,8.51071275 Z M22.7163932,22.5454786 C22.3382508,22.923621 21.7252824,22.923621 21.3471399,22.5454786 L17.7521239,18.9504626 L13.9861934,22.7163932 C13.608051,23.0945356 12.9950826,23.0945356 12.6169402,22.7163932 C12.2387977,22.3382508 12.2387977,21.7252824 12.6169402,21.3471399 L16.3828707,17.5812094 L12.7878547,13.9861934 C12.4097123,13.608051 12.4097123,12.9945984 12.7878547,12.6169402 C13.1659971,12.2387977 13.7789655,12.2387977 14.1571079,12.6169402 L17.7521239,16.2119562 L21.1757412,12.7883389 C21.5538836,12.4101965 22.166852,12.4101965 22.5449944,12.7883389 C22.9231369,13.1664813 22.9231369,13.7794497 22.5449944,14.1575921 L19.1213772,17.5812094 L22.7163932,21.1762254 C23.0945356,21.5543678 23.0945356,22.1673362 22.7163932,22.5454786 Z" id="create" transform="translate(17.000000, 17.000000) rotate(45.000000) translate(-17.000000, -17.000000) "></path>
            </g>
        </g>
    </g>
</svg>