<?xml version="1.0" encoding="UTF-8"?>
<svg width="103px" height="27px" viewBox="0 0 103 27" version="1.1" xmlns="http://www.w3.org/2000/svg" xmlns:xlink="http://www.w3.org/1999/xlink">
    <!-- Generator: sketchtool 52 (66869) - http://www.bohemiancoding.com/sketch -->
    <title>2D2FDA81-D1E8-43FB-8E97-9D6653386007</title>
    <desc>Created with sketchtool.</desc>
    <g id="Employee-Information" stroke="none" stroke-width="1" fill="none" fill-rule="evenodd">
        <g id="Warning-delete" transform="translate(-513.000000, -434.000000)" fill="#D0021B">
            <g id="danger" transform="translate(513.000000, 434.000000)">
                <path d="M31.7184103,24.0492729 L17.6790183,0.941126198 C17.3242054,0.35710938 16.6871421,0 15.9999538,0 C15.3127654,0 14.6757022,0.35704735 14.3208892,0.941126198 L0.281622231,24.0492729 C-0.0835032107,24.650286 -0.0943157238,25.3999242 0.253434697,26.0109863 C0.601185118,26.6221104 1.25349841,27 1.96062426,27 L30.0393458,27 C30.7464716,27 31.3987849,26.6220484 31.7465353,26.0109863 C32.0942858,25.3998622 32.0835357,24.650286 31.7184103,24.0492729 Z M16.0104538,7.99336963 C16.8167673,7.99336963 17.4990181,8.44482735 17.4990181,9.24502033 C17.4990181,11.6867255 17.2095802,15.1955407 17.2095802,17.6372458 C17.2095802,18.2733683 16.5066419,18.5400372 16.0104538,18.5400372 C15.348953,18.5400372 14.7907023,18.2733062 14.7907023,17.6372458 C14.7907023,15.1955407 14.501327,11.6867255 14.501327,9.24502033 C14.501327,8.44482735 15.1628278,7.99336963 16.0104538,7.99336963 Z M16.0311413,23.1158384 C15.1215152,23.1158384 14.4392019,22.3771797 14.4392019,21.5359225 C14.4392019,20.6741333 15.1214527,19.9560066 16.0311413,19.9560066 C16.8787673,19.9560066 17.6023932,20.6741333 17.6023932,21.5359225 C17.6023932,22.3771797 16.8787673,23.1158384 16.0311413,23.1158384 Z" id="Shape" fill-rule="nonzero"></path>
            </g>
        </g>
    </g>
</svg>