<?xml version="1.0" encoding="UTF-8"?>
<svg width="24px" height="23px" viewBox="0 0 24 23" version="1.1" xmlns="http://www.w3.org/2000/svg" xmlns:xlink="http://www.w3.org/1999/xlink">
    <!-- Generator: sketchtool 52 (66869) - http://www.bohemiancoding.com/sketch -->
    <title>458C3CC0-694A-4ECF-BD8B-A0C0CF31FF7E</title>
    <desc>Created with sketchtool.</desc>
    <g id="Page-1" stroke="none" stroke-width="1" fill="none" fill-rule="evenodd">
        <g id="Request-Biz-Trip" transform="translate(-1375.000000, -208.000000)" fill="#D8D8D8">
            <g id="form" transform="translate(617.000000, 177.000000)">
                <g id="edit" transform="translate(758.000000, 31.000000)">
                    <path d="M23.0319328,21.2897436 L0.968067227,21.2897436 C0.504201681,21.2897436 0.141176471,21.6632479 0.141176471,22.0957265 C0.141176471,22.5282051 0.524369748,22.9017094 0.968067227,22.9017094 L23.0521008,22.9017094 C23.5159664,22.9017094 23.8789916,22.5282051 23.8789916,22.0957265 C23.8789916,21.6632479 23.4957983,21.2897436 23.0319328,21.2897436 Z" id="Path"></path>
                    <path d="M0.141176471,14.1538462 L0.121008403,17.9871795 C0.121008403,18.2034188 0.201680672,18.4196581 0.36302521,18.5769231 C0.524369748,18.734188 0.72605042,18.8128205 0.94789916,18.8128205 L4.8605042,18.7931624 C5.08235294,18.7931624 5.28403361,18.7145299 5.44537815,18.557265 L18.9579832,5.38632479 C19.2806723,5.07179487 19.2806723,4.56068376 18.9579832,4.22649573 L15.0857143,0.412820513 C14.7630252,0.0982905983 14.2386555,0.0982905983 13.8957983,0.412820513 L11.1932773,3.06666667 L0.383193277,13.5837607 C0.242016807,13.7410256 0.141176471,13.9376068 0.141176471,14.1538462 Z M14.5008403,2.14273504 L17.2235294,4.7965812 L15.6907563,6.29059829 L12.9680672,3.63675214 L14.5008403,2.14273504 Z M1.81512605,14.5076923 L11.7781513,4.7965812 L14.5008403,7.45042735 L4.53781513,17.1418803 L1.79495798,17.1615385 L1.81512605,14.5076923 Z" id="Shape" fill-rule="nonzero"></path>
                </g>
            </g>
        </g>
    </g>
</svg>