<?xml version="1.0" encoding="UTF-8"?>
<svg width="18px" height="19px" viewBox="0 0 18 19" version="1.1" xmlns="http://www.w3.org/2000/svg" xmlns:xlink="http://www.w3.org/1999/xlink">
    <!-- Generator: sketchtool 51.3 (57544) - http://www.bohemiancoding.com/sketch -->
    <title>ED4CAAE0-978A-44AE-8581-72B49782312A</title>
    <desc>Created with sketchtool.</desc>
    <defs></defs>
    <g id="Employee-Information" stroke="none" stroke-width="1" fill="none" fill-rule="evenodd">
        <g id="Employee-Information-1" transform="translate(-1034.000000, -970.000000)" fill="#427FEC" fill-rule="nonzero">
            <g id="edit-button" transform="translate(1013.000000, 957.000000)">
                <g id="edit" transform="translate(21.000000, 13.000000)">
                    <path d="M17.357689,17 L0.627017842,17 C0.275276126,17 0,17.4634146 0,18 C0,18.5365854 0.290569244,19 0.627017842,19 L17.3729822,19 C17.7247239,19 18,18.5365854 18,18 C18,17.4634146 17.7094308,17 17.357689,17 Z" id="Shape"></path>
                    <path d="M0.0169133192,12 L0,15.2911392 C0,15.4767932 0.067653277,15.6624473 0.202959831,15.7974684 C0.338266385,15.9324895 0.507399577,16 0.693446089,16 L3.97463002,15.9831224 C4.16067653,15.9831224 4.32980973,15.9156118 4.46511628,15.7805907 L15.7970402,4.47257384 C16.0676533,4.20253165 16.0676533,3.76371308 15.7970402,3.47679325 L12.5496829,0.202531646 C12.2790698,-0.0675105485 11.8393235,-0.0675105485 11.551797,0.202531646 L9.28541226,2.48101266 L0.21987315,11.5105485 C0.101479915,11.6455696 0.0169133192,11.814346 0.0169133192,12 Z M12.4407583,2 L15,4.55924171 L13.5592417,6 L11,3.44075829 L12.4407583,2 Z M1.01746032,12.6391097 L9.64285714,4 L12,6.3608903 L3.37460317,14.9825119 L1,15 L1.01746032,12.6391097 Z" id="Shape"></path>
                </g>
            </g>
        </g>
    </g>
</svg>