<?xml version="1.0" encoding="UTF-8"?>
<svg width="36px" height="36px" viewBox="0 0 36 36" version="1.1" xmlns="http://www.w3.org/2000/svg" xmlns:xlink="http://www.w3.org/1999/xlink">
    <!-- Generator: sketchtool 51.3 (57544) - http://www.bohemiancoding.com/sketch -->
    <title>0DB042FB-CEF0-447E-8398-776A568DE15D</title>
    <desc>Created with sketchtool.</desc>
    <defs></defs>
    <g id="Employee-Information" stroke="none" stroke-width="1" fill="none" fill-rule="evenodd">
        <g id="Menu-switch" transform="translate(-33.000000, -214.000000)" fill="#0A214A" fill-rule="nonzero">
            <g id="employee-information-system" transform="translate(33.000000, 214.000000)">
                <path d="M29.628,20.556 C29.628,20.22 29.496,19.98 29.2321765,19.836 L25.3081765,17.964 C25.7641765,17.676 26.1301765,17.268 26.4061765,16.74 C26.682,16.212 26.8201765,15.612 26.8201765,14.94 C26.8201765,14.004 26.5381765,13.2 25.974,12.528 C25.41,11.856 24.7201765,11.52 23.9041176,11.52 C23.6161176,11.52 23.3461176,11.568 23.0940588,11.664 C22.8422353,11.76 22.6080588,11.88 22.3920588,12.024 C22.6560588,12.744 22.7880588,13.476 22.7880588,14.22 C22.7880588,15.396 22.4758824,16.464 21.8520588,17.424 C21.9720588,17.544 22.0860588,17.652 22.1939412,17.748 C22.3019412,17.844 22.4159412,17.928 22.5359412,18 L25.0919412,19.188 C25.4517647,19.38 25.7399412,19.65 25.9559412,19.998 C26.1719412,20.346 26.2799412,20.736 26.2799412,21.1681765 L26.2799412,24.4801176 L28.9799412,24.4801176 C29.1719412,24.4801176 29.3279412,24.4021176 29.4479412,24.2460588 C29.5679412,24.0902353 29.6279412,23.9041765 29.6279412,23.6882353 L29.628,20.556 Z M25.056,21.168 C25.056,20.7358235 24.888,20.448 24.552,20.304 L21.132,18.648 L19.692,17.9641765 C20.0041765,17.7721765 20.2861765,17.5261765 20.5381765,17.2261765 C20.79,16.9261765 21.0001765,16.5841765 21.1681765,16.2001765 C21.2881176,15.9121765 21.39,15.6001765 21.474,15.2641765 C21.5581765,14.9281765 21.6001765,14.5801765 21.6001765,14.2201765 C21.6001765,14.0281765 21.5881765,13.8421765 21.5641765,13.6621765 C21.5401765,13.4821765 21.5041765,13.2961765 21.4561765,13.1041765 C21.2401765,12.1921765 20.8141765,11.4481765 20.1781765,10.8721765 C19.5421176,10.2961765 18.8041765,10.0081765 17.9641765,10.0081765 C17.1241765,10.0081765 16.3921765,10.2901765 15.7681765,10.8541765 C15.1441765,11.4181765 14.7241765,12.1321765 14.5081765,12.9961765 C14.3881765,13.4281765 14.3281765,13.8361765 14.3281765,14.2201765 C14.3281765,14.9401765 14.4841765,15.6361765 14.7961765,16.3081765 C15.1561765,17.0281765 15.6481765,17.5921765 16.2721765,18.0001765 L14.9041765,18.6481765 L11.3761765,20.2681765 C11.0161765,20.4361765 10.8361765,20.7361765 10.8361765,21.1682941 L10.8361765,24.4802353 L10.8361765,25.0562353 C10.8361765,25.3202353 10.9141765,25.5422353 11.0701765,25.7222353 C11.2261765,25.9022353 11.4241765,25.9922353 11.6641765,25.9922353 L24.2641765,25.9922353 C24.4801765,25.9922353 24.6661765,25.9022353 24.822,25.7222353 C24.978,25.5420588 25.0560588,25.3202353 25.0560588,25.0562353 L25.0560588,24.4802353 L25.056,21.168 Z M9.648,21.168 C9.648,20.7358235 9.756,20.3458235 9.972,19.9978235 C10.188,19.6498235 10.476,19.3798235 10.836,19.1878235 L13.5,17.9637647 C13.74,17.8197647 13.932,17.6517647 14.076,17.4597647 C13.764,17.0037647 13.524,16.4997647 13.356,15.9477647 C13.188,15.3957647 13.104,14.8197647 13.104,14.2197647 C13.104,13.8117647 13.146,13.4217647 13.23,13.0497647 C13.314,12.6777647 13.416,12.3237647 13.536,11.9877647 C13.104,11.6757647 12.624,11.5197647 12.096,11.5197647 C11.28,11.5197647 10.59,11.8557647 10.026,12.5277647 C9.462,13.1997647 9.18,14.0037647 9.18,14.9397647 C9.18,15.6117647 9.324,16.2177647 9.612,16.7577647 C9.9,17.2977647 10.284,17.7117647 10.764,17.9997647 L6.768,19.8357647 C6.504,19.9557647 6.372,20.1957647 6.372,20.5557647 L6.372,23.6877647 C6.372,23.9037647 6.432,24.0897647 6.552,24.2455882 C6.672,24.4015882 6.828,24.4796471 7.02,24.4796471 L9.648,24.4796471 L9.648,21.168 Z M18,0 C20.472,0 22.806,0.474 25.002,1.422 C27.198,2.37 29.106,3.654 30.726,5.274 C32.346,6.894 33.63,8.802 34.578,10.998 C35.526,13.194 36,15.528 36,18 C36,19.656 35.784,21.252 35.352,22.788 C34.9198235,24.3238235 34.314,25.7578235 33.534,27.09 C32.754,28.422 31.818,29.634 30.726,30.726 C29.6341176,31.818 28.422,32.7541765 27.09,33.534 C25.7578824,34.314 24.324,34.92 22.7878824,35.352 C21.252,35.784 19.656,36 18,36 C16.344,36 14.748,35.784 13.212,35.352 C11.676,34.9198235 10.242,34.314 8.91,33.534 C7.578,32.754 6.366,31.818 5.274,30.726 C4.182,29.6341176 3.246,28.422 2.466,27.09 C1.686,25.7578824 1.08,24.324 0.648,22.7879412 C0.216,21.252 0,19.656 0,18 C0,16.344 0.216,14.748 0.648,13.212 C1.08,11.676 1.686,10.242 2.466,8.91 C3.246,7.578 4.182,6.366 5.274,5.274 C6.366,4.182 7.578,3.246 8.91,2.466 C10.242,1.686 11.676,1.08 13.212,0.648 C14.748,0.216 16.344,0 18,0 Z" id="Shape"></path>
            </g>
        </g>
    </g>
</svg>