<?xml version="1.0" encoding="UTF-8"?>
<svg width="18px" height="18px" viewBox="0 0 18 18" version="1.1" xmlns="http://www.w3.org/2000/svg" xmlns:xlink="http://www.w3.org/1999/xlink">
    <!-- Generator: sketchtool 52 (66869) - http://www.bohemiancoding.com/sketch -->
    <title>9476C9C7-4BBA-4B43-9D2A-C0E70246E7FD</title>
    <desc>Created with sketchtool.</desc>
    <g id="Employee-Information" stroke="none" stroke-width="1">
        <g id="Organization-chart-[edit]" transform="translate(-574.000000, -595.000000)" >
            <g id="tab" transform="translate(37.000000, 87.000000)">
                <g id="Rectangle-7">
                    <g id="chart">
                        <g id="Rectangle-7">
                            <g id="chart">
                                <g transform="translate(-97.000000, 71.000000)" id="app">
                                    <g transform="translate(553.000000, 309.000000)">
                                        <g id="folder-closed-black-shape" transform="translate(81.000000, 128.000000)">
                                            <path d="M17.2861091,4.11637487 C16.8102324,3.55388886 16.2405064,3.27269064 15.576969,3.27269064 L8.30772437,3.27269064 L8.30772437,2.8636099 C8.30772437,2.07952357 8.06967233,1.40621502 7.59379558,0.843863341 C7.11784306,0.281377334 6.54807917,0 5.88461757,0 L2.42306891,0 C1.75945576,0 1.18976764,0.281332557 0.713890894,0.843863341 C0.237938373,1.40621502 0,2.07952357 0,2.8636099 L0,15.1363901 C0,15.9203421 0.237938373,16.5936507 0.713890894,17.1560023 C1.18984342,17.7186227 1.75960731,18 2.42306891,18 L15.5769311,18 C16.2405064,18 16.8102324,17.7186674 17.2860712,17.1560023 C17.7621753,16.5936059 18,15.9202973 18,15.1363901 L18,6.13647965 C18.0000379,5.35234854 17.7622132,4.67908476 17.2861091,4.11637487 Z" id="Shape"></path>
                                        </g>
                                    </g>
                                </g>
                            </g>
                        </g>
                    </g>
                </g>
            </g>
        </g>
    </g>
</svg>