<?xml version="1.0" encoding="UTF-8"?>
<svg width="20px" height="20px" viewBox="0 0 20 20" version="1.1" xmlns="http://www.w3.org/2000/svg" xmlns:xlink="http://www.w3.org/1999/xlink">
    <!-- Generator: sketchtool 51.3 (57544) - http://www.bohemiancoding.com/sketch -->
    <title>7D268D1F-3CB6-48B9-802E-FAC7D76A4227</title>
    <desc>Created with sketchtool.</desc>
    <defs></defs>
    <g id="Employee-Information" stroke="none" stroke-width="1">
        <g id="Organization-chart-[edit]" transform="translate(-342.000000, -675.000000)" >
            <g id="tab" transform="translate(18.000000, 87.000000)">
                <g id="Rectangle-7">
                    <g id="chart">
                        <g id="Rectangle-7" transform="translate(20.000000, 0.000000)">
                            <g id="chart">
                                <g transform="translate(-98.000000, 71.000000)" id="network-team">
                                    <g transform="translate(324.000000, 152.000000)">
                                        <g id="open-folder" transform="translate(78.000000, 365.000000)">
                                            <path d="M5.39113594,9.7528536 C6.12122905,9.30431762 6.81959032,9.07995037 7.4858473,9.07995037 L16.3330726,9.07995037 L16.3330726,6.81280397 C16.3330726,5.94377171 16.0990689,5.19717122 15.6310242,4.57369727 C15.163054,3.95027295 14.6032402,3.63861042 13.9509497,3.63861042 L8.16633147,3.63861042 L8.16633147,3.18521092 C8.16633147,2.31617866 7.93243948,1.56992556 7.46458101,0.946650124 C6.99668529,0.323225806 6.43664804,0.0113647643 5.78446927,0.0113647643 L2.3818622,0.0113647643 C1.72968343,0.0113647643 1.16964618,0.323176179 0.701750466,0.946650124 C0.233854749,1.56997519 0,2.31622829 0,3.18526055 L0,16.7874442 C0,16.8253598 0.00182495345,16.8844665 0.00536312849,16.9649132 C0.00886405959,17.045062 0.010726257,17.1042184 0.010726257,17.1418859 L0.0638361266,17.0573201 L3.64729981,11.446005 C4.07970205,10.7658065 4.66100559,10.2012903 5.39113594,9.7528536 Z" id="Shape"></path>
                                            <path d="M19.6982495,11.0776179 C19.5105028,10.9546402 19.2961266,10.8930025 19.0549721,10.8930025 L7.4858473,10.8930025 C7.01798883,10.8930025 6.50934823,11.060794 5.96003724,11.3962283 C5.41068901,11.7320099 4.98353818,12.1399504 4.67880819,12.6220844 L1.10599628,18.2329529 C0.886182495,18.5635732 0.776275605,18.8753846 0.776275605,19.1683871 C0.776275605,19.4516625 0.870242086,19.6548387 1.05806331,19.7774194 C1.24588454,19.900397 1.46029795,19.9618362 1.70137803,19.9618362 L13.270838,19.9618362 C13.738622,19.9618362 14.2470019,19.7940447 14.7964618,19.4588089 C15.3458101,19.1235236 15.7727747,18.714938 16.0776164,18.2329529 L19.6504655,12.6220844 C19.8701676,12.2914144 19.9799255,11.9799504 19.9799255,11.6866501 C19.9800745,11.4034243 19.886257,11.2004467 19.6982495,11.0776179 Z" id="Shape"></path>
                                        </g>
                                    </g>
                                </g>
                            </g>
                        </g>
                    </g>
                </g>
            </g>
        </g>
    </g>
</svg>