<?xml version="1.0" encoding="UTF-8"?>
<svg width="26px" height="32px" viewBox="0 0 26 32" version="1.1" xmlns="http://www.w3.org/2000/svg" xmlns:xlink="http://www.w3.org/1999/xlink">
    <!-- Generator: sketchtool 52.5 (67469) - http://www.bohemiancoding.com/sketch -->
    <title>B9172031-436D-4465-86BB-32D523CA9952</title>
    <desc>Created with sketchtool.</desc>
    <g id="Page-1" stroke="none" stroke-width="1" fill="none" fill-rule="evenodd">
        <g id="Setting" transform="translate(-181.000000, -280.000000)" fill="#0B8449">
            <g id="Group" transform="translate(86.000000, 87.000000)">
                <g id="holiday" transform="translate(26.000000, 169.000000)">
                    <g id="form-icon" transform="translate(69.000000, 24.000000)">
                        <path d="M25.9999248,1.28 C25.9999248,0.576 25.4245155,0 24.7212375,0 L1.27868729,0 C0.575409281,0 0,0.576 0,1.28 L0,30.72 C0,31.424 0.575409281,32 1.27868729,32 L24.7213127,32 C25.4245907,32 26,31.424 26,30.72 L26,1.28 L25.9999248,1.28 Z M2.55737458,2.56 L23.4426254,2.56 L23.4426254,29.44 L2.55737458,29.44 L2.55737458,2.56 Z" id="Shape" fill-rule="nonzero"></path>
                        <path d="M18.7272727,7 L7.27272727,7 C6.57272727,7 6,7.675 6,8.5 C6,9.325 6.57272727,10 7.27272727,10 L18.7272727,10 C19.4272727,10 20,9.325 20,8.5 C20,7.675 19.4272727,7 18.7272727,7 Z" id="Path"></path>
                        <path d="M18.7272727,14 L7.27272727,14 C6.57272727,14 6,14.675 6,15.5 C6,16.325 6.57272727,17 7.27272727,17 L18.7272727,17 C19.4272727,17 20,16.325 20,15.5 C20,14.675 19.4272727,14 18.7272727,14 Z" id="Path"></path>
                        <path d="M18.7272727,21 L7.27272727,21 C6.57272727,21 6,21.675 6,22.5 C6,23.325 6.57272727,24 7.27272727,24 L18.7272727,24 C19.4272727,24 20,23.325 20,22.5 C20,21.675 19.4272727,21 18.7272727,21 Z" id="Path"></path>
                    </g>
                </g>
            </g>
        </g>
    </g>
</svg>