<?xml version="1.0" encoding="UTF-8"?>
<svg width="8px" height="10px" viewBox="0 0 8 10" version="1.1" xmlns="http://www.w3.org/2000/svg" xmlns:xlink="http://www.w3.org/1999/xlink">
    <!-- Generator: sketchtool 54.1 (76490) - https://sketchapp.com -->
    <title>880A953F-A622-4E57-B61A-A001A0A6E505</title>
    <desc>Created with sketchtool.</desc>
    <g id="🖥-Project-Status" stroke="none" stroke-width="1" fill="none" fill-rule="evenodd">
        <g id="Work-Report-[Input][Team]" transform="translate(-1087.000000, -241.000000)" fill="#FFFFFF" fill-rule="nonzero">
            <g id="table" transform="translate(317.000000, 210.000000)">
                <g id="holiday" transform="translate(770.000000, 31.000000)">
                    <path d="M4.62010753,9.91728701 C4.62010753,9.92142266 4.6243871,9.92349049 4.62655914,9.92349049 L7.03946237,9.92349049 C7.04376344,9.92349049 7.04804301,9.91937552 7.04591398,9.91523987 C7.03516129,9.76840364 6.85236559,7.51656328 6.09107527,5.56658395 C6.07817204,5.56658395 6.06311828,5.56867246 6.05023656,5.56867246 C5.77066667,5.56867246 5.52980645,5.41149711 5.41582796,5.18198925 C5.30830108,5.24609181 5.18141935,5.28331266 5.04808602,5.28331266 C4.87819355,5.28331266 4.7211828,5.22539289 4.59862366,5.12615798 C4.61797849,5.18610422 4.62658065,5.25022746 4.62658065,5.31637717 C4.62658065,5.50454921 4.54701075,5.67413151 4.41797849,5.79611249 C4.53193548,6.77624069 4.62010753,8.11827957 4.62010753,9.91728701 Z" id="Path"></path>
                    <path d="M5.59860215,5.03101737 C5.65451613,5.20264682 5.81365591,5.33294045 6.00503226,5.34944169 C6.02008602,5.35153019 6.03729032,5.35153019 6.05234409,5.35153019 C6.31470968,5.35153019 6.52763441,5.14683623 6.52763441,4.89454094 C6.52763441,4.80976013 6.50182796,4.72911497 6.46094624,4.66087676 C6.26309677,4.58436725 6.05451613,4.52646816 5.83946237,4.48717949 C5.8072043,4.50372208 5.77709677,4.52233251 5.74913978,4.54301075 C5.75129032,4.56575682 5.75344086,4.58643507 5.75344086,4.60918114 C5.75344086,4.66294458 5.74696774,4.7146402 5.73408602,4.76220017 C5.70827957,4.86352357 5.66096774,4.95450786 5.59860215,5.03101737 Z" id="Path"></path>
                    <path d="M5.05021505,5.06823821 C5.16634409,5.06823821 5.27172043,5.02894955 5.35344086,4.96277916 C5.39860215,4.92555831 5.43731183,4.88006617 5.46744086,4.83043838 C5.49752688,4.77460711 5.51688172,4.7146402 5.52335484,4.64846981 C5.52335484,4.63606286 5.52550538,4.62365591 5.52550538,4.61124897 C5.52550538,4.563689 5.51905376,4.51819686 5.504,4.47477254 C5.49972043,4.46443342 5.49754839,4.45409429 5.49324731,4.44375517 C5.49324731,4.44375517 5.49324731,4.44168734 5.49109677,4.44168734 C5.44593548,4.4375517 5.40077419,4.43548387 5.3555914,4.43341605 C5.29754839,4.43134822 5.24163441,4.4292804 5.18354839,4.4292804 C5.02443011,4.4292804 4.86313978,4.43961952 4.704,4.46029777 C4.6588172,4.50578991 4.61580645,4.55334988 4.57496774,4.60090984 C4.57496774,4.60504549 4.57496774,4.60711332 4.57496774,4.61124897 C4.5727957,4.86352357 4.78784946,5.06823821 5.05021505,5.06823821 Z" id="Path"></path>
                    <ellipse id="Oval" cx="3.0588172" cy="9.11290323" rx="1" ry="1"></ellipse>
                    <path d="M4.27172043,5.00413565 C4.11473118,5.24605045 3.99,5.50868486 3.89967742,5.77543424 C3.90827957,5.77543424 3.91903226,5.77752275 3.92763441,5.77752275 C4.1383871,5.77752275 4.31903226,5.64518197 4.37924731,5.4611249 C4.39430108,5.41565343 4.40292473,5.37014061 4.40292473,5.32051282 C4.40292473,5.22746071 4.37494624,5.14061208 4.32333333,5.06823821 C4.30827957,5.04549214 4.29105376,5.0248139 4.27172043,5.00413565 Z" id="Path"></path>
                    <path d="M3.61580645,7.42760546 L3.61580645,7.42760546 C3.62010753,7.42760546 3.62225806,7.42553763 3.62225806,7.42349049 C3.47387097,6.9375517 3.48892473,6.42059553 3.62010753,5.92638544 C3.62870968,5.8912531 3.63946237,5.85401158 3.65021505,5.81887924 C3.66096774,5.78370554 3.67172043,5.74650538 3.68462366,5.71133168 C3.78139785,5.42183623 3.91688172,5.1426799 4.08247312,4.88629032 C4.10182796,4.85527295 4.12333333,4.82425558 4.14483871,4.79323821 C4.16634409,4.76222084 4.18784946,4.73120347 4.20935484,4.70225393 C4.25664516,4.63815136 4.30395699,4.57611663 4.35556989,4.51614971 C4.41793548,4.44170802 4.48245161,4.36933416 4.55129032,4.30109595 C4.55774194,4.29489247 4.56421505,4.29075682 4.57062366,4.28455335 C4.59645161,4.26594293 4.63298925,4.25146816 4.6588172,4.24733251 C4.69965591,4.24112903 4.74266667,4.23699338 4.78354839,4.23285773 C4.91688172,4.22045079 5.05021505,4.21217949 5.18354839,4.21217949 C5.21580645,4.21217949 5.25023656,4.21217949 5.28249462,4.21424731 C5.34701075,4.21631514 5.41152688,4.21838296 5.47604301,4.22458644 C5.52763441,4.22872208 5.57926882,4.23285773 5.63303226,4.23906121 C5.69326882,4.24526468 5.75131183,4.25353598 5.80937634,4.2638751 C6.08249462,4.30936725 6.35131183,4.38174111 6.60722581,4.48720017 C6.70617204,4.52855666 6.80294624,4.57198098 6.89754839,4.62160877 C7.1212043,4.73947477 7.68466667,5.16335815 7.83733333,5.33912324 L7.83950538,5.34121175 C7.84165591,5.34121175 7.84378495,5.33912324 7.84378495,5.33912324 C8.63733333,2.69023987 5.70830108,2.39662945 5.5663871,2.3842225 C5.56423656,2.3842225 5.48464516,2.38215467 5.4868172,2.37801902 C5.94488172,1.12491729 7.44595699,0.953287841 7.62230108,0.936745244 C7.62660215,0.936745244 7.62660215,0.93054177 7.62230108,0.928473945 C7.03735484,0.690674111 6.48896774,0.599689826 5.99434409,0.599689826 L5.99434409,0.599689826 C5.25670968,0.599689826 4.63092473,0.802336642 4.15993548,1.033933 L4.15778495,1.033933 C4.15563441,1.033933 4.15348387,1.03186518 4.15348387,1.02979735 C4.07604301,0.618300248 4.33845161,0.0889371381 4.37929032,0.00622415219 C4.38146237,0.00415632754 4.37929032,2.06782465e-05 4.37498925,2.06782465e-05 L4.37283871,2.06782465e-05 C3.33412903,0.492162945 3.20939785,1.42475186 3.19219355,1.63153433 C3.19219355,1.63360215 3.19004301,1.63566998 3.18789247,1.63566998 L3.18574194,1.63566998 C3.06746237,1.56536394 2.66746237,1.35651365 2.12552688,1.35651365 L2.12552688,1.35651365 C1.82660215,1.35651365 1.48251613,1.42061621 1.11907527,1.60878825 C1.11477419,1.61085608 1.11692473,1.61499173 1.12122581,1.61705955 C1.21369892,1.63153433 1.81584946,1.73492556 2.11907527,2.03476013 C2.12122581,2.03682796 2.12122581,2.03889578 2.11907527,2.04096361 C1.33843011,2.43178246 0.368537634,3.20101323 0.018,4.67950786 C0.018,4.68157568 0.0201505376,4.68364351 0.0223010753,4.68364351 C0.0244516129,4.68364351 0.0244516129,4.68364351 0.0266021505,4.68157568 C0.116924731,4.54096361 0.671763441,3.75519024 1.7663871,3.75519024 C1.9835914,3.75519024 2.22445161,3.78620761 2.48466667,3.8606493 C2.4868172,3.8606493 2.48896774,3.86478495 2.4868172,3.86685277 C2.41580645,3.9846981 0.912580645,6.50537634 3.61580645,7.42760546 Z" id="Path"></path>
                </g>
            </g>
        </g>
    </g>
</svg>