<?xml version="1.0" encoding="UTF-8"?>
<svg width="36px" height="36px" viewBox="0 0 36 36" version="1.1" xmlns="http://www.w3.org/2000/svg" xmlns:xlink="http://www.w3.org/1999/xlink">
    <!-- Generator: sketchtool 51.3 (57544) - http://www.bohemiancoding.com/sketch -->
    <title>7E004939-2827-4482-B984-C5980CEBE3A2</title>
    <desc>Created with sketchtool.</desc>
    <defs></defs>
    <g id="Employee-Information" stroke="none" stroke-width="1" fill="none" fill-rule="evenodd">
        <g id="Menu-switch" transform="translate(-33.000000, -94.000000)" fill="#006CB2" fill-rule="nonzero">
            <g id="home" transform="translate(33.000000, 94.000000)">
                <path d="M18,0 C8.01818182,0 0,8.01818182 0,18 C0,27.9818182 8.01818182,36 18,36 C27.9818182,36 36,27.9818182 36,18 C36,8.01818182 27.9818182,0 18,0 Z M27.8181818,16.3636364 L26.5909091,16.3636364 C26.3454545,16.3636364 26.1818182,16.5272727 26.1818182,16.7727273 L26.1818182,27 C26.1818182,27.4909091 25.8545455,27.8181818 25.3636364,27.8181818 L10.6363636,27.8181818 C10.1454545,27.8181818 9.81818182,27.4909091 9.81818182,27 L9.81818182,16.7727273 C9.81818182,16.5272727 9.65454545,16.3636364 9.40909091,16.3636364 L8.18181818,16.3636364 C7.69090909,16.3636364 7.36363636,16.0363636 7.36363636,15.5454545 C7.36363636,15.3 7.52727273,14.9727273 7.69090909,14.8909091 L17.5090909,8.34545455 C17.6727273,8.26363636 17.7545455,8.18181818 18,8.18181818 C18.2454545,8.18181818 18.3272727,8.26363636 18.4909091,8.34545455 L28.3090909,14.8909091 C28.5545455,15.0545455 28.6363636,15.3 28.6363636,15.5454545 C28.6363636,16.0363636 28.3090909,16.3636364 27.8181818,16.3636364 Z" id="Shape"></path>
                <path d="M18.35,10.0785597 C18.1166667,9.97381342 17.8833333,9.97381342 17.65,10.0785597 L11.2333333,13.9541735 C11.1166667,14.0589198 11,14.1636661 11,14.3731588 L11,26.4762684 C11,26.7905074 11.2333333,27 11.5833333,27 L15.0833333,27 C15.4333333,27 15.6666667,26.7905074 15.6666667,26.4762684 L15.6666667,20.7626841 C15.6666667,20.1342062 16.1333333,19.7152209 16.8333333,19.7152209 L19.1666667,19.7152209 C19.8666667,19.7152209 20.3333333,20.1342062 20.3333333,20.7626841 L20.3333333,26.4762684 C20.3333333,26.7905074 20.5666667,27 20.9166667,27 L24.4166667,27 C24.7666667,27 25,26.7905074 25,26.4762684 L25,14.3731588 C25,14.1636661 24.8833333,14.0589198 24.7666667,13.9541735 L18.35,10.0785597 Z" id="Shape"></path>
            </g>
        </g>
    </g>
</svg>