<?xml version="1.0" encoding="UTF-8"?>
<svg width="12px" height="12px" viewBox="0 0 12 12" version="1.1" xmlns="http://www.w3.org/2000/svg" xmlns:xlink="http://www.w3.org/1999/xlink">
    <!-- Generator: sketchtool 51.3 (57544) - http://www.bohemiancoding.com/sketch -->
    <title>533C48A7-930C-4025-AB46-036CDC9951A9</title>
    <desc>Created with sketchtool.</desc>
    <defs></defs>
    <g id="Employee-Information" stroke="none" stroke-width="1" >
        <g id="Download-setting" transform="translate(-1065.000000, -223.000000)">
            <path d="M1072.06127,229.000125 L1076.78012,224.281077 C1077.07329,223.988138 1077.07329,223.512831 1076.78012,223.219892 C1076.48694,222.926703 1076.01215,222.926703 1075.71898,223.219892 L1071.00013,227.93894 L1066.28102,223.219892 C1065.98785,222.926703 1065.51306,222.926703 1065.21988,223.219892 C1064.92671,223.512831 1064.92671,223.988138 1065.21988,224.281077 L1069.93898,229.000125 L1065.21988,233.719173 C1064.92671,234.012112 1064.92671,234.487419 1065.21988,234.780358 C1065.36647,234.926703 1065.55859,235 1065.75045,235 C1065.94232,235 1066.13444,234.926703 1066.28102,234.780108 L1071.00013,230.06106 L1075.71898,234.780108 C1075.86556,234.926703 1076.05768,235 1076.24955,235 C1076.44141,235 1076.63353,234.926703 1076.78012,234.780108 C1077.07329,234.487169 1077.07329,234.011862 1076.78012,233.718923 L1072.06127,229.000125 Z" id="ico_cancel"></path>
        </g>
    </g>
</svg>