<?xml version="1.0" encoding="UTF-8"?>
<svg width="16px" height="16px" viewBox="0 0 16 16" version="1.1" xmlns="http://www.w3.org/2000/svg" xmlns:xlink="http://www.w3.org/1999/xlink">
    <!-- Generator: sketchtool 52 (66869) - http://www.bohemiancoding.com/sketch -->
    <title>CC2D6C84-3582-4BE7-BCCD-08DB67434952</title>
    <desc>Created with sketchtool.</desc>
    <g id="Employee-Information" stroke="none" stroke-width="1" fill="none" fill-rule="evenodd">
        <g id="Appointment-mode-[resign-1]" transform="translate(-311.000000, -328.000000)" fill="#4466A3" fill-rule="nonzero">
            <g id="tab" transform="translate(-60.000000, 0.000000)">
                <g id="chart" transform="translate(0.000000, 159.000000)">
                    <g id="Rectangle-7">
                        <g>
                            <g id="chart">
                                <g id="network-team">
                                    <g transform="translate(324.000000, 143.000000)">
                                        <path d="M54.9996614,26 C50.5819683,26 47,29.5819683 47,33.9996614 C47,38.4173545 50.5819683,42 54.9996614,42 C59.4173545,42 63,38.4173545 63,33.9996614 C63,29.5819683 59.4173545,26 54.9996614,26 Z M56.6650159,38.3983915 C56.2532487,38.5609312 55.9254603,38.6841905 55.679619,38.7695238 C55.434455,38.8548571 55.1493333,38.8975238 54.8249312,38.8975238 C54.3264762,38.8975238 53.9384127,38.775619 53.6620952,38.5324868 C53.3857778,38.2893545 53.2482963,37.9812063 53.2482963,37.6066878 C53.2482963,37.4610794 53.258455,37.3120847 53.2787725,37.160381 C53.2997672,37.0086772 53.3329524,36.8380106 53.378328,36.6463492 L53.8937143,34.8259048 C53.9390899,34.6511746 53.9783704,34.4852487 54.0095238,34.330836 C54.0406772,34.1750688 54.0555767,34.0321693 54.0555767,33.9021376 C54.0555767,33.6705185 54.0074921,33.5079788 53.912,33.4165503 C53.8151534,33.3251217 53.6329735,33.2804233 53.3613968,33.2804233 C53.2286561,33.2804233 53.0918519,33.3000635 52.9516614,33.3413757 C52.8128254,33.3840423 52.6922751,33.4226455 52.5933968,33.4605714 L52.7295238,32.8998095 C53.0667937,32.762328 53.3898413,32.6444868 53.6979894,32.546963 C54.0061376,32.4480847 54.2973545,32.3993228 54.5716402,32.3993228 C55.066709,32.3993228 55.4486772,32.519873 55.717545,32.7582646 C55.9850582,32.9973333 56.1198307,33.3081905 56.1198307,33.6901587 C56.1198307,33.7693968 56.1103492,33.9089101 56.0920635,34.1080212 C56.0737778,34.3078095 56.0392381,34.4899894 55.9891217,34.6572698 L55.4764444,36.4722963 C55.434455,36.6179048 55.3972063,36.7845079 55.3633439,36.9707513 C55.3301587,37.1569947 55.3139048,37.2992169 55.3139048,37.394709 C55.3139048,37.6358095 55.3674074,37.800381 55.4757672,37.887746 C55.5827725,37.9751111 55.7703704,38.0191323 56.0358519,38.0191323 C56.1611429,38.0191323 56.3013333,37.9967831 56.4598095,37.9534392 C56.6169312,37.9100952 56.730709,37.8714921 56.8024974,37.8383069 L56.6650159,38.3983915 Z M56.5742646,31.0312804 C56.3351958,31.253418 56.0473651,31.3644868 55.7107725,31.3644868 C55.3748571,31.3644868 55.0849947,31.253418 54.8438942,31.0312804 C54.6041481,30.8091429 54.4829206,30.5389206 54.4829206,30.2233228 C54.4829206,29.9084021 54.6048254,29.6375026 54.8438942,29.4133333 C55.0849947,29.1884868 55.3748571,29.0767407 55.7107725,29.0767407 C56.0473651,29.0767407 56.335873,29.1884868 56.5742646,29.4133333 C56.8133333,29.6375026 56.9332063,29.9084021 56.9332063,30.2233228 C56.9332063,30.5395979 56.8133333,30.8091429 56.5742646,31.0312804 Z" id="org-info"></path>
                                    </g>
                                </g>
                            </g>
                        </g>
                    </g>
                </g>
            </g>
        </g>
    </g>
</svg>