<?xml version="1.0" encoding="UTF-8"?>
<svg width="24px" height="24px" viewBox="0 0 24 24" version="1.1" xmlns="http://www.w3.org/2000/svg" xmlns:xlink="http://www.w3.org/1999/xlink">
    <!-- Generator: sketchtool 51.3 (57544) - http://www.bohemiancoding.com/sketch -->
    <title>044F201C-7ACE-4FA4-B42C-CC319B613749</title>
    <desc>Created with sketchtool.</desc>
    <defs></defs>
    <g id="Employee-Information" stroke="none" stroke-width="1" >
        <g id="[EI]-Home" transform="translate(-351.000000, -99.000000)" >
            <g id="search-copy" transform="translate(331.000000, 82.000000)">
                <g id="information-circular-button-symbol" transform="translate(20.000000, 17.000000)">
                    <path d="M12,5.6 C11.1168,5.6 10.4,6.3168 10.4,7.2 C10.4,8.0832 11.1168,8.8 12,8.8 C12.8832,8.8 13.6,8.08399477 13.6,7.2 C13.6,6.31600523 12.8839948,5.6 12,5.6 Z M12,10.4 C11.1168,10.4 10.4,11.0444047 10.4,11.84 L10.4,16.16 C10.4,16.95488 11.1168,17.6 12,17.6 C12.8832,17.6 13.6,16.95488 13.6,16.16 L13.6,11.84 C13.6,11.04512 12.8839948,10.4 12,10.4 Z M12,0 C5.3834902,0 0,5.3834902 0,12 C0,18.6165098 5.3834902,24 12,24 C18.6165098,24 24,18.6165098 24,12 C24,5.3834902 18.6165098,0 12,0 Z M12,21.6 C6.70597406,21.6 2.4,17.2932923 2.4,12 C2.4,6.70670769 6.70597406,2.4 12,2.4 C17.2932923,2.4 21.6,6.70670769 21.6,12 C21.6,17.2932923 17.2932923,21.6 12,21.6 Z" id="Shape"></path>
                </g>
            </g>
        </g>
    </g>
</svg>