<?xml version="1.0" encoding="UTF-8"?>
<svg width="16px" height="22px" viewBox="0 0 16 22" version="1.1" xmlns="http://www.w3.org/2000/svg" xmlns:xlink="http://www.w3.org/1999/xlink">
    <!-- Generator: sketchtool 52 (66869) - http://www.bohemiancoding.com/sketch -->
    <title>890B3DE4-9053-40F6-94AD-6BAF6DB47942</title>
    <desc>Created with sketchtool.</desc>
    <g id="Page-1" stroke="none" stroke-width="1" fill="none" fill-rule="evenodd">
        <g id="Request" transform="translate(-1031.000000, -112.000000)" fill="#BE9774">
            <g id="New-Request-Group" transform="translate(205.000000, 96.000000)">
                <g id="new-request" transform="translate(16.000000, 0.000000)">
                    <g id="invoice" transform="translate(810.000000, 16.000000)">
                        <path d="M15.8697917,4.717625 L11.4253333,0.134277344 C11.342,0.0483398437 11.2291667,0 11.1110833,0 L1.77775,0 C0.79775,0 0,0.822207031 0,1.83334766 L0,20.1666953 C0,21.177793 0.79775,22 1.77779167,22 L14.22225,22 C15.20225,22 16,21.177793 16,20.1666523 L16,5.04165234 C16,4.91992187 15.953125,4.8035625 15.8697917,4.717625 Z M11.5555417,1.56479297 L14.482625,4.58334766 L12.4444167,4.58334766 C11.9539583,4.58334766 11.5555417,4.17200781 11.5555417,3.66669531 L11.5555417,1.56479297 Z M15.111125,20.1666523 C15.111125,20.6719648 14.7126667,21.0833047 14.22225,21.0833047 L1.77779167,21.0833047 C1.28733333,21.0833047 0.888916667,20.6719648 0.888916667,20.1666523 L0.888916667,1.83334766 C0.888916667,1.32803516 1.287375,0.916695312 1.77779167,0.916695312 L10.6666667,0.916695312 L10.6666667,3.66669531 C10.6666667,4.67779297 11.4644167,5.5 12.4444583,5.5 L15.111125,5.5 L15.111125,20.1666523 Z" id="Shape" fill-rule="nonzero"></path>
                        <path d="M12.7450458,12.4347826 L3.25491376,12.4347826 C3.01647351,12.4347826 2.82352941,12.648693 2.82352941,12.9130435 C2.82352941,13.1773939 3.01647351,13.3913043 3.25491376,13.3913043 L12.7450862,13.3913043 C12.9835265,13.3913043 13.1764706,13.1773939 13.1764706,12.9130435 C13.1764301,12.648693 12.983486,12.4347826 12.7450458,12.4347826 Z" id="Path"></path>
                        <path d="M12.7450458,10.5217391 L3.25491376,10.5217391 C3.01647351,10.5217391 2.82352941,10.7356496 2.82352941,11 C2.82352941,11.2643504 3.01647351,11.4782609 3.25491376,11.4782609 L12.7450862,11.4782609 C12.9835265,11.4782609 13.1764706,11.2643504 13.1764706,11 C13.1764301,10.7356496 12.983486,10.5217391 12.7450458,10.5217391 Z" id="Path"></path>
                        <path d="M12.7450458,15.3043478 L3.25491376,15.3043478 C3.01647351,15.3043478 2.82352941,15.5182583 2.82352941,15.7826087 C2.82352941,16.0469591 3.01647351,16.2608696 3.25491376,16.2608696 L12.7450862,16.2608696 C12.9835265,16.2608696 13.1764706,16.0469591 13.1764706,15.7826087 C13.1764301,15.5182583 12.983486,15.3043478 12.7450458,15.3043478 Z" id="Path"></path>
                        <path d="M8.94116387,18.173913 L3.29413025,18.173913 C3.03401377,18.173913 2.82352941,18.3878235 2.82352941,18.6521739 C2.82352941,18.9165243 3.03401377,19.1304348 3.29413025,19.1304348 L8.94116387,19.1304348 C9.20128035,19.1304348 9.41176471,18.9165243 9.41176471,18.6521739 C9.41172059,18.3878235 9.20128035,18.173913 8.94116387,18.173913 Z" id="Path"></path>
                        <path d="M6.58823529,8.13043478 C6.58823529,8.39478522 6.79871965,8.60869565 7.05883613,8.60869565 L12.7058697,8.60869565 C12.9659862,8.60869565 13.1764706,8.39478522 13.1764706,8.13043478 C13.1764706,7.86608435 12.9659862,7.65217391 12.7058697,7.65217391 L7.05883613,7.65217391 C6.79871965,7.65221875 6.58823529,7.86612918 6.58823529,8.13043478 Z" id="Path"></path>
                        <path d="M4.23529412,7.17390183 L3.29413235,7.17390183 C3.03401471,7.17390183 2.82352941,7.38781394 2.82352941,7.65216644 C2.82352941,7.91651894 3.03401471,8.13043105 3.29413235,8.13043105 L3.76473529,8.13043105 C3.76473529,8.39478355 3.97522059,8.60869565 4.23533824,8.60869565 C4.49545588,8.60869565 4.70594118,8.39478355 4.70594118,8.13043105 L4.70594118,8.04232849 C5.25247059,7.84419862 5.64705882,7.31831829 5.64705882,6.69563723 C5.64705882,5.90446284 5.01379412,5.26088825 4.23529412,5.26088825 C3.97610294,5.26088825 3.76469118,5.04652778 3.76469118,4.78262364 C3.76469118,4.51876434 3.97610294,4.30435904 4.23529412,4.30435904 L5.17645588,4.30435904 C5.43657353,4.30435904 5.64705882,4.09044693 5.64705882,3.82609443 C5.64705882,3.56174193 5.43657353,3.34782982 5.17645588,3.34782982 L4.70585294,3.34782982 C4.70585294,3.08347732 4.49536765,2.86956522 4.23525,2.86956522 C3.97513235,2.86956522 3.76464706,3.08347732 3.76464706,3.34782982 L3.76464706,3.43593238 C3.21811765,3.63406225 2.82352941,4.15994258 2.82352941,4.78262364 C2.82352941,5.57379803 3.45679412,6.21737262 4.23529412,6.21737262 C4.49448529,6.21737262 4.70589706,6.43173309 4.70589706,6.69563723 C4.70589706,6.95954137 4.49448529,7.17390183 4.23529412,7.17390183 Z" id="Path"></path>
                    </g>
                </g>
            </g>
        </g>
    </g>
</svg>