<?xml version="1.0" encoding="UTF-8"?>
<svg width="17px" height="9px" viewBox="0 0 17 9" version="1.1" xmlns="http://www.w3.org/2000/svg" xmlns:xlink="http://www.w3.org/1999/xlink">
    <!-- Generator: sketchtool 52 (66869) - http://www.bohemiancoding.com/sketch -->
    <title>F6CEEB36-9D47-42D2-B407-1EDAEE99C449</title>
    <desc>Created with sketchtool.</desc>
    <g id="Page-1" stroke="none" stroke-width="1" fill="none" fill-rule="evenodd">
        <g id="Request" transform="translate(-193.000000, -119.000000)" fill="#F5A623" fill-rule="nonzero">
            <g id="New-Request-Group" transform="translate(161.000000, 96.000000)">
                <g id="new-request" transform="translate(16.000000, 0.000000)">
                    <g id="leave" transform="translate(16.000000, 23.000000)">
                        <path d="M16.2,1.59148826 C16.2,4.5426129 2.69009817,7.8 1.66711568,7.8 C1.09357736,7.8 0.442850804,7.66079233 0.442850804,7.1039895 C0.442850804,6.91795186 0.646753772,6.64906975 1.00455676,6.32491155 L1.0041597,6.32513455 L0.0558242805,4.55072452 C-0.0725845605,4.3104979 0.0292213357,4.00615882 0.272221369,3.90369037 L0.435200803,3.83497853 C0.730586137,3.7104331 1.0630303,3.72899784 1.3442274,3.88573888 L3.06584822,4.84553036 C3.73616302,4.42684809 4.49655724,3.98848608 5.29800734,3.55689769 L1.94299218,1.26476556 C1.67757156,1.08341091 1.68040391,0.673258381 1.94831277,0.496029227 L2.22275987,0.314451576 C2.6795364,0.0122588658 3.23483648,-0.0769968356 3.75641302,0.0678694605 L9.3377373,1.61816462 C11.077967,0.890794762 12.6513525,0.394341283 13.5826408,0.394341283 C13.8313585,0.394341283 14.0804468,0.401282154 14.3208262,0.419373019 L12.6353113,1.22063946 L12.5949701,1.81766588 L15.1967646,0.558190443 C15.8204382,0.714819983 16.2,1.00714495 16.2,1.59148826 Z M9.65302062,6.30790428 L11.6929407,8.84250283 C11.8172583,8.99697195 12.0197252,9.04346871 12.1903151,8.95674473 L12.4635132,8.81785018 C12.9617176,8.56457189 13.2551468,7.99027017 13.1913409,7.39347184 L12.9359618,5.00520051 C12.92014,4.85742647 12.7830353,4.76389393 12.6547232,4.8133127 L9.74175227,5.93564646 C9.59997876,5.9903135 9.55365466,6.18447083 9.65302062,6.30790428 Z" id="Shape"></path>
                    </g>
                </g>
            </g>
        </g>
    </g>
</svg>