<?xml version="1.0" encoding="UTF-8"?>
<svg width="20px" height="20px" viewBox="0 0 20 20" version="1.1" xmlns="http://www.w3.org/2000/svg" xmlns:xlink="http://www.w3.org/1999/xlink">
    <!-- Generator: sketchtool 52 (66869) - http://www.bohemiancoding.com/sketch -->
    <title>6804A9C9-A9B7-41D6-993F-3E58BC34904C</title>
    <desc>Created with sketchtool.</desc>
    <g id="Employee-Information" stroke="none" stroke-width="1" >
        <g id="Appointment-mode" transform="translate(-253.000000, -91.000000)">
            <g id="sub-menu" transform="translate(-3.000000, 72.000000)">
                <g id="list" transform="translate(256.000000, 19.000000)">
                    <path d="M3.23082031,0.0363758389 L0.5859375,0.0363758389 C0.26234375,0.0363758389 0,0.487114094 0,1.04308725 L0,4.09080537 C0,4.64677852 0.26234375,5.09751678 0.5859375,5.09751678 L3.23082031,5.09751678 C3.55441406,5.09751678 3.81675781,4.64677852 3.81675781,4.09080537 L3.81675781,1.04308725 C3.81675781,0.487114094 3.55441406,0.0363758389 3.23082031,0.0363758389 Z" id="Shape"></path>
                    <path d="M19.4140625,0.0363758389 L6.12488281,0.0363758389 C5.80128906,0.0363758389 5.53894531,0.487114094 5.53894531,1.04308725 L5.53894531,4.09080537 C5.53894531,4.64677852 5.80128906,5.09751678 6.12488281,5.09751678 L19.4140625,5.09751678 C19.7376563,5.09751678 20,4.64677852 20,4.09080537 L20,1.04308725 C20,0.487114094 19.7376563,0.0363758389 19.4140625,0.0363758389 Z" id="Shape"></path>
                    <path d="M3.23082031,7.46939597 L0.5859375,7.46939597 C0.26234375,7.46939597 0,7.92013423 0,8.47610738 L0,11.5238255 C0,12.0797987 0.26234375,12.5305369 0.5859375,12.5305369 L3.23082031,12.5305369 C3.55441406,12.5305369 3.81675781,12.0797987 3.81675781,11.5238255 L3.81675781,8.47610738 C3.81675781,7.92013423 3.55441406,7.46939597 3.23082031,7.46939597 Z" id="Shape"></path>
                    <path d="M19.4140625,7.46939597 L6.12488281,7.46939597 C5.80128906,7.46939597 5.53894531,7.92013423 5.53894531,8.47610738 L5.53894531,11.5238255 C5.53894531,12.0797987 5.80128906,12.5305369 6.12488281,12.5305369 L19.4140625,12.5305369 C19.7376563,12.5305369 20,12.0797987 20,11.5238255 L20,8.47610738 C20,7.92013423 19.7376563,7.46939597 19.4140625,7.46939597 Z" id="Shape"></path>
                    <path d="M3.23082031,14.9024832 L0.5859375,14.9024832 C0.26234375,14.9024832 0,15.3532215 0,15.9091946 L0,18.9569128 C0,19.5128859 0.26234375,19.9636242 0.5859375,19.9636242 L3.23082031,19.9636242 C3.55441406,19.9636242 3.81675781,19.5128859 3.81675781,18.9569128 L3.81675781,15.9091946 C3.81675781,15.3532215 3.55441406,14.9024832 3.23082031,14.9024832 Z" id="Shape"></path>
                    <path d="M19.4140625,14.9024832 L6.12488281,14.9024832 C5.80128906,14.9024832 5.53894531,15.3532215 5.53894531,15.9091946 L5.53894531,18.9569128 C5.53894531,19.5128859 5.80128906,19.9636242 6.12488281,19.9636242 L19.4140625,19.9636242 C19.7376563,19.9636242 20,19.5128859 20,18.9569128 L20,15.9091946 C20,15.3532215 19.7376563,14.9024832 19.4140625,14.9024832 Z" id="Shape"></path>
                </g>
            </g>
        </g>
    </g>
</svg>