<?xml version="1.0" encoding="UTF-8"?>
<svg width="11px" height="17px" viewBox="0 0 11 17" version="1.1" xmlns="http://www.w3.org/2000/svg" xmlns:xlink="http://www.w3.org/1999/xlink">
    <!-- Generator: sketchtool 52 (66869) - http://www.bohemiancoding.com/sketch -->
    <title>7963117B-3512-4BB8-B65E-DFCB89B25573</title>
    <desc>Created with sketchtool.</desc>
    <g id="Employee-Information" stroke="none" stroke-width="1" fill="none" fill-rule="evenodd">
        <g id="Setting-[organization]" transform="translate(-680.000000, -511.000000)" fill="#427FEC">
            <g id="Group" transform="translate(680.000000, 511.000000)">
                <g id="locked">
                    <path d="M0,7 L0,17 L11,17 L11,7 L0,7 Z M6.04999506,12.4573803 L6.04999506,14.2916932 L4.95000494,14.2916932 L4.95000494,12.4573803 C4.6213355,12.2412309 4.39999341,11.8376446 4.39999341,11.374986 C4.39999341,10.6846105 4.89245402,10.1249953 5.49998353,10.1249953 C6.10751303,10.1249953 6.59997365,10.6846105 6.59997365,11.374986 C6.60000659,11.8375697 6.3786645,12.2411934 6.04999506,12.4573803 Z" id="Shape" fill-rule="nonzero"></path>
                    <path d="M5.49996631,0 C3.01473429,0 1,1.97936901 1,4.42105089 C1,6.86273277 1,7 1,7 L3.25,7 L3.25,4.42105089 C3.25,3.20216287 4.25935493,2.21050889 5.5,2.21050889 C6.74064507,2.21050889 7.75,3.20216287 7.75,4.42105089 L7.75,7 L10,7 C10,7 10,6.86273277 10,4.42105089 C10,1.97936901 7.98523202,0 5.49996631,0 Z" id="Path"></path>
                </g>
            </g>
        </g>
    </g>
</svg>