<?xml version="1.0" encoding="UTF-8"?>
<svg width="24px" height="24px" viewBox="0 0 24 24" version="1.1" xmlns="http://www.w3.org/2000/svg" xmlns:xlink="http://www.w3.org/1999/xlink">
    <!-- Generator: sketchtool 52.5 (67469) - http://www.bohemiancoding.com/sketch -->
    <title>5BB031B6-2189-46B3-A1A2-A75544DB7676</title>
    <desc>Created with sketchtool.</desc>
    <g id="Page-1" stroke="none" stroke-width="1" fill="none" fill-rule="evenodd">
        <g id="Setting" transform="translate(-183.000000, -576.000000)" fill="#0B8449">
            <g id="Group" transform="translate(86.000000, 87.000000)">
                <g id="work-week-copy" transform="translate(26.000000, 457.000000)">
                    <g id="log-out" transform="translate(71.000000, 32.000000)">
                        <path d="M23.5265358,10.1013 L19.3797489,6.25071215 C18.9650787,5.86566125 17.5384615,5.86566125 17.5384615,6.66742151 L17.5384615,15.4835003 C17.5384615,16.2881506 18.9650787,16.2881506 19.3797489,15.9001571 L23.5265358,12.0524067 C23.9442334,11.6645184 23.9442334,10.4863509 23.5265358,10.1013 Z" id="Path"></path>
                        <path d="M12.6755084,0 L3.1688771,0 L0,0 L0,2.94252874 L0,4.32181281 L0,15.7241379 L0,17.6551724 L9.5066313,23.5402299 L9.5066313,20.5977011 L12.6755084,20.5977011 C14.423908,20.5977011 15.8444421,19.2787389 15.8444421,17.6551724 L15.8444421,2.94252874 C15.8444704,1.31609852 14.4238798,0 12.6755084,0 Z M12.6743201,17.655225 L9.50544297,17.655225 L9.50544297,5.88511002 L4.75212732,2.94252874 L12.6743201,2.94252874 L12.6743201,17.655225 Z" id="Shape" fill-rule="nonzero"></path>
                    </g>
                </g>
            </g>
        </g>
    </g>
</svg>