<svg xmlns="http://www.w3.org/2000/svg" width="36" height="36" viewBox="0 0 18 18">
  <metadata><?xpacket begin="﻿" id="W5M0MpCehiHzreSzNTczkc9d"?>
<x:xmpmeta xmlns:x="adobe:ns:meta/" x:xmptk="Adobe XMP Core 5.6-c140 79.160451, 2017/05/06-01:08:21        ">
   <rdf:RDF xmlns:rdf="http://www.w3.org/1999/02/22-rdf-syntax-ns#">
      <rdf:Description rdf:about=""/>
   </rdf:RDF>
</x:xmpmeta>
                                                                                                    
                                                                                                    
                                                                                                    
                                                                                                    
                                                                                                    
                                                                                                    
                                                                                                    
                                                                                                    
                                                                                                    
                                                                                                    
                                                                                                    
                                                                                                    
                                                                                                    
                                                                                                    
                                                                                                    
                                                                                                    
                                                                                                    
                                                                                                    
                                                                                                    
                                                                                                    
                           
<?xpacket end="w"?></metadata>
<defs>
  </defs>
  <path id="LOG_OUT" data-name="LOG OUT" class="cls-1" d="M232.625,594.5h-0.75a0.375,0.375,0,0,0-.375.375V597.5h-9v-15h9v2.625a0.375,0.375,0,0,0,.375.375h0.75a0.375,0.375,0,0,0,.375-0.375V582.5a1.5,1.5,0,0,0-1.5-1.5h-9a1.5,1.5,0,0,0-1.5,1.5v15a1.5,1.5,0,0,0,1.5,1.5h9a1.5,1.5,0,0,0,1.5-1.5v-2.625A0.375,0.375,0,0,0,232.625,594.5Zm6.254-4.777-4.5-4.124a0.375,0.375,0,0,0-.629.276v0.75a0.376,0.376,0,0,0,.124.279l2.607,2.346H225.875a0.375,0.375,0,0,0-.375.375v0.75a0.375,0.375,0,0,0,.375.375h10.606l-2.607,2.346a0.376,0.376,0,0,0-.124.279v0.75a0.375,0.375,0,0,0,.224.343,0.363,0.363,0,0,0,.151.032,0.382,0.382,0,0,0,.254-0.1l4.5-4.125A0.378,0.378,0,0,0,238.879,589.723Z" transform="translate(-221 -581)"/>
</svg>
