<?xml version="1.0" encoding="UTF-8"?>
<svg width="16px" height="16px" viewBox="0 0 16 16" version="1.1" xmlns="http://www.w3.org/2000/svg" xmlns:xlink="http://www.w3.org/1999/xlink">
    <!-- Generator: sketchtool 51.3 (57544) - http://www.bohemiancoding.com/sketch -->
    <title>4FB62AB8-5FB0-4891-9F8C-29AA9DC92361</title>
    <desc>Created with sketchtool.</desc>
    <defs></defs>
    <g id="Employee-Information" stroke="none" stroke-width="1" >
        <g id="Organization-chart" transform="translate(-961.000000, -151.000000)">
            <g id="search-field" transform="translate(951.000000, 143.000000)">
                <g id="search" transform="translate(10.000000, 8.000000)">
                    <path d="M15.7567305,14.5734649 L11.8124568,10.612927 C12.8265989,9.44900467 13.3822533,7.98455219 13.3822533,6.45999368 C13.3822533,2.89800934 10.3805557,0 6.69112664,0 C3.0016976,0 0,2.89800934 0,6.45999368 C0,10.021978 3.0016976,12.9199874 6.69112664,12.9199874 C8.07618986,12.9199874 9.39608732,12.5166591 10.5245604,11.7510094 L14.4987987,15.7416003 C14.6649132,15.9081557 14.8883386,16 15.1277646,16 C15.3543901,16 15.5693789,15.9165818 15.7325842,15.7649124 C16.0793592,15.4427553 16.0904141,14.9085419 15.7567305,14.5734649 Z M6.69112664,1.68521574 C9.41819713,1.68521574 11.636742,3.82712495 11.636742,6.45999368 C11.636742,9.09286241 9.41819713,11.2347716 6.69112664,11.2347716 C3.96405616,11.2347716 1.7455113,9.09286241 1.7455113,6.45999368 C1.7455113,3.82712495 3.96405616,1.68521574 6.69112664,1.68521574 Z" id="Shape"></path>
                </g>
            </g>
        </g>
    </g>
</svg>