<?xml version="1.0" encoding="UTF-8"?>
<svg width="29px" height="32px" viewBox="0 0 29 32" version="1.1" xmlns="http://www.w3.org/2000/svg" xmlns:xlink="http://www.w3.org/1999/xlink">
    <!-- Generator: sketchtool 52.5 (67469) - http://www.bohemiancoding.com/sketch -->
    <title>AD909C41-CF27-4FA2-82F9-A9CD5E5F045E</title>
    <desc>Created with sketchtool.</desc>
    <g id="Employee-Information" stroke="none" stroke-width="1" fill="none" fill-rule="evenodd">
        <g id="Setting-[approver]" transform="translate(-180.000000, -520.000000)" fill="#4466A3">
            <g id="approver-setting" transform="translate(112.000000, 496.000000)">
                <g id="manager" transform="translate(68.000000, 24.000000)">
                    <path d="M10.5,11 C13.5327738,11 16,8.5326624 16,5.5 C16.0001114,2.46722623 13.5327738,0 10.5,0 C7.46722623,0 5,2.46722623 5,5.5 C5,8.53277377 7.4673376,11 10.5,11 Z" id="Path"></path>
                    <path d="M23,20 C19.6915446,20 17,22.691652 17,26 C17,29.3084554 19.691652,32 23,32 C26.308348,32 29,29.308348 29,26 C29,22.691652 26.3084554,20 23,20 Z M26.6547291,24.753823 L22.7338753,28.6746768 C22.5366186,28.8718261 22.2782294,28.9704545 22.0197328,28.9704545 C21.7612363,28.9704545 21.5028471,28.8718261 21.3055904,28.6746768 L19.3451635,26.7142499 C18.9507574,26.3198439 18.9507574,25.680371 19.3451635,25.285965 C19.739677,24.8916664 20.3789349,24.8916664 20.7734484,25.285965 L22.0197328,26.5323568 L25.2264441,23.3255381 C25.6209576,22.9312395 26.2602156,22.9312395 26.6547291,23.3255381 C27.0491351,23.7199441 27.0491351,24.359417 26.6547291,24.753823 Z" id="Shape" fill-rule="nonzero"></path>
                    <path d="M21,18.7828967 L21,17.8595111 C21,15.8678683 19.6819682,14.1018523 17.7330229,13.4818816 L17.7239646,13.4790202 L14.8732311,13.0206657 C14.6306224,12.9481768 14.371316,13.0729128 14.2841166,13.3053224 L11.0495528,21.9233401 C10.8629308,22.4204825 10.1388154,22.4204825 9.95219337,21.9233401 L6.71762957,13.3053224 C6.64712791,13.1176355 6.46476216,13 6.26930013,13 C6.22291746,13 3.27789067,13.4783843 3.27789067,13.4783843 C1.31290244,14.1142518 0,15.8831291 0,17.8833562 L0,25.0542456 C0,26.1288616 0.897095431,27 2.0037314,27 L15.4716221,27 C15.4299323,26.6837619 15.4060316,26.3623309 15.4060316,26.0352831 C15.4061407,22.6057319 17.7711113,19.7041627 21,18.7828967 Z" id="Path"></path>
                    <path d="M11.8115907,12.2070408 C11.6728469,12.0693778 11.4700675,12 11.2650097,12 L9.73499034,12 C9.52981258,12 9.32703315,12.0692685 9.18840925,12.2070408 C8.97363814,12.4201999 8.94245976,12.7280843 9.09499401,12.9687761 L9.91282705,14.0921499 L9.52993249,17.0348606 L10.2838498,18.8621731 C10.3573589,19.0459423 10.6426411,19.0459423 10.7161502,18.8621731 L11.4700675,17.0348606 L11.0871729,14.0921499 L11.905006,12.9687761 C12.0575402,12.7280843 12.0263619,12.4201999 11.8115907,12.2070408 Z" id="Path"></path>
                </g>
            </g>
        </g>
    </g>
</svg>