<?xml version="1.0" encoding="UTF-8"?>
<svg width="20px" height="20px" viewBox="0 0 20 20" version="1.1" xmlns="http://www.w3.org/2000/svg" xmlns:xlink="http://www.w3.org/1999/xlink">
    <!-- Generator: sketchtool 52 (66869) - http://www.bohemiancoding.com/sketch -->
    <title>D3C371D6-5EFE-476D-B8FD-58AF9DEE9F3D</title>
    <desc>Created with sketchtool.</desc>
    <g id="Employee-Information" stroke="none" stroke-width="1" >
        <g id="Appointment-mode-[resign-1]" transform="translate(-807.000000, -91.000000)" >
            <g id="sub-menu" transform="translate(-3.000000, 72.000000)">
                <g id="merge" transform="translate(810.000000, 19.000000)">
                    <path d="M7.890625,5.546875 C6.59828125,5.546875 5.546875,6.59828125 5.546875,7.890625 L5.546875,8.28125 L7.109375,8.28125 L7.109375,7.890625 C7.109375,7.45984375 7.45984375,7.109375 7.890625,7.109375 L8.203125,7.109375 L8.203125,5.546875 L7.890625,5.546875 Z" id="Shape"></path>
                    <path d="M17.65625,5.546875 L14.453125,5.546875 L14.453125,2.34375 C14.453125,1.05140625 13.4017188,0 12.109375,0 L2.34375,0 C1.05140625,0 0,1.05140625 0,2.34375 L0,12.109375 C0,13.4017188 1.05140625,14.453125 2.34375,14.453125 L5.546875,14.453125 L5.546875,17.65625 C5.546875,18.9485938 6.59828125,20 7.890625,20 L17.65625,20 C18.9485938,20 20,18.9485938 20,17.65625 L20,7.890625 C20,6.59828125 18.9485938,5.546875 17.65625,5.546875 Z M18.4375,17.65625 C18.4375,18.0870313 18.0870313,18.4375 17.65625,18.4375 L7.890625,18.4375 C7.45984375,18.4375 7.109375,18.0870313 7.109375,17.65625 L7.109375,12.890625 L2.34375,12.890625 C1.91296875,12.890625 1.5625,12.5401563 1.5625,12.109375 L1.5625,2.34375 C1.5625,1.91296875 1.91296875,1.5625 2.34375,1.5625 L12.109375,1.5625 C12.5401563,1.5625 12.890625,1.91296875 12.890625,2.34375 L12.890625,7.109375 L17.65625,7.109375 C18.0870313,7.109375 18.4375,7.45984375 18.4375,7.890625 L18.4375,17.65625 Z" id="Shape"></path>
                    <rect id="Rectangle-path" x="5.546875" y="9.8046875" width="1.5625" height="1.5625"></rect>
                    <rect id="Rectangle-path" x="9.765625" y="5.546875" width="1.5625" height="1.5625"></rect>
                    <path d="M12.890625,11.71875 L12.890625,12.109375 C12.890625,12.5401563 12.5401563,12.890625 12.109375,12.890625 L11.796875,12.890625 L11.796875,14.453125 L12.109375,14.453125 C13.4017188,14.453125 14.453125,13.4017188 14.453125,12.109375 L14.453125,11.71875 L12.890625,11.71875 Z" id="Shape"></path>
                    <rect id="Rectangle-path" x="12.890625" y="8.6328125" width="1.5625" height="1.5625"></rect>
                    <rect id="Rectangle-path" x="8.671875" y="12.890625" width="1.5625" height="1.5625"></rect>
                </g>
            </g>
        </g>
    </g>
</svg>