<?xml version="1.0" encoding="UTF-8"?>
<svg width="20px" height="20px" viewBox="0 0 20 20" version="1.1" xmlns="http://www.w3.org/2000/svg" xmlns:xlink="http://www.w3.org/1999/xlink">
    <!-- Generator: sketchtool 52 (66869) - http://www.bohemiancoding.com/sketch -->
    <title>7A80817D-93D3-41D8-8731-0BBF60479A16</title>
    <desc>Created with sketchtool.</desc>
    <g id="Employee-Information" stroke="none" stroke-width="1" >
        <g id="Appointment-mode-[resign-1]" transform="translate(-1040.000000, -94.000000)" >
            <g id="sub-menu" transform="translate(-3.000000, 72.000000)">
                <g id="move-organization" transform="translate(1043.000000, 22.000000)">
                    <path d="M13.4860395,19.5503465 C13.7229126,19.7982897 14.0478325,19.9656514 14.3806019,19.9945781 C14.7172862,20.0234842 15.0637578,19.9367247 15.3436756,19.7363039 C15.4200168,19.6825622 15.4924431,19.6185309 15.5570395,19.5503465 L15.5589969,19.5482596 L19.5698466,15.3146492 C20.1433845,14.7092544 20.1433845,13.7278123 19.5698466,13.1223969 C18.9962893,12.5170021 18.0664925,12.5170021 17.4929547,13.1223969 L15.9876822,14.7112999 L15.9876822,1.54964536 C15.9876822,0.694241119 15.3299537,0 14.519582,0 C13.7091907,0 13.0514818,0.694241119 13.0514818,1.54964536 L13.0514818,14.7112999 L11.5070404,13.081073 C10.9335026,12.4756782 10.0037058,12.4756782 9.43016804,13.081073 C8.85661065,13.6864884 8.85661065,14.6679305 9.43016804,15.2733253 L13.4821245,19.5503465 C13.484082,19.5482596 13.484082,19.5503465 13.4860395,19.5503465 Z" id="Path"></path>
                    <path d="M1.46812094,7.37829005 C1.84409023,7.37829005 2.22005953,7.22751525 2.50595285,6.92390023 L4.05095167,5.2942931 L4.05095167,18.4509438 C4.05095167,19.3060228 4.70889794,20 5.51958173,20 C6.33026553,20 6.9882118,19.3060228 6.9882118,18.4509438 L6.9882118,5.2942931 L8.49402757,6.88259207 C8.77994047,7.18414167 9.15589019,7.33698189 9.53185948,7.33698189 C9.90782878,7.33698189 10.2837981,7.18620708 10.5696914,6.88259207 C11.1434362,6.27742744 11.1434362,5.29635851 10.5696914,4.69119389 C10.4639696,4.57966184 10.3562701,4.46606439 10.2505091,4.35453234 C9.99007206,4.07983304 9.73159317,3.80306833 9.46919793,3.53043444 C9.13241169,3.17724963 8.79754445,2.82406481 8.46271638,2.46881459 C8.13374324,2.11769518 7.79302107,1.77690282 7.46600611,1.42165259 C7.14878202,1.07879482 6.82764158,0.742133273 6.48889716,0.419929583 C6.13642594,0.0853334427 5.67625519,-0.0798992191 5.20237722,0.0378290524 C5.08097047,0.0667447682 4.95173103,0.116314567 4.84207331,0.180342223 C4.51505835,0.374490601 4.25462129,0.694628883 3.99026788,0.971393591 C3.66716926,1.30805514 3.34994517,1.65091291 3.02880473,1.99170528 C2.64696091,2.3965253 2.26120075,2.79927991 1.87739876,3.20203452 C1.55625832,3.5448923 1.23120154,3.88775007 0.908102922,4.23060784 C0.751449048,4.39584051 0.594795175,4.55900776 0.438141302,4.72424042 C0.436183128,4.72630583 0.432266782,4.73043665 0.430308608,4.73250205 C-0.143436203,5.33766668 -0.143436203,6.31873561 0.430308608,6.92390023 C0.716182345,7.22751525 1.09215164,7.37829005 1.46812094,7.37829005 Z" id="Path"></path>
                </g>
            </g>
        </g>
    </g>
</svg>