<?xml version="1.0" encoding="UTF-8"?>
<svg width="24px" height="32px" viewBox="0 0 24 32" version="1.1" xmlns="http://www.w3.org/2000/svg" xmlns:xlink="http://www.w3.org/1999/xlink">
    <!-- Generator: sketchtool 52 (66869) - http://www.bohemiancoding.com/sketch -->
    <title>4C68BB50-7183-4B4A-8A58-FFFC2C5DBD63</title>
    <desc>Created with sketchtool.</desc>
    <g id="Employee-Information" stroke="none" stroke-width="1" fill="none" fill-rule="evenodd">
        <g id="Setting" transform="translate(-166.000000, -210.000000)" fill="#4466A3">
            <g id="values" transform="translate(96.000000, 184.000000)">
                <g id="notebook" transform="translate(70.000000, 26.000000)">
                    <path d="M20.929333,0 L0,0 L0,28.2470703 L1.86969393,28.2470703 L1.86969393,32 L7.477316,32 L7.477316,28.2470703 L20.929333,28.2470703 C22.6224204,28.2470703 24,26.8645019 24,25.1652832 L24,3.08178713 C24,1.38256838 22.6224204,1.77635684e-15 20.929333,0 Z M20.929333,1.875 C21.5922157,1.875 22.1317657,2.41625975 22.1317657,3.08178712 L22.1317657,13.8620606 L1.86823434,13.8620606 L1.86823434,1.875 L20.929333,1.875 Z M22.1317657,15.7370606 L22.1317657,21.3679199 L1.86823434,21.3679199 L1.86823434,15.7370606 L22.1317657,15.7370606 Z M5.60908166,30.125 L3.73792827,30.125 L3.73792827,28.2470703 L5.60908166,28.2470703 L5.60908166,30.125 Z M20.929333,26.3720703 L1.86823434,26.3720703 L1.86823434,23.2429199 L22.1317657,23.2429199 L22.1317657,25.1652832 C22.1317657,25.8305664 21.5922157,26.3720703 20.929333,26.3720703 Z" id="Shape" fill-rule="nonzero"></path>
                    <polygon id="Path" points="14 18 20 18 20 20 14 20"></polygon>
                </g>
            </g>
        </g>
    </g>
</svg>