<?xml version="1.0" encoding="UTF-8"?>
<svg width="20px" height="20px" viewBox="0 0 20 20" version="1.1" xmlns="http://www.w3.org/2000/svg" xmlns:xlink="http://www.w3.org/1999/xlink">
    <!-- Generator: sketchtool 52 (66869) - http://www.bohemiancoding.com/sketch -->
    <title>B6DA0F9F-75B7-4D54-8A2A-94F5C754D01D</title>
    <desc>Created with sketchtool.</desc>
    <g id="Employee-Information" stroke="none" stroke-width="1" >
        <g id="Appointment-mode-[resign-1]" transform="translate(-1272.000000, -90.000000)">
            <g id="more-function" transform="translate(1143.000000, 72.000000)">
                <g id="notification" transform="translate(129.000000, 18.000000)">
                    <path d="M9.99973333,0 C4.47713333,0 6.66666665e-05,4.4774 6.66666665e-05,9.9998 C6.66666665e-05,15.5222 4.47713333,20 9.99973333,20 C15.5223333,20 19.9999333,15.5224667 19.9999333,9.9998 C19.9999333,4.47713333 15.5223333,0 9.99973333,0 Z M9.99993333,15.5300667 C9.2822,15.5300667 8.7,14.9484 8.7,14.2301333 L11.2996667,14.2301333 C11.2998,14.9484 10.7176667,15.5300667 9.99993333,15.5300667 Z M14.3926,12.9266667 L14.3922667,12.9266667 L14.3922667,12.9266 C14.3922667,13.4072667 14.0027333,13.4389333 13.5224,13.4389333 L6.47733333,13.4389333 C5.9968,13.4389333 5.6076,13.4072667 5.6076,12.9266 L5.6076,12.8438 C5.6076,12.4981333 5.8106,12.2021333 6.10226667,12.0617333 L6.3784,9.6782 C6.3784,7.93326667 7.6124,6.47686667 9.2552,6.13326667 L9.2552,5.20793333 C9.2552,4.7966 9.58873333,4.46306667 10.0002667,4.46306667 C10.4116,4.46306667 10.7451333,4.7966 10.7451333,5.20793333 L10.7451333,6.13333333 C12.3879333,6.47686667 13.6219333,7.93313333 13.6219333,9.67826667 L13.8980667,12.0621333 C14.1897333,12.2027333 14.3926,12.4982 14.3926,12.8438667 L14.3926,12.9266667 Z" id="Shape"></path>
                </g>
            </g>
        </g>
    </g>
</svg>