<svg xmlns="http://www.w3.org/2000/svg" width="26" height="34" viewBox="0 0 13 17">
  <metadata><?xpacket begin="﻿" id="W5M0MpCehiHzreSzNTczkc9d"?>
<x:xmpmeta xmlns:x="adobe:ns:meta/" x:xmptk="Adobe XMP Core 5.6-c140 79.160451, 2017/05/06-01:08:21        ">
   <rdf:RDF xmlns:rdf="http://www.w3.org/1999/02/22-rdf-syntax-ns#">
      <rdf:Description rdf:about=""/>
   </rdf:RDF>
</x:xmpmeta>
                                                                                                    
                                                                                                    
                                                                                                    
                                                                                                    
                                                                                                    
                                                                                                    
                                                                                                    
                                                                                                    
                                                                                                    
                                                                                                    
                                                                                                    
                                                                                                    
                                                                                                    
                                                                                                    
                                                                                                    
                                                                                                    
                                                                                                    
                                                                                                    
                                                                                                    
                                                                                                    
                           
<?xpacket end="w"?></metadata>
<defs>
  </defs>
  <path id="CS_OPERATION" data-name="CS OPERATION" class="cls-1" d="M232.458,225H220.542a0.537,0.537,0,0,1-.542-0.531V210.656a1.61,1.61,0,0,1,1.625-1.594h1.625V208.8a0.813,0.813,0,0,1,1.625,0v0.265h3.25V208.8a0.813,0.813,0,0,1,1.625,0v0.265h1.625A1.61,1.61,0,0,1,233,210.656v13.813A0.536,0.536,0,0,1,232.458,225Zm-1.083-14.344H229.75v1.063h-1.625v-1.063h-3.25v1.063H223.25v-1.063h-1.625v2.125h9.75v-2.125Zm0,3.719h-9.75v9.031h9.75v-9.031Zm-2.166,3.719h-5.417V216.5h5.417v1.594Zm0,3.187h-5.417v-1.594h5.417v1.594Z" transform="translate(-220 -208)"/>
</svg>
