<?xml version="1.0" encoding="UTF-8"?>
<svg width="32px" height="32px" viewBox="0 0 32 32" version="1.1" xmlns="http://www.w3.org/2000/svg" xmlns:xlink="http://www.w3.org/1999/xlink">
    <!-- Generator: sketchtool 52 (66869) - http://www.bohemiancoding.com/sketch -->
    <title>616777F4-5DE8-41B1-812D-CA3A5F9B1B5B</title>
    <desc>Created with sketchtool.</desc>
    <g id="Employee-Information" stroke="none" stroke-width="1" fill="none" fill-rule="evenodd">
        <g id="Setting" transform="translate(-162.000000, -468.000000)" fill="#4466A3">
            <g id="organization" transform="translate(96.000000, 440.000000)">
                <g transform="translate(66.000000, 28.000000)">
                    <path d="M16,6 C17.6568332,6 19,4.65683319 19,3 C19,1.34316681 17.6568332,0 16,0 C14.3431668,0 13,1.34316681 13,3 C13,4.65683319 14.343095,6 16,6 Z M16,1.5 C16.8284525,1.5 17.5,2.17154752 17.5,3 C17.5,3.82845248 16.8284525,4.5 16,4.5 C15.1715475,4.5 14.5,3.82845248 14.5,3 C14.5,2.17154752 15.1715475,1.5 16,1.5 Z" id="Shape" fill-rule="nonzero"></path>
                    <path d="M17.03783,7.00064092 C17.0251835,7.00084593 17.0126054,7.00118763 17.0000273,7.00152932 L15.000041,7.00152932 C12.8508948,6.94200663 11.0604296,8.63549886 11.0008887,10.7839877 C11.0005469,10.796562 11.0002734,10.8092045 11,10.8217788 L11,11.3930189 C11,11.7857593 11.3928606,12 11.7857211,12 L20.2142789,12 C20.6071394,12 21,11.7857593 21,11.3930189 L21,10.8217788 C20.9613087,8.67281159 19.1873864,6.96202976 17.03783,7.00064092 Z M12.5000068,10.5717972 C12.5714422,9.50073049 13.6785885,8.42959546 14.9999727,8.42959546 L16.999959,8.42959546 C18.3214115,8.42959546 19.4285578,9.50066215 19.4999248,10.5717972 L12.5000068,10.5717972 Z" id="Shape" fill-rule="nonzero"></path>
                    <path d="M3.74980613,19 C4.16391876,19 4.49960042,18.663069 4.49960042,18.2474152 C4.49723242,14.7660355 6.06929609,11.4717755 8.77340633,9.2916637 C9.0700519,9.00162075 9.07622305,8.52517819 8.78725553,8.22742861 C8.53588895,7.96842824 8.13648661,7.9255016 7.83618141,8.12515371 C4.77450347,10.5855852 2.99470179,14.3106961 3.00001185,18.2474152 C3.00001185,18.663069 3.33569351,19 3.74980613,19 Z" id="Path" stroke="#4466A3"></path>
                    <path d="M20.0322704,29.0402365 C20.0265338,29.042173 20.0207972,29.0441762 20.0151306,29.0462463 C17.7261654,29.7775663 15.2499919,29.7775663 12.9610268,29.0462463 C12.5776554,28.9321945 12.1696587,29.1347232 12.0473016,29.4997822 C11.9084344,29.8410026 12.0857087,30.2250925 12.4431956,30.357641 C12.4572572,30.3628494 12.4714587,30.3676572 12.4858701,30.3719308 C15.0818822,31.2093564 17.8942752,31.2093564 20.4902173,30.3719308 C20.8776463,30.2399834 21.0872413,29.8399342 20.965374,29.4648589 C20.8306343,29.1017363 20.4128434,28.911561 20.0322704,29.0402365 Z" id="Path" stroke="#4466A3"></path>
                    <path d="M22.2910152,9.31786004 C25.0273113,11.3703864 26.6534157,14.7146546 26.6487602,18.280138 C26.6487602,18.677719 26.9512341,19 27.3243801,19 C27.6975261,19 28,18.677719 28,18.280138 C27.9906245,14.246734 26.1537324,10.4664426 23.0679554,8.13007747 C22.7601148,7.90149081 22.3366643,7.98202662 22.1220617,8.31002574 C21.9075238,8.63802486 21.9831746,9.08927339 22.2910152,9.31786004 Z" id="Path" stroke="#4466A3"></path>
                    <path d="M5,26 C6.65683319,26 8,24.6568332 8,23 C8,21.3431668 6.65683319,20 5,20 C3.34316681,20 2,21.343095 2,23 C2,24.656905 3.34316681,26 5,26 Z M5,21.5 C5.82845248,21.5 6.5,22.1715475 6.5,23 C6.5,23.8284525 5.82845248,24.5 5,24.5 C4.17154752,24.5 3.5,23.8284525 3.5,23 C3.5,22.1715475 4.17154752,21.5 5,21.5 Z" id="Shape" fill-rule="nonzero"></path>
                    <path d="M6.03789836,27.0006409 C6.0252519,27.0008459 6.0126738,27.0011876 6.0000957,27.0015293 L4.00004102,27.0015293 C1.85089482,26.9420066 0.0604295695,28.6354989 0.000888670139,30.7839877 C0.000546873932,30.796562 0.000273436966,30.8092045 0,30.8217788 L0,31.3930189 C0,31.7857593 0.392860561,32 0.785721122,32 L9.21427888,32 C9.60713944,32 10,31.7857593 10,31.3930189 L10,30.8217788 C9.96144539,28.6728116 8.18752307,26.9620298 6.03789836,27.0006409 Z M1.5000752,30.5717972 C1.5715106,29.5007305 2.67865688,28.4295955 4.00004102,28.4295955 L6.00002734,28.4295955 C7.32147984,28.4295955 8.42862612,29.5006622 8.49999316,30.5717972 L1.5000752,30.5717972 Z" id="Shape" fill-rule="nonzero"></path>
                    <path d="M24,23 C24,24.6568332 25.3431668,26 27,26 C28.6568332,26 30,24.6568332 30,23 C30,21.3431668 28.6568332,20 27,20 C25.3431668,20 24,21.343095 24,23 Z M28.5,23 C28.5,23.8284525 27.8284525,24.5 27,24.5 C26.1715475,24.5 25.5,23.8284525 25.5,23 C25.5,22.1715475 26.1715475,21.5 27,21.5 C27.8284525,21.5 28.5,22.1715475 28.5,23 Z" id="Shape" fill-rule="nonzero"></path>
                    <path d="M28.03783,27.0006409 C28.0251835,27.0008459 28.0126054,27.0011876 28.0000273,27.0015293 L26.000041,27.0015293 C23.8508948,26.9420066 22.0604296,28.6354989 22.0008887,30.7839877 C22.0005469,30.796562 22.0002734,30.8092045 22,30.8217788 L22,31.3930189 C22,31.7857593 22.3928606,32 22.7857211,32 L31.2142789,32 C31.6071394,32 32,31.7857593 32,31.3930189 L32,30.8217788 C31.961377,28.6728116 30.1874547,26.9620298 28.03783,27.0006409 Z M23.5000068,30.5717972 C23.5714422,29.5007305 24.6785885,28.4295955 25.9999727,28.4295955 L27.999959,28.4295955 C29.3214115,28.4295955 30.4285578,29.5006622 30.4999248,30.5717972 L23.5000068,30.5717972 Z" id="Shape" fill-rule="nonzero"></path>
                </g>
            </g>
        </g>
    </g>
</svg>