<?xml version="1.0" encoding="UTF-8"?>
<svg width="23px" height="23px" viewBox="0 0 23 23" version="1.1" xmlns="http://www.w3.org/2000/svg" xmlns:xlink="http://www.w3.org/1999/xlink">
    <!-- Generator: sketchtool 52 (66869) - http://www.bohemiancoding.com/sketch -->
    <title>D384A4B3-90AE-4E6D-AF88-D8747A7CC9D4</title>
    <desc>Created with sketchtool.</desc>
    <g id="Page-1" stroke="none" stroke-width="1" fill="none" fill-rule="evenodd">
        <g id="Request" transform="translate(-555.000000, -111.000000)" fill="#E75F5F" fill-rule="nonzero">
            <g id="New-Request-Group" transform="translate(205.000000, 96.000000)">
                <g id="new-request" transform="translate(16.000000, 0.000000)">
                    <g id="overtime" transform="translate(334.000000, 15.000000)">
                        <path d="M2.87036214,3.588 L2.87036214,0.717590535 C2.87036214,0.320911523 3.19127366,0 3.58804733,0 C3.98463169,0 4.30554321,0.320911523 4.30554321,0.717590535 L4.30554321,3.588 C4.30554321,3.98458436 3.98463169,4.30549588 3.58804733,4.30549588 C3.19127366,4.30554321 2.87036214,3.98458436 2.87036214,3.588 Z M15.0694486,4.30554321 C15.4659383,4.30554321 15.7870391,3.98463169 15.7870391,3.58804733 L15.7870391,0.717590535 C15.7870391,0.320911523 15.4659383,0 15.0694486,0 C14.6727695,0 14.3516214,0.320911523 14.3516214,0.717590535 L14.3516214,3.588 C14.3516214,3.98458436 14.6727695,4.30554321 15.0694486,4.30554321 Z M22.9627078,17.2218889 C22.9627078,20.3924815 20.3923868,22.9627551 17.2220309,22.9627551 C14.0519115,22.9627551 11.4814012,20.3924815 11.4814012,17.2218889 C11.4814012,14.0517695 14.0518642,11.4813539 17.2220309,11.4813539 C20.3923868,11.4813539 22.9627078,14.0517222 22.9627078,17.2218889 Z M21.527716,17.2218889 C21.527716,14.8480144 19.5963786,12.9164403 17.2220782,12.9164403 C14.8479671,12.9164403 12.9166296,14.8479671 12.9166296,17.2218889 C12.9166296,19.5962366 14.8479671,21.5275267 17.2220782,21.5275267 C19.5963786,21.5275267 21.527716,19.5962366 21.527716,17.2218889 Z M5.7407716,8.61103909 L2.87036214,8.61103909 L2.87036214,11.4813539 L5.7407716,11.4813539 L5.7407716,8.61103909 Z M2.87036214,15.7868971 L5.7407716,15.7868971 L5.7407716,12.9164403 L2.87036214,12.9164403 L2.87036214,15.7868971 Z M7.17585802,11.4813539 L10.0463148,11.4813539 L10.0463148,8.61103909 L7.17585802,8.61103909 L7.17585802,11.4813539 Z M7.17585802,15.7868971 L10.0463148,15.7868971 L10.0463148,12.9164403 L7.17585802,12.9164403 L7.17585802,15.7868971 Z M1.43527572,17.0792037 L1.43527572,7.1758107 L17.2220782,7.1758107 L17.2220782,10.0462202 L18.6573066,10.0462202 L18.6573066,4.44855967 C18.6573066,3.57678395 17.9620062,2.87031481 17.1030082,2.87031481 L16.5044877,2.87031481 L16.5044877,3.58804733 C16.5044877,4.37842387 15.8610556,5.02318107 15.0694959,5.02318107 C14.2776996,5.02318107 13.6343148,4.37842387 13.6343148,3.58804733 L13.6343148,2.87031481 L5.02308642,2.87031481 L5.02308642,3.58804733 C5.02308642,4.37842387 4.3797963,5.02318107 3.58809465,5.02318107 C2.7962037,5.02318107 2.15286626,4.37842387 2.15286626,3.58804733 L2.15286626,2.87031481 L1.55505556,2.87031481 C0.696010288,2.87031481 4.73251029e-05,3.57678395 4.73251029e-05,4.44855967 L4.73251029e-05,17.079251 C4.73251029e-05,17.9481399 0.696010288,18.6573539 1.55505556,18.6573539 L10.0463148,18.6573539 L10.0463148,17.2219362 L1.55505556,17.2219362 C1.49003086,17.2218889 1.43527572,17.1547346 1.43527572,17.0792037 Z M14.3516214,11.4813539 L14.3516214,8.61103909 L11.4814486,8.61103909 L11.4814486,11.4813539 L14.3516214,11.4813539 Z M19.3748498,17.2218889 L17.2220309,17.2218889 L17.2220309,15.06907 C17.2220309,14.6726276 16.9011193,14.351716 16.5044403,14.351716 C16.1077613,14.351716 15.7870391,14.6726276 15.7870391,15.06907 L15.7870391,17.939716 C15.7870391,18.3362058 16.1077613,18.6573066 16.5044403,18.6573066 L19.3748498,18.6573066 C19.7715288,18.6573066 20.0924403,18.3362058 20.0924403,17.939716 C20.0924403,17.543037 19.7715288,17.2218889 19.3748498,17.2218889 Z" id="Shape"></path>
                    </g>
                </g>
            </g>
        </g>
    </g>
</svg>