<svg xmlns="http://www.w3.org/2000/svg" width="200" height="150" viewBox="0 0 200 150">
    <defs>
        <linearGradient id="a" x1="50%" x2="50%" y1="100%" y2="0%">
            <stop offset="0%" stop-color="gray" stop-opacity=".25"/>
            <stop offset="54%" stop-color="gray" stop-opacity=".12"/>
            <stop offset="100%" stop-color="gray" stop-opacity=".1"/>
        </linearGradient>
        <linearGradient id="b" x1="50.016%" x2="50.016%" y1="99.994%" y2=".007%">
            <stop offset="0%" stop-color="gray" stop-opacity=".25"/>
            <stop offset="54%" stop-color="gray" stop-opacity=".12"/>
            <stop offset="100%" stop-color="gray" stop-opacity=".1"/>
        </linearGradient>
    </defs>
    <g fill="none" fill-rule="evenodd" transform="translate(18 15)">
        <path fill="#6C63FF" d="M21.632 61.434c-2.173.654-4.207 2.237-4.75 4.433-.62 2.524.811 5.069 1.018 7.66.668 8.493-11.461 14.484-9.73 22.825.686 3.317 3.463 5.757 6.2 7.772 4.383 3.219 9.247 6.062 14.633 6.865 8.176 1.22 16.717-2.365 24.664-.1 6.409 1.828 11.313 7.186 17.678 9.163 4.846 1.505 10.066.912 15.099.302 2.714-.327 5.558-.706 7.748-2.328 4.071-3.02 4.327-8.982 7.054-13.255 4.21-6.589 13.442-7.883 21.183-6.603 7.741 1.281 15.258 4.434 23.101 4.177 1.676-.056 3.393-.282 4.855-1.101 1.778-.996 2.98-2.75 4.041-4.485a72.342 72.342 0 0 0 10.564-36.053c.046-2.188-.032-4.471-1.065-6.402-1.306-2.443-3.917-3.905-6.516-4.888-6.242-2.366-13.136-2.753-19.252-5.42-5.898-2.574-10.676-7.086-15.812-10.954a84.395 84.395 0 0 0-34.691-15.387c-2.95-.568-6.013-.973-8.944-.318-3.378.756-6.289 2.852-8.907 5.11C62.84 28.45 57.258 35.86 50.84 42.44a107.84 107.84 0 0 1-14.406 12.373c-2.375 1.705-4.9 3.729-7.546 4.99-2.422 1.152-4.694.861-7.256 1.63z" opacity=".2"/>
        <path stroke="#535461" stroke-width="2" d="M54 8s-6.53 8.84-1.858 19.143C56.813 37.446 44 54 44 54"/>
        <path fill="#8ED16F" d="M55.768 4.487C55.182 6.69 52.38 8 52.38 8s-1.851-2.258-1.265-4.459C51.7 1.34 53.213-.233 54.503.028c1.29.262 1.85 2.258 1.265 4.46z"/>
        <ellipse cx="53.621" cy="4.057" fill="#8ED16F" rx="1.305" ry="1" transform="rotate(-76.9 53.621 4.057)"/>
        <ellipse cx="53.621" cy="4.057" fill="#000" opacity=".3" rx="1.305" ry="1" transform="rotate(-76.9 53.621 4.057)"/>
        <path fill="#8ED16F" d="M53.694 13.794c-2.19.667-4.694-.5-4.694-.5s1.047-2.248 3.239-2.913c2.191-.665 4.29-.435 4.694.501.403.936-1.049 2.246-3.239 2.912z"/>
        <ellipse cx="53.864" cy="12.306" fill="#8ED16F" rx="1.305" ry="1" transform="rotate(-19.885 53.864 12.306)"/>
        <ellipse cx="53.864" cy="12.306" fill="#000" opacity=".3" rx="1.305" ry="1" transform="rotate(-19.885 53.864 12.306)"/>
        <path fill="#8ED16F" d="M53.694 21.794c-2.19.667-4.694-.5-4.694-.5s1.047-2.248 3.239-2.913c2.191-.665 4.29-.435 4.694.501.403.936-1.049 2.247-3.239 2.912z"/>
        <ellipse cx="53.387" cy="20.34" fill="#8ED16F" rx="1.306" ry="1" transform="rotate(-19.8 53.387 20.34)"/>
        <ellipse cx="53.387" cy="20.34" fill="#000" opacity=".3" rx="1.306" ry="1" transform="rotate(-19.8 53.387 20.34)"/>
        <path fill="#8ED16F" d="M56.694 30.794c-2.19.667-4.694-.5-4.694-.5s1.047-2.248 3.239-2.913c2.191-.665 4.29-.435 4.694.501.403.936-1.049 2.25-3.239 2.912z"/>
        <ellipse cx="55.913" cy="29.63" fill="#8ED16F" rx="1.306" ry="1" transform="rotate(-19.8 55.913 29.63)"/>
        <ellipse cx="55.913" cy="29.63" fill="#000" opacity=".3" rx="1.306" ry="1" transform="rotate(-19.8 55.913 29.63)"/>
        <path fill="#8ED16F" d="M54.694 39.794c-2.19.667-4.694-.5-4.694-.5s1.047-2.248 3.239-2.913c2.191-.665 4.29-.435 4.694.501.403.936-1.047 2.247-3.239 2.912z"/>
        <ellipse cx="54.274" cy="37.978" fill="#8ED16F" rx="1.305" ry="1" transform="rotate(-19.885 54.274 37.978)"/>
        <ellipse cx="54.274" cy="37.978" fill="#000" opacity=".3" rx="1.305" ry="1" transform="rotate(-19.885 54.274 37.978)"/>
        <path fill="#8ED16F" d="M45.695 16.313c1.551 1.827 4.294 1.684 4.294 1.684s.225-3.109-1.326-4.936c-1.552-1.826-3.474-2.579-4.294-1.684-.82.895-.226 3.109 1.326 4.936z"/>
        <ellipse cx="46.466" cy="15.214" fill="#8ED16F" rx="1" ry="1.305" transform="rotate(-43.99 46.466 15.214)"/>
        <ellipse cx="46.466" cy="15.214" fill="#000" opacity=".3" rx="1" ry="1.305" transform="rotate(-43.99 46.466 15.214)"/>
        <path fill="#8ED16F" d="M43.695 44.313c1.551 1.827 4.294 1.684 4.294 1.684s.225-3.109-1.326-4.936c-1.552-1.826-3.474-2.579-4.294-1.684-.82.895-.226 3.109 1.326 4.936z"/>
        <ellipse cx="45.547" cy="41.445" fill="#8ED16F" rx="1" ry="1.305" transform="rotate(-43.99 45.547 41.445)"/>
        <ellipse cx="45.547" cy="41.445" fill="#000" opacity=".3" rx="1" ry="1.305" transform="rotate(-43.99 45.547 41.445)"/>
        <path fill="#8ED16F" d="M46.678 25.643c1.903.821 4.322-.032 4.322-.032s-.666-2.182-2.568-3.002c-1.901-.821-3.837-.813-4.321.032-.485.845.664 2.182 2.567 3.002z"/>
        <ellipse cx="47.059" cy="24.038" fill="#8ED16F" rx="1" ry="1.306" transform="rotate(-63.48 47.059 24.038)"/>
        <ellipse cx="47.059" cy="24.038" fill="#000" opacity=".3" rx="1" ry="1.306" transform="rotate(-63.48 47.059 24.038)"/>
        <path fill="#8ED16F" d="M47.678 35.643c1.903.821 4.322-.032 4.322-.032s-.666-2.182-2.568-3.002c-1.901-.821-3.837-.813-4.322.032-.484.845.673 2.19 2.568 3.002z"/>
        <ellipse cx="47.922" cy="33.274" fill="#8ED16F" rx="1" ry="1.306" transform="rotate(-63.48 47.922 33.274)"/>
        <ellipse cx="47.922" cy="33.274" fill="#000" opacity=".3" rx="1" ry="1.306" transform="rotate(-63.48 47.922 33.274)"/>
        <path fill="#8ED16F" d="M21.423 28s11.814 11.81 5.145 29.334C19.898 74.858 38 104 38 104s-.194-.028-.554-.092c-24.267-4.281-36.317-32.022-22.828-52.63 5.01-7.662 9.135-16.65 6.805-23.278z"/>
        <path fill="#8ED16F" d="M0 74.149s13.935-2.161 15.205 9.996C16.475 96.303 42 97.99 42 97.99s-.173.11-.48.31C20.446 111.77.299 106.877 3.335 88.994 4.465 82.344 4.372 75.666 0 74.149z"/>
        <path fill="#FFF" d="M0 75.164s13.922-2.15 15.19 9.945c1.27 12.095 26.772 13.772 26.772 13.772s-.173.11-.479.308C20.426 112.592.297 107.724 3.331 89.933 4.46 83.317 4.368 76.673 0 75.164z" opacity=".3"/>
        <ellipse cx="16.5" cy="65.5" fill="#8ED16F" rx="3.5" ry="9.5"/>
        <ellipse cx="16.5" cy="65.5" fill="#000" opacity=".3" rx="3.5" ry="9.5"/>
        <ellipse cx="13.522" cy="96.408" fill="#8ED16F" rx="2.528" ry="5.626" transform="rotate(-45 13.522 96.408)"/>
        <ellipse cx="13.522" cy="96.408" fill="#000" opacity=".3" rx="2.528" ry="5.626" transform="rotate(-45 13.522 96.408)"/>
        <path fill="url(#a)" d="M121.908 46H32.092C29.832 46 28 47.777 28 49.97v51.06c0 2.193 1.832 3.97 4.092 3.97h89.816c2.26 0 4.092-1.777 4.092-3.97V49.97c0-2.193-1.832-3.97-4.092-3.97z"/>
        <rect width="95" height="58" x="31" y="46" fill="#6C63FF" rx="24.81"/>
        <path fill="#6C63FF" d="M31 55h95v11H31z"/>
        <path fill="#000" d="M31 55h95v11H31z" opacity=".3"/>
        <path fill="#D6D6E3" d="M39 75h76v4H39z"/>
        <circle cx="45.5" cy="93.5" r="7.5" fill="#6C63FF"/>
        <circle cx="45.5" cy="93.5" r="7.5" fill="#000" opacity=".3"/>
        <path fill="url(#b)" fill-rule="nonzero" d="M120.028 31.14c.122.385.38.712.728.919 1.567 1.033 4.975.813 5.384.813.087 0 .202.155.328.416.602 1.239 1.535 4.871 1.598 5.688.084.99 1.005 5.617 2.512 7.341.046.053.092.103.137.149 1.479 1.482 3.213-.149 3.213-.149l.25-.863a33.78 33.78 0 0 0-.343 1.884 26.89 26.89 0 0 0-.354 4.149c-.004.504.018 1.009.065 1.511.014.14.029.278.048.412.077.612.114 1.228.112 1.845-.013 3.663-.95 8.22-.95 8.22l.036-.012c-.022.114-.036.17-.036.17l.055-.017c-.026.17-.051.342-.075.52-.317 2.297-.5 5.157-.587 6.808-.045.87-.006 1.744.116 2.607l1.665 11.695v5.447a9.598 9.598 0 0 0 .3 2.448c.542 2.058.095 9.24-.155 12.648-.07.93-.125 1.58-.14 1.767v.056l.048-.018v.06a.965.965 0 0 1 .221-.066c-.66 1.022-1.855 2.71-2.775 2.994a2.912 2.912 0 0 0-1.386.918l-.024.032-.034.048a1.02 1.02 0 0 0-.2.52.574.574 0 0 1-.03-.1c-.07.38.158.727.876.896.419.08.845.114 1.27.102 2.491 0 6.91-.765 7.398-1.587v-2.835l.08.025v.026l.305.1.838-2.805c1.004-.742.17-14.024 0-17.076-.154-2.78 1.57-13.845 1.876-15.793l-.041-.05.046-.284c.061.044.119.095.17.15.1.118.188.247.262.384.144.244.267.499.37.763 1.685 4.194 2.444 16.187 2.444 17.263v11.278c-.004 1.113.151 2.22.46 3.29.155.563.275 1.135.358 1.712a29.767 29.767 0 0 1 .176 1.326c0 .053.012.104.017.152.005.048 0 .046 0 .07.046.444.07.735.07.735a.17.17 0 0 1 .034-.066l.009.107a.23.23 0 0 1 .066-.106c.07-.068.145-.13.225-.184v1.434l-.04-.031v.247c1.736 1.307 4.562 1.702 6.731 1.687 1.407 0 2.547-.17 2.942-.368.567-.277.256-.924-.259-1.42-.399-.384-.92-.68-1.248-.643-.55.06-2.427-2.063-3.411-3.225l.11-.05.157-.068V88.351s.253-7.424 1.005-14.767a26.074 26.074 0 0 0-1.288-10.955l-.024-.07.229.036c.242.037.372.06.372.06s0-.059-.016-.17h.016s-.294-3.186-.297-7.186c0-4.534.384-10.062 1.972-13.19.914-1.802 1.219-3.235 1.193-4.365a4.558 4.558 0 0 0-.817-2.792 2.217 2.217 0 0 0-.94-.742l-.032-.018h-.017a2.34 2.34 0 0 0-.863-.17h-3.43c-.397 0-.787-.103-1.132-.298l-1.342-.76c-.447-.975-.512-2.183-.417-3.317 0-.09.017-.18.026-.269l.097-.102c.075-.08.145-.17.213-.247a1.894 1.894 0 0 1-.015.2c-.017.108-.046.171-.092.185.733-.096 1.552-.24 2.002-.805.019-.022.036-.046.053-.07.133-.215.243-.443.33-.681.062-.162.147-.316.25-.456.113-.147.26-.266.38-.405l.02-.024c.432-.51.456-1.243.461-1.91.009-1.62-.039-3.404-1.125-4.62-.903-1.01-2.342-1.393-3.708-1.438-1.366-.044-2.73.201-4.094.208-.927 0-2.046-.015-2.558.75-.25.377-.281.869-.554 1.23-.157.207-.398.386-.411.645a.661.661 0 0 0 .088.34v.012c.331.65 1.034 1.055 1.767 1.183a4.466 4.466 0 0 0-1.023 2.853 4.495 4.495 0 0 0 1.44 3.29l-.043.284.03.027c.097.088.198.17.302.249l.038.029v.17c0 .099 0 .2-.01.296-.01.097 0 .157-.01.235l-.023-.019-1.666-1.389-2.68-2.474s-6.699-4.867-7.035-2.554c-.04.411.073.822.319 1.154 1.23 1.873 5.458 3.466 5.458 3.466s2.52 2.66 4.207 5.528c-.06.033-.119.063-.182.092-1.5.696-3.69.402-3.69.402-2.53.393-2.759 3.16-2.745 4.277V39.521l-3.357-7.866-.01-.023a1.659 1.659 0 0 0-1.255-.984c-2.245-.376-7.854-1.161-7.385.492zm14.052 76.425c.049-.012.098-.021.148-.028l-.015.024-.133.004z"/>
        <path fill="#ACA9C9" d="M150.72 105s2.957 4.42 3.64 4.33c.684-.09 2.276 1.714 1.366 2.265-.909.55-6.143.901-8.726-1.444v-3.534l3.72-1.617zM134.642 106s-1.823 3.268-3.089 3.669c-1.266.4-2.376 1.834-.713 2.232 1.664.399 7.607-.478 8.16-1.435v-4.228l-4.358-.238z"/>
        <path fill="#618FD8" d="M133.131 73.655l1.583 11.4v5.299a9.583 9.583 0 0 0 .287 2.385c.516 2.006.092 9.006-.148 12.327a139.224 139.224 0 0 1-.139 1.776c1.035-.482 5.417 1.045 5.417 1.045l.443-1.522.354-1.211c.956-.723.166-13.668 0-16.65-.109-2.037.791-8.64 1.368-12.597.166-1.118.301-2.018.383-2.56l.08-.522c.175.144.321.322.43.523.137.237.254.486.351.743 1.603 4.088 2.333 15.777 2.333 16.818v10.992a11.692 11.692 0 0 0 .438 3.207c.198.761.342 1.535.432 2.316.113.873.166 1.576.166 1.576.08-.483 5.019-2.654 5.019-2.654V88.015s.238-7.232.956-14.393a25.907 25.907 0 0 0-1.484-11.408c-.292-.782-.5-1.214-.5-1.214h-16.269c-.273.052-.5.607-.705 1.45-.133.565-.25 1.258-.351 2.018-.302 2.238-.475 5.025-.559 6.636-.042.852-.003 1.707.115 2.551z"/>
        <g fill="#000" opacity=".1">
            <path d="M152.475 107.142v-18.61s.245-7.341.982-14.611c.738-7.27-2.054-12.815-2.054-12.815h.327s2.782 5.55 2.054 12.815c-.727 7.265-.982 14.611-.982 14.611v18.61s-5.074 2.204-5.156 2.694c0 0 0-.11-.026-.297 1.106-.767 4.855-2.397 4.855-2.397zM135.577 107.541a1.273 1.273 0 0 0-.45.093v-.082c.15-.015.3-.019.45-.01zM141.183 105.92c.982-.735.17-13.876 0-16.903-.171-3.027 1.883-15.916 1.883-15.916.107.083.202.181.282.29-.301 1.927-1.986 12.876-1.837 15.626.172 3.02.983 16.162 0 16.903l-.818 2.774-.298-.1.788-2.674z"/>
        </g>
        <path fill="#F7C4A7" d="M135 41.107l-1.674 6.124s-1.761 1.73-3.201 0c-1.44-1.731-2.327-6.371-2.414-7.365-.087-.993-1.361-6.123-1.842-6.123-.48 0-5.282.33-5.842-1.731-.45-1.658 4.911-.865 7.058-.493.537.094.99.467 1.2.986l3.291 8.126s1.743-2.089 3.424.476zM147.045 27s-2.118 6.083.57 8.25C150.306 37.416 138 38 138 38l1.67-1.624s1.18-4.792.366-8.792l7.009-.584z"/>
        <path fill="#000" d="M144.18 35.056s2.2-.509 2.2-1.056l1.95 1.056h4.896s3.57 1.879.582 7.517c-2.987 5.638-1.66 19.487-1.66 19.487s-10.621-1.801-19.419.94c0 0 1.328-6.185.83-9.708-.498-3.522.83-8.454.83-8.454l.746-2.976s-.041-2.784-3.112-1.37c0 0-.457-4.032 2.698-4.502 0 0 3.645.47 4.73-1.253 0 .006 2.407 1.338 4.73.32z" opacity=".1"/>
        <path fill="#E14B5A" d="M144.122 35.056s2.008-.509 2.008-1.056l1.304.775a2.01 2.01 0 0 0 1.024.281h3.127a2.04 2.04 0 0 1 1.676.881c.717 1.043 1.361 3.1-.35 6.636-2.727 5.636-1.514 19.487-1.514 19.487s-9.698-1.801-17.73.94c0 0 1.212-6.185.757-9.708-.455-3.522.757-8.443.757-8.443l.682-2.975s-.038-2.784-2.842-1.371c0 0-.406-3.92 2.344-4.48a.752.752 0 0 1 .233-.017c.588.064 3.328.269 4.207-1.266-.002.002 2.196 1.333 4.317.316z"/>
        <path fill="#000" d="M151.713 42.289s-2.328 1.6-6.11 0c0 0-4.147-1.674-5.457-4.96-1.31-3.287 6.62.56 6.62.56s1.673 0 2.181-.4 4.075 3.04 2.766 4.8z" opacity=".1"/>
        <path fill="#F7C4A7" d="M152.69 42.315s-2.52 1.542-6.614 0c0 0-4.488-1.613-5.906-4.78-1.418-3.168-4.723-6.637-4.723-6.637s-5.748-2.16-5.435-4.317c.313-2.158 6.614 2.39 6.614 2.39l2.52 2.313 8.188 6.784s1.812 0 2.362-.385 4.41 2.935 2.994 4.632z"/>
        <path fill="#000" d="M140 27.487l7-.487c-.36.92-.605 1.868-.73 2.832-1.693 1.499-4.48 1.564-6.267.145a5.823 5.823 0 0 0-.003-2.49z" opacity=".1"/>
        <circle cx="142.5" cy="26.5" r="4.5" fill="#F7C4A7"/>
        <path fill="#000" d="M146.046 26.723c-.238-.421.247-.97.087-1.43-.147-.425-.732-.497-.929-.894-.155-.32 0-.712-.062-1.065-.088-.456-.546-.74-.981-.762-.435-.024-.855.15-1.269.3-.673.243-1.382.43-2.088.344-.706-.086-1.41-.497-1.725-1.171a.7.7 0 0 1-.079-.322c.012-.249.226-.42.364-.618.241-.346.27-.819.49-1.18.448-.736 1.434-.718 2.255-.721 1.208 0 2.41-.242 3.617-.199 1.208.043 2.477.41 3.278 1.38.96 1.169 1.003 2.88.995 4.437 0 .641-.024 1.34-.407 1.835-.111.144-.248.263-.354.41-.233.332-.295.756-.513 1.093-.387.598-1.143.744-1.816.84.198-.028.034-1.448 0-1.58-.13-.652-.271-.64-.863-.697z" opacity=".1"/>
        <path fill="#281C1C" d="M146.046 26.723c-.238-.421.247-.97.087-1.43-.147-.425-.732-.497-.929-.894-.155-.32 0-.712-.062-1.065-.088-.456-.546-.74-.981-.762-.435-.024-.855.15-1.269.3-.673.243-1.382.43-2.088.344-.706-.086-1.41-.497-1.725-1.171a.7.7 0 0 1-.079-.322c.012-.249.226-.42.364-.618.241-.346.27-.819.49-1.18.448-.736 1.434-.718 2.255-.721 1.208 0 2.41-.242 3.617-.199 1.208.043 2.477.41 3.278 1.38.96 1.169 1.003 2.88.995 4.437 0 .641-.024 1.34-.407 1.835-.111.144-.248.263-.354.41-.233.332-.295.756-.513 1.093-.387.598-1.143.744-1.816.84.198-.028.034-1.448 0-1.58-.13-.66-.271-.64-.863-.697z"/>
        <path fill="#000" d="M153.07 43s-2.098-5.764-3.728-5.927c-1.631-.164 3.105 0 3.105 0L154 40.036 153.07 43z" opacity=".1"/>
        <path fill="#E14B5A" d="M153.07 43s-2.098-5.764-3.728-5.927c-1.631-.164 3.105 0 3.105 0L154 40.036 153.07 43z"/>
        <path fill="#618FD8" d="M147 108.41c.11.88.16 1.59.16 1.59.078-.487 4.84-2.68 4.84-2.68v-1.318a2.005 2.005 0 0 0-.363.018c-.924.131-1.78.605-2.57 1.11-.668.464-1.358.89-2.067 1.28z"/>
        <path fill="#000" d="M147 108.41c.11.88.16 1.59.16 1.59.078-.487 4.84-2.68 4.84-2.68v-1.318a2.005 2.005 0 0 0-.363.018c-.924.131-1.78.605-2.57 1.11-.668.464-1.358.89-2.067 1.28z" opacity=".3"/>
        <path fill="#618FD8" d="M133 106.93c1.06-.496 5.546 1.07 5.546 1.07l.454-1.56c-.783-.16-1.561-.361-2.325-.599a7.682 7.682 0 0 1-1.044-.39 6.96 6.96 0 0 0-.696-.327c-.586-.204-1.195-.118-1.795-.016-.079 1.11-.14 1.821-.14 1.821z"/>
        <path fill="#000" d="M133 106.93c1.06-.496 5.546 1.07 5.546 1.07l.454-1.56c-.783-.16-1.561-.361-2.325-.599a7.682 7.682 0 0 1-1.044-.39 6.96 6.96 0 0 0-.696-.327c-.586-.204-1.195-.118-1.795-.016-.079 1.11-.14 1.821-.14 1.821z" opacity=".3"/>
        <path fill="#FFF" d="M155.724 111.365a.497.497 0 0 0 .26-.339c.059.244-.052.498-.26.594-.91.513-6.142.853-8.724-1.365V110c2.582 2.218 7.814 1.877 8.724 1.365zM130.84 111.62c1.658.45 7.607-.54 8.16-1.62v.269c-.555 1.08-6.496 2.07-8.16 1.62-.679-.188-.896-.565-.828-.977.053.305.301.557.828.708z" opacity=".4"/>
        <path fill="#000" d="M142 53.235s-1.805-.528-2.298 0C139.21 53.763 135 55 135 55" opacity=".1"/>
        <path fill="#8ED16F" d="M129 29.085h-9v-1h9zM129 31.085h-9v-1h9z"/>
        <path fill="#000" d="M129 31.085h-9v-1h9z" opacity=".1"/>
        <path fill="#8ED16F" d="M129 31.085h-9v-1h9z"/>
        <path fill="#8ED16F" d="M129 31.085h-9v-1h9z"/>
        <path fill="#000" d="M129 31.085h-9v-1h9z" opacity=".1"/>
        <path fill="#8ED16F" d="M129 31.085h-9v-1h9z"/>
        <path fill="#8ED16F" d="M129 31.085h-9v-1h9z"/>
        <path fill="#000" d="M129 31.085h-9v-1h9z" opacity=".1"/>
        <path fill="#8ED16F" d="M129 31.085h-9v-1h9z"/>
        <path fill="#8ED16F" d="M129 31.085h-9v-1h9z"/>
        <path fill="#000" d="M129 31.085h-9v-1h9z" opacity=".1"/>
        <path fill="#8ED16F" d="M129 28.085h-9v-1h9zM133.392 30.118l-6.662-5.535.117-.141 6.662 5.535z"/>
        <path fill="#8ED16F" d="M127.318 27.206l-6.662-5.536.117-.14 6.662 5.535zM129 29.085h-9v-1h9z"/>
        <path fill="#000" d="M129 29.085h-9v-1h9z" opacity=".1"/>
        <path fill="#8ED16F" d="M129 29.085h-9v-1h9z"/>
        <path fill="#8ED16F" d="M129 29.085h-9v-1h9z"/>
        <path fill="#000" d="M129 29.085h-9v-1h9z" opacity=".1"/>
        <path fill="#8ED16F" d="M129 29.085h-9v-1h9z"/>
        <path fill="#8ED16F" d="M129 29.085h-9v-1h9z"/>
        <path fill="#000" d="M129 29.085h-9v-1h9z" opacity=".1"/>
        <path fill="#8ED16F" d="M129 29.085h-9v-1h9z"/>
        <path fill="#8ED16F" d="M129 29.085h-9v-1h9z"/>
        <path fill="#000" d="M129 29.085h-9v-1h9z" opacity=".1"/>
        <path fill="#8ED16F" d="M122.607 37.856l-3.105-.576 1.124-6.044 3.105.575z"/>
        <ellipse cx="121.66" cy="34.565" fill="#8ED16F" rx="1.295" ry="1" transform="rotate(-79.48 121.66 34.565)"/>
        <ellipse cx="121.66" cy="34.565" fill="#000" opacity=".1" rx="1.295" ry="1" transform="rotate(-79.48 121.66 34.565)"/>
        <path fill="#8ED16F" d="M123.138 50.615l-3.104-.576 1.123-6.045 3.105.576z"/>
        <ellipse cx="122.189" cy="47.323" fill="#8ED16F" rx="1.295" ry="1" transform="rotate(-79.48 122.19 47.323)"/>
        <ellipse cx="122.189" cy="47.323" fill="#000" opacity=".1" rx="1.295" ry="1" transform="rotate(-79.48 122.19 47.323)"/>
        <path fill="#8ED16F" d="M107.302 21.452l1.503-2.774 5.412 2.926-1.503 2.775z"/>
        <ellipse cx="111.287" cy="21.647" fill="#8ED16F" rx="1" ry="1.299" transform="rotate(-61.39 111.287 21.647)"/>
        <ellipse cx="111.287" cy="21.647" fill="#000" opacity=".1" rx="1" ry="1.299" transform="rotate(-61.39 111.287 21.647)"/>
        <path fill="#8ED16F" d="M95.417 76.203l1.503-2.775 5.412 2.926-1.503 2.775z"/>
        <ellipse cx="98.857" cy="76.316" fill="#8ED16F" rx="1" ry="1.296" transform="rotate(-61.58 98.857 76.316)"/>
        <ellipse cx="98.857" cy="76.316" fill="#000" opacity=".1" rx="1" ry="1.296" transform="rotate(-61.58 98.857 76.316)"/>
        <path fill="#8ED16F" d="M88.145 31.02l1.503-2.773 5.413 2.926-1.503 2.774z"/>
        <ellipse cx="91.584" cy="31.131" fill="#8ED16F" rx="1" ry="1.296" transform="rotate(-61.58 91.584 31.131)"/>
        <ellipse cx="91.584" cy="31.131" fill="#000" opacity=".1" rx="1" ry="1.296" transform="rotate(-61.58 91.584 31.131)"/>
        <path fill="#8ED16F" d="M97.259 21.452l1.503-2.775 5.412 2.926-1.502 2.775z"/>
        <ellipse cx="100.698" cy="21.562" fill="#8ED16F" rx="1" ry="1.296" transform="rotate(-61.58 100.698 21.562)"/>
        <ellipse cx="100.698" cy="21.562" fill="#000" opacity=".1" rx="1" ry="1.296" transform="rotate(-61.58 100.698 21.562)"/>
        <path fill="#8ED16F" d="M104.722 30.311l3.139-.343.669 6.112-3.14.343z"/>
        <ellipse cx="106.584" cy="33.201" fill="#8ED16F" rx="1" ry="1.295" transform="rotate(-6.24 106.584 33.2)"/>
        <ellipse cx="106.584" cy="33.201" fill="#000" opacity=".1" rx="1" ry="1.295" transform="rotate(-6.24 106.584 33.2)"/>
        <path fill="#8ED16F" d="M126.243 63.778l3.14-.343.668 6.112-3.139.343z"/>
        <ellipse cx="128.107" cy="66.668" fill="#8ED16F" rx="1" ry="1.295" transform="rotate(-6.24 128.107 66.668)"/>
        <ellipse cx="128.107" cy="66.668" fill="#000" opacity=".1" rx="1" ry="1.295" transform="rotate(-6.24 128.107 66.668)"/>
        <path fill="#8ED16F" d="M94.067 45.726l1.503-2.775 5.412 2.926-1.503 2.775z"/>
        <ellipse cx="97.504" cy="45.838" fill="#8ED16F" rx="1" ry="1.296" transform="rotate(-61.58 97.504 45.838)"/>
        <ellipse cx="97.504" cy="45.838" fill="#000" opacity=".1" rx="1" ry="1.296" transform="rotate(-61.58 97.504 45.838)"/>
        <path fill="#8ED16F" d="M80.408 41.829l1.503-2.775 5.412 2.926-1.502 2.775z"/>
        <ellipse cx="84.295" cy="42.12" fill="#8ED16F" rx="1" ry="1.299" transform="rotate(-61.39 84.295 42.12)"/>
        <ellipse cx="84.295" cy="42.12" fill="#000" opacity=".1" rx="1" ry="1.299" transform="rotate(-61.39 84.295 42.12)"/>
        <path fill="#8ED16F" d="M76.033 107.44l1.503-2.774 5.413 2.926-1.503 2.775z"/>
        <ellipse cx="79.472" cy="107.552" fill="#8ED16F" rx="1" ry="1.296" transform="rotate(-61.58 79.472 107.552)"/>
        <ellipse cx="79.472" cy="107.552" fill="#000" opacity=".1" rx="1" ry="1.296" transform="rotate(-61.58 79.472 107.552)"/>
        <path fill="#8ED16F" d="M73.022 108.837l.576-3.101 6.051 1.121-.576 3.102z"/>
        <path fill="#000" d="M73.022 108.837l.576-3.101 6.051 1.121-.576 3.102z" opacity=".05"/>
        <ellipse cx="76.329" cy="107.886" fill="#8ED16F" rx="1" ry="1.296" transform="rotate(-79.49 76.33 107.886)"/>
        <ellipse cx="76.329" cy="107.886" fill="#000" opacity=".1" rx="1" ry="1.296" transform="rotate(-79.49 76.33 107.886)"/>
        <path fill="#8ED16F" d="M73.589 110.697l.576-3.101 6.051 1.121-.576 3.102z"/>
        <ellipse cx="76.895" cy="109.746" fill="#8ED16F" rx="1" ry="1.296" transform="rotate(-79.49 76.895 109.746)"/>
        <ellipse cx="76.895" cy="109.746" fill="#000" opacity=".1" rx="1" ry="1.296" transform="rotate(-79.49 76.895 109.746)"/>
        <path fill="#8ED16F" d="M82.418 115.414l1.503-2.774 5.413 2.926-1.503 2.774z"/>
        <ellipse cx="85.858" cy="115.526" fill="#8ED16F" rx="1" ry="1.296" transform="rotate(-61.58 85.858 115.526)"/>
        <ellipse cx="85.858" cy="115.526" fill="#000" opacity=".1" rx="1" ry="1.296" transform="rotate(-61.58 85.858 115.526)"/>
        <path fill="#8ED16F" d="M79.408 116.809l.576-3.102 6.051 1.122-.576 3.101z"/>
        <path fill="#000" d="M79.408 116.809l.576-3.102 6.051 1.122-.576 3.101z" opacity=".05"/>
        <ellipse cx="82.714" cy="115.858" fill="#8ED16F" rx="1" ry="1.296" transform="rotate(-79.49 82.714 115.858)"/>
        <ellipse cx="82.714" cy="115.858" fill="#000" opacity=".1" rx="1" ry="1.296" transform="rotate(-79.49 82.714 115.858)"/>
        <path fill="#8ED16F" d="M79.975 118.67l.575-3.1 6.052 1.12-.576 3.102z"/>
        <ellipse cx="83.282" cy="117.72" fill="#8ED16F" rx="1" ry="1.296" transform="rotate(-79.49 83.282 117.72)"/>
        <ellipse cx="83.282" cy="117.72" fill="#000" opacity=".1" rx="1" ry="1.296" transform="rotate(-79.49 83.282 117.72)"/>
        <path fill="#8ED16F" d="M91.997 110.276L93.5 107.5l5.413 2.926-1.503 2.775z"/>
        <ellipse cx="95.435" cy="110.386" fill="#8ED16F" rx="1" ry="1.296" transform="rotate(-61.58 95.435 110.386)"/>
        <ellipse cx="95.435" cy="110.386" fill="#000" opacity=".1" rx="1" ry="1.296" transform="rotate(-61.58 95.435 110.386)"/>
        <path fill="#8ED16F" d="M88.986 111.671l.576-3.101 6.052 1.121-.576 3.102z"/>
        <path fill="#000" d="M88.986 111.671l.576-3.101 6.052 1.121-.576 3.102z" opacity=".05"/>
        <ellipse cx="92.292" cy="110.72" fill="#8ED16F" rx="1" ry="1.296" transform="rotate(-79.49 92.292 110.72)"/>
        <ellipse cx="92.292" cy="110.72" fill="#000" opacity=".1" rx="1" ry="1.296" transform="rotate(-79.49 92.292 110.72)"/>
        <path fill="#8ED16F" d="M89.553 113.533l.576-3.102 6.051 1.122-.576 3.101z"/>
        <ellipse cx="92.861" cy="112.582" fill="#8ED16F" rx="1" ry="1.296" transform="rotate(-79.49 92.86 112.582)"/>
        <ellipse cx="92.861" cy="112.582" fill="#000" opacity=".1" rx="1" ry="1.296" transform="rotate(-79.49 92.86 112.582)"/>
    </g>
</svg>
