<?xml version="1.0" encoding="UTF-8"?>
<svg width="36px" height="36px" viewBox="0 0 36 36" version="1.1" xmlns="http://www.w3.org/2000/svg" xmlns:xlink="http://www.w3.org/1999/xlink">
    <!-- Generator: sketchtool 51.3 (57544) - http://www.bohemiancoding.com/sketch -->
    <title>1A0093C4-6962-4756-A120-C2798E209AE6</title>
    <desc>Created with sketchtool.</desc>
    <defs></defs>
    <g id="Employee-Information" stroke="none" stroke-width="1" fill="none" fill-rule="evenodd">
        <g id="Menu-switch" transform="translate(-33.000000, -154.000000)" fill="#515699" fill-rule="nonzero">
            <g id="payroll" transform="translate(33.000000, 154.000000)">
                <path d="M23.481,11.74725 L15.2814375,13.5 L23.8730625,13.5 L23.481,11.74725 Z M21.375,20.25 L24.1875,20.25 L24.1875,18 L21.375,18 L21.375,20.25 Z M18,0 C8.0589375,0 0,8.0589375 0,18 C0,27.9410625 8.0589375,36 18,36 C27.9410625,36 36,27.9410625 36,18 C36,8.0589375 27.9410625,0 18,0 Z M25.3125,23.625 C25.3125,24.246 24.8085,24.75 24.1875,24.75 L11.8125,24.75 C11.1915,24.75 10.6875,24.246 10.6875,23.625 L10.6875,14.625 C10.6875,14.5468125 10.6959375,14.4703125 10.711125,14.396625 C10.63125,13.849875 10.9906875,13.3284375 11.5509375,13.2080625 L23.2486875,10.70775 C23.8359375,10.5823125 24.4164375,10.94625 24.5446875,11.52 L25.090875,13.960125 C25.22925,14.1463125 25.3125,14.37525 25.3125,14.625 L25.3125,23.625 Z M11.8125,23.625 L24.1875,23.625 L24.1875,21.375 L21.375,21.375 C20.754,21.375 20.25,20.871 20.25,20.25 L20.25,18 C20.25,17.379 20.754,16.875 21.375,16.875 L24.1875,16.875 L24.1875,14.625 L11.8125,14.625 L11.8125,23.625 Z" id="Shape"></path>
            </g>
        </g>
    </g>
</svg>