<svg xmlns="http://www.w3.org/2000/svg" width="200" height="150" viewBox="0 0 200 150">
    <defs>
        <linearGradient id="a" x1="49.991%" x2="49.991%" y1="99.996%" y2=".002%">
            <stop offset="0%" stop-color="gray" stop-opacity=".25"/>
            <stop offset="54%" stop-color="gray" stop-opacity=".12"/>
            <stop offset="100%" stop-color="gray" stop-opacity=".1"/>
        </linearGradient>
    </defs>
    <g fill="none" fill-rule="evenodd" transform="translate(19 8)">
        <path fill="#6C63FF" d="M52.39 5.136C57.378.629 65.209-.286 72.334.069c22.384 1.129 42.59 12.085 60.066 24.479 6.327 4.487 12.556 9.322 16.663 15.5 8.36 12.58 5.881 30.004-5.745 40.366-3.955 3.526-8.749 6.23-13.672 8.625-8.75 4.26-18.196 7.679-28.13 8.653-7.085.694-14.257.13-21.298-.84-19.675-2.705-38.99-8.688-55.176-18.925-7.1-4.49-13.793-10.071-16.719-17.334-2.926-7.263-1.053-16.469 6.196-20.768 2.999-1.778 6.584-2.58 10.093-3.335 5.167-1.11 10.416-2.205 15.077-4.46 4.816-2.332 10.519-6.84 9.56-11.993-1.018-5.539-1.84-10.4 3.143-14.901z" opacity=".1"/>
        <ellipse cx="157.5" cy="136" fill="#6C63FF" opacity=".1" rx="5.5" ry="1"/>
        <ellipse cx="64" cy="124.5" fill="#6C63FF" opacity=".1" rx="24" ry="4.5"/>
        <ellipse cx="129" cy="124" fill="#6C63FF" opacity=".1" rx="12" ry="3"/>
        <path fill="#6C63FF" d="M157.754 124s1.002 1.279-.462 3.22c-1.464 1.94-2.67 3.573-2.182 4.78 0 0 2.208-3.597 4.005-3.648 1.796-.051.613-2.192-1.361-4.352z"/>
        <path fill="#000" d="M157.728 124c.089.124.159.26.208.403 1.773 2.019 2.718 3.901 1.013 3.948-1.587.045-3.493 2.795-3.949 3.49.015.054.033.107.054.159 0 0 2.233-3.596 4.05-3.648 1.818-.05.621-2.193-1.376-4.352z" opacity=".1"/>
        <path fill="#FFD037" d="M160.116 125.522c0 .819-.052 1.478-.116 1.478s-.116-.66-.116-1.478.066-.43.129-.43c.064 0 .103-.385.103.43zM161.762 126.503c-.39.352-.732.566-.76.477-.028-.089.263-.448.653-.8.39-.352.237-.096.266 0 .03.096.232-.029-.159.323z"/>
        <path fill="#6C63FF" d="M153.246 124s-1.001 1.279.462 3.22c1.463 1.94 2.67 3.573 2.182 4.78 0 0-2.208-3.597-4.004-3.648-1.796-.051-.617-2.192 1.36-4.352z"/>
        <path fill="#000" d="M153.272 124c-.088.124-.157.26-.206.403-1.774 2.019-2.72 3.901-1.015 3.948 1.59.045 3.494 2.795 3.949 3.49a1.817 1.817 0 0 1-.053.159s-2.234-3.596-4.05-3.648c-1.818-.05-.625-2.193 1.375-4.352z" opacity=".1"/>
        <path fill="#FFD037" d="M150.884 125.522c0 .819.052 1.478.116 1.478s.116-.66.116-1.478-.066-.43-.129-.43c-.064 0-.103-.385-.103.43z"/>
        <path fill="#FFD037" d="M150.237 126.503c.39.352.731.566.76.477.03-.089-.264-.448-.654-.8-.391-.352-.237-.096-.265 0-.028.096-.232-.029.16.323z"/>
        <path fill="#A8A8A8" d="M152 132.43s2.687-.082 3.496-.65c.81-.567 4.136-1.246 4.337-.334.2.911 4.038 4.53 1.004 4.553-3.035.023-7.05-.463-7.86-.95-.81-.487-.977-2.62-.977-2.62z"/>
        <path fill="#000" d="M160.889 135.645c-3.035.026-7.05-.518-7.86-1.064-.615-.414-.861-1.899-.94-2.581H152s.17 2.39.978 2.935c.808.546 4.825 1.092 7.859 1.064.876 0 1.178-.345 1.162-.863-.125.31-.452.502-1.11.509z" opacity=".2"/>
        <ellipse cx="5.5" cy="130" fill="#6C63FF" opacity=".1" rx="5.5" ry="1"/>
        <path fill="#A8A8A8" d="M2 124.717s3.225-.098 4.196-.78c.971-.68 4.961-1.498 5.203-.4.242 1.097 4.846 5.432 1.206 5.462-3.64.03-8.457-.56-9.43-1.14-.972-.582-1.175-3.142-1.175-3.142z"/>
        <path fill="#000" d="M12.662 128.56c-3.639.033-8.451-.651-9.423-1.332-.739-.517-1.033-2.37-1.13-3.228H2s.205 2.99 1.183 3.668c.979.678 5.784 1.36 9.423 1.331 1.05 0 1.413-.441 1.393-1.077-.155.395-.556.638-1.337.638z" opacity=".2"/>
        <ellipse cx="25" cy="132" fill="#6C63FF" rx="6" ry="1"/>
        <path fill="#6C63FF" d="M27.423 130.991c.267-.241.462-.567.56-.933.07-.371-.072-.817-.391-.952-.359-.151-.742.125-1.03.403-.29.278-.625.595-1.004.534.397-.4.577-1 .473-1.584a.689.689 0 0 0-.132-.32c-.2-.238-.56-.136-.804.05-.757.59-.964 1.73-.972 2.756-.076-.37-.012-.756-.015-1.135-.003-.38-.095-.8-.384-1.005a1.071 1.071 0 0 0-.587-.153c-.339-.013-.718.025-.951.3-.288.343-.214.918.037 1.296.25.378.633.613.985.873.282.187.523.441.704.745a.888.888 0 0 1 .053.134h2.133c.48-.268.927-.607 1.325-1.009zM66.875 76.375L66 76l.041.919L68 78l-.355-1.522z"/>
        <path fill="#000" d="M66.875 76.375L66 76l.041.919L68 78l-.355-1.522z" opacity=".03"/>
        <path fill="#6C63FF" d="M98.744 109c8.51-8.683 13.274-20.402 13.256-32.606V76H66l32.744 33z"/>
        <path fill="#000" d="M98.744 109c8.51-8.683 13.274-20.402 13.256-32.606V76H66l32.744 33z" opacity=".03"/>
        <path fill="#6C63FF" d="M98.744 110c8.51-8.683 13.274-20.402 13.256-32.606V77H66l32.744 33z"/>
        <path fill="#FFF" d="M98.744 110c8.51-8.683 13.274-20.402 13.256-32.606V77H66l32.744 33z" opacity=".15"/>
        <path fill="url(#a)" fill-rule="nonzero" d="M140.878 69.4l-.71-6.47s-1.286-5.824-1.47-8.736c-.183-2.911-1.573-3.124-1.584-3.124 0 0-1.714-1.011-1.867-1.349-.118-.258-1.07-.808-1.501-1.05l-.211-.113s-.535-2.25-1.173-1.928l-.052-.152a5.677 5.677 0 0 1-.3-1.501v-.188a5.504 5.504 0 0 0 1.46-2.51 5.47 5.47 0 0 0 .162-1.024v-.195c.313-.22.365-.689.448-1.08.152-.717.551-1.358.74-2.065.017-.06.03-.123.041-.187v-.04a2.44 2.44 0 0 0 .038-.394v-.027c0-.534-.163-1.058-.6-1.342a1.297 1.297 0 0 1-.28-.197.845.845 0 0 1-.142-.26l-.324-.779a.808.808 0 0 0-.163-.277 1.171 1.171 0 0 0-.433-.207c-.486-.189-.81-.645-1.049-1.1-.238-.455-.457-.946-.829-1.31-.603-.58-1.498-.703-2.328-.795a2.558 2.558 0 0 0-.059.8c-1.318-.291-2.757-.57-3.971.017a.923.923 0 0 0-.487.474.668.668 0 0 0-.02.077.512.512 0 0 0 0 .1.91.91 0 0 1 .022.218.326.326 0 0 1-.203.219c-.399.178-.88-.052-1.297.09-.382.131-.592.535-.71.921-.12.387-.195.8-.453 1.11-.13.164-.3.273-.435.426a1.318 1.318 0 0 0-.306 1.04v.03c0 .05.017.098.03.147a1.337 1.337 0 0 0 .135.303c.182.31.452.578.52.928v.013c.08.45-.204.879-.275 1.327 0 .036-.01.07-.011.107v.12c.024.656.619 1.09.973 1.57.094.128.269.5.457.639a5.373 5.373 0 0 0 .564 1.728 5.531 5.531 0 0 0 2.833 2.558c0 .064.013.13.02.195 0 .121.016.245.016.366v.177l-.053-.415a1.58 1.58 0 0 0-.61-.009c-8.676-8.256-20.15-12.854-32.075-12.855v22.6c-1.34-.406-2.433-.452-2.352.504.075.982 1.135 1.977 2.352 2.8V80.78h23.392c.024.546.073 1.037.162 1.157.252.308.229 3.993.229 3.993s.123.676.154.797c.03.121.397 3.25.397 3.403 0 .152.338 1.227.307 1.656-.031.429.551 1.838.551 1.838l.09 2.576 1.011 1.534c.062.091.031 1.9 1.07 2.759.165.158.282.36.338.581.078.311 2.689 4.736 3.496 6.101l-.097.464-.649 3.062-.03 1.288s-.4 1.103-.276 1.563c.075.238.096.49.062.736 0 0-.429.673-.153 1.103.276.43.122.675-.276 1.778-.175.49-.024.78.2.96 0 .054-.013.112-.02.164-.056.491-.12 1.052-.12 1.201 0 .15-.056.819-.06 1.408 0 .466.03.885.153.954.276.152 1.807.327 1.836.858.029.53.613 1.286 1.836 1.286 1.222 0 3.336-.429 3.854-.368.086.011.137-.046.163-.148a.495.495 0 0 0 .011-.052c.184.21.438.347.714.385 1.835.338 4.069-.491 4.498-1.318a1.52 1.52 0 0 0 .124-.327c.204-.818-.124-1.848-.124-1.848a3.18 3.18 0 0 1-.039-1.267c.038-.189.124-.365.252-.509.293-.31.577-1.165.768-1.852.148-.535.242-.97.242-.97s-.193-.299-.486-.708c-.59-.833-1.583-2.127-2.204-2.348a.723.723 0 0 1-.065-.194c-.03-.306-.673-1.309-.673-1.309s-.887-1.442-.887-1.563c0-.12-1.223-1.993-1.223-1.993s-.47-1.03-.78-1.588c.035-.098.071-.222.108-.37.325-1.29.65-4.234.58-4.633-.093-.49-.163-1.011.304-1.717.467-.705.43-1.838.43-1.838s-.03-3.466.305-4.17c.336-.704 1.284-6.345 1.255-6.47-.029-.124.243-.895.243-.895l.057-2.224v-.136s.214-1.931.487-2.361c.057-.133.086-.276.084-.421h5.049c0-.308-.012-.614-.02-.92h.02a47.207 47.207 0 0 0-.487-6.41c.474-.58 1.046-.982 1.064-1.107.08-.377.193-.747.336-1.105.204-.62-.04-1.846-.04-1.846zm-10.19 47.975s.13-.079.341-.188l.04.163c.135.593.3 1.414.262 1.8l-.162 1.657c-.172.366-.302.75-.388 1.146-.097-.405-.193-.724-.193-.724s-2.082-1.407-2.082-2.114a5.59 5.59 0 0 0-.143-1.053 8.733 8.733 0 0 0-.057-.257c.09.111.168.233.23.362 0 0 .622-1.52.77-2.128a.495.495 0 0 0 .027-.232 2.005 2.005 0 0 1-.037-.628c.145.163.257.327.22.445-.084.28 1.173 1.75 1.173 1.75z"/>
        <path fill="#53517C" d="M130.808 123.653c-.528-.057-2.674.347-3.92.347-1.248 0-1.84-.721-1.868-1.216-.028-.494-1.585-.663-1.866-.808-.124-.065-.156-.466-.154-.902 0-.555.06-1.183.06-1.329 0-.146.064-.671.122-1.133.05-.4.097-.746.097-.746 1.462-1.65 4.793-.435 4.793-.435s.142.458.257.971c.082.326.131.659.146.993 0 .667 2.117 1.998 2.117 1.998.143.451.26.91.351 1.373.085.49.1.914-.135.887z"/>
        <path fill="#000" d="M130.808 123.643c-.528-.057-2.674.357-3.92.357-1.244 0-1.837-.741-1.866-1.247-.028-.505-1.587-.682-1.868-.83-.124-.065-.156-.478-.154-.923.595.172 1.424.454 1.711.746.467.478.59 1.007.903 1.068.312.06.621.478 2.114.118.932-.223 2.31-.225 3.215-.194.085.498.1.932-.135.905z" opacity=".1"/>
        <path fill="#53517C" d="M136.94 118.303c-.542.588-.22 1.893-.22 1.893s.446 1.439 0 2.321c-.447.882-2.782 1.754-4.7 1.403a1.128 1.128 0 0 1-.872-.61c-.469-.944.328-2.591.328-2.591s.096-1.077.161-1.763c.038-.414-.134-1.29-.275-1.92a42.175 42.175 0 0 0-.171-.725s2.918-4.279 3.804-4.31a.394.394 0 0 1 .126.014c.642.16 1.736 1.61 2.373 2.527.303.439.506.756.506.756s-.513 2.418-1.06 3.005z"/>
        <path fill="#000" d="M136.92 118.578c-.555.56-.227 1.801-.227 1.801s.456 1.369 0 2.207c-.456.838-2.842 1.679-4.802 1.335a1.156 1.156 0 0 1-.891-.58c.565-.113 1.454-.258 2.85-.413 3.364-.374 2.482-2.485 2.482-2.485s-.392-1.492.098-2.238c.35-.53.812-2.254 1.052-3.205.313.416.518.718.518.718s-.523 2.301-1.08 2.86zM129 117.493c-.433-.604-1.716-1.768-4.302.507a1.445 1.445 0 0 1-.698-.283c.049-.426.094-.795.094-.795 1.42-1.757 4.656-.463 4.656-.463s.138.488.25 1.034z" opacity=".1"/>
        <path fill="#B3D7F7" d="M135 83.454v.134l-.066 2.209s-.292.76-.26.882c.034.12-.97 5.715-1.328 6.414-.359.699-.326 4.136-.326 4.136s.032 1.124-.456 1.824c-.487.7-.414 1.22-.316 1.71.08.395-.27 3.316-.613 4.595a1.54 1.54 0 0 1-.23.573.443.443 0 0 0-.08.14c-.465 1.129-1.67 8.098-1.67 8.098l-.024.317c-.02.336-.04.843.025.96.01.078 0 .157-.028.23-.157.603-.814 2.112-.814 2.112s-1.263-2.646-4.795.212c0 0-1.36-.122-.938-1.217.423-1.094.583-1.337.291-1.761-.292-.425.162-1.095.162-1.095a1.567 1.567 0 0 0-.065-.73c-.13-.455.293-1.55.293-1.55l.033-1.276.682-3.037.205-.915.212-.945 1.131-18.428.043-.686.317-5.174L134.028 80l.26 1.883.415.924.297.647z"/>
        <path fill="#000" d="M131.278 83.136l-4.386 2.853.163 2.497s.455 4.017.455 4.435c0 .419-.214 3.837-.214 3.837s1.094 1.61.978 2.009c-.115.4.94 1.497.94 1.497l1.805 3.413s.305 1.114.489 1.324c-.035.2-.108.392-.217.565-.363.359-1.638 8.122-1.638 8.122s-.011.132-.023.312c-.093-.082-.163-.132-.163-.132s-.88-1.44-.88-1.587c0-.149-.94-1.35-.94-1.35l-2.145-4.045-.502-.839.199-.932 1.397-23.946 7.16-1.169.244 1.856-6.52 1.64 3.798-.36z" opacity=".1"/>
        <path fill="#000" d="M134.921 83.81L127 87l.293-5.695L134.375 80l.241 2.072.384 1.017c-.048.412-.079.721-.079.721zM130.285 115.767c.01.078.001.158-.028.233-.123-.19-.197-.346-.178-.417.1-.278-.792-.925-.792-.925s-.956-1.479-.956-1.631c0-.152-1.025-1.387-1.025-1.387L125 107.547l.21-.926.216-.958L126.584 87l.069 1.577s.5 4.12.5 4.545c0 .425-.23 3.942-.23 3.942s1.188 1.655 1.064 2.065c-.125.41 1.023 1.539 1.023 1.539l1.98 3.512s.356 1.264.563 1.387c.18.214.33.448.447.696-.475 1.144-1.703 8.205-1.703 8.205s-.012.136-.024.32c-.034.347-.054.86.012.979zM136 113.587s-1.491 2.627-2.617 2.694c-.76.043-1.685.454-2.205.719a40.42 40.42 0 0 0-.178-.72s3.025-4.248 3.943-4.28a.425.425 0 0 1 .13.014v.016c.032.326.927 1.557.927 1.557z" opacity=".1"/>
        <path fill="#B3D7F7" d="M136 113.59s-1.392 2.465-2.444 2.527c-1.052.062-2.442.883-2.442.883s-1.27-1.462-1.178-1.735c.091-.273-.741-.914-.741-.914s-.898-1.462-.898-1.612c0-.15-.96-1.37-.96-1.37l-2.195-4.109s-3.68-6.09-3.773-6.455a1.201 1.201 0 0 0-.342-.577c-1.05-.854-1.02-2.65-1.082-2.74l-1.02-1.523-.093-2.557s-.588-1.4-.557-1.827c.032-.426-.31-1.49-.31-1.644 0-.154-.37-3.256-.4-3.378a38.22 38.22 0 0 1-.157-.792s.032-3.653-.214-3.958c-.136-.164-.18-1.025-.19-1.774-.01-.627 0-1.178 0-1.178L135.222 77s.113 1.022.178 2.045c.058.914.078 1.833-.053 2.034-.28.427-.498 2.345-.498 2.345l-8.228 2.922.091 2.222s.466 4.08.466 4.505c0 .425-.218 3.896-.218 3.896s1.113 1.635.997 2.04c-.116.406.957 1.521.957 1.521l1.856 3.471s.342 1.25.526 1.37c.185.121 1.024 1.922 1.024 1.922s1.236 1.859 1.236 1.98c0 .12.897 1.553.897 1.553s.65 1.004.68 1.308c.03.304.867 1.455.867 1.455z"/>
        <path fill="#000" d="M125 99s1.256 1.964 1.896 2c.64.035-1.896-2-1.896-2zM130 115.595s5.665-2.415 4.935-1.302c-.73 1.113-2.794 1.707-2.794 1.707l-2.141-.405zM125 115s2.651.284 3 1c0 0-2.825-.954-3-1zM124 116s3.02.2 4 1c0 0-3.2-.2-4-1z" opacity=".1"/>
        <path fill="#C37871" d="M100.648 64l-.836-.393-1.324-.621s-6.29-2.58-6.484-5.16c-.195-2.578 7.337 1.699 7.337 1.699.207.34.44.663.698.965.24.277.511.512.732.537.58.064-.123 2.973-.123 2.973zM134 49.7l-1.985 2.3-4.824-1.589-1.191-.95.761-1.008c.26-.345.34-.87.328-1.413 0-.121 0-.246-.016-.368a9.403 9.403 0 0 0-.341-1.797s6.87-1.745 6.38-.307a2.561 2.561 0 0 0-.114.925c.031.51.132 1.015.3 1.498.14.428.312.845.517 1.247L134 49.7z"/>
        <path fill="#000" d="M132.973 44.552a2.25 2.25 0 0 0-.126.903c-1.708 1.504-4.253 1.957-6.474 1.15a8.307 8.307 0 0 0-.373-1.753s7.507-1.698 6.973-.3z" opacity=".1"/>
        <path fill="#C37871" d="M134 41.5c0 .13 0 .262-.015.391a5.499 5.499 0 1 1-10.91-1.293 5.497 5.497 0 0 1 10.918.713c.005.062.007.126.007.188z"/>
        <path fill="#000" d="M134 49.703L132.015 52l-4.824-1.586-1.191-.948.761-1.008c.26-.344.34-.87.328-1.41l.22 1.684.052.053.315.315h.397l.765 1.038s1.099-.884 1.19-.672c.093.211 1.589-.366 1.589-.366h.057c1.355-.058 1.591-2.075 1.591-2.075s.021-.018.033-.025c.14.428.312.844.517 1.245l.185 1.458zM135 79.272c-.036.147-.075.29-.118.434C133.636 83.898 124.659 84 124.659 84l-.256-2.603-.858 1.758s-5.555-1.623-7.54-2.784c-.01-.696 0-1.308 0-1.308L134.818 77s.115 1.139.182 2.272zM101.405 64L100 63.552c.324-1.063.381-3.174.39-3.552.404.316.86.584 1.23.612.966.074-.215 3.388-.215 3.388z" opacity=".1"/>
        <path fill="#53517C" d="M135.591 70.748s1.333 4.736.153 8.453c-1.18 3.717-9.685 3.799-9.685 3.799l-.242-2.307-.813 1.56s-6.354-1.74-7.595-2.759c-1.24-1.019-.606-2.547-.606-2.547s.424-1.976.787-2.398c.362-.422.424-1.888.302-2.093-.122-.204.424-2.189.607-2.488.182-.3-.031-8.302-.031-8.302s-2.694 1.198-2.845 1.559c-.151.36-3.33 2.092-3.33 2.092s-2.995.36-3.54.36c-.544 0-3.542-.36-3.542-.36s-.812-.03-1.058-.21a3.14 3.14 0 0 0-.788-.33s-.845-.18-1.09-.508c-.243-.328-2.275-1.439-2.275-1.439.393-.24.424-3.38.424-3.38l3.843.929s.244-.51.606-.3c.363.21 2.574.385 2.574.385s1.846-.36 1.937-.211c.091.148.363.12.363.12s.364-.03.364-.147c0-.118.325.027.325.027l.606.09s-.09-.777.182-.837a.397.397 0 0 0 .301-.33s.813-1.078 1.211-1.078c.398 0 .666-1.079.666-1.079l1.454-1.468s-.182-.75 0-.78c.182-.031.21-.36.21-.36s.061-.658.394-.805c.334-.146.514-1.017.514-1.017s1.543-1.708 1.665-2.308c.122-.6.757-.72.757-.72.344-.22.722-.384 1.118-.483.516-.09 1.878-.241 1.878-.241s2.48-.208 2.724-.483c.244-.275.665-.242.937-.242a.312.312 0 0 0 .162-.06c.246-.15.538-.572.83-.838.363-.33.999-.18.999-.18l.273 2.068.05.05.313.31h.393l.757 1.02s1.09-.87 1.18-.66c.092.21 1.574-.36 1.574-.36h.057c1.343-.057 1.577-2.035 1.577-2.035.666-.572 1.242 1.828 1.242 1.828l.21.111c.425.235 1.368.773 1.483 1.027.152.322 1.847 1.317 1.847 1.317l-2.409 19.038z"/>
        <path fill="#C37871" d="M136 79.027l-.895.73-1.013.825s-1.879 4.452-4.452 3.194c-2.574-1.258 3.448-5.915 3.448-5.915l.833-.41.922-.451L136 79.027z"/>
        <path fill="#000" d="M127 49.493c-.867.446-1.96 1.507-1.96 1.507l-.04-2.78c.228-.178.499-.666.77-.976.336-.373.926-.207.926-.207l.253 2.398.051.058z" opacity=".1"/>
        <path fill="#E6EAED" d="M127 48.49c-.869.448-1.964 1.51-1.964 1.51L125 47.223c.228-.176.5-.666.772-.974.337-.384.927-.21.927-.21l.254 2.403.047.049z"/>
        <path fill="#000" d="M134 49.404c-.46 1.462-1.034 3.08-1.137 2.46-.124-.735-1.204-1.773-1.863-2.348 1.33-.065 1.562-2.412 1.562-2.412.66-.676 1.23 2.168 1.23 2.168l.208.132z" opacity=".1"/>
        <path fill="#E6EAED" d="M134 49.404c-.46 1.462-1.034 3.08-1.137 2.46-.124-.735-1.204-1.773-1.863-2.347 1.33-.067 1.562-2.413 1.562-2.413.66-.677 1.23 2.168 1.23 2.168l.208.132z"/>
        <path fill="#000" d="M127 97.237s4.177-.724 3.994.36c-.183 1.083-3.994-.36-3.994-.36zM122 86s1.588-1.462 3-.85l-3 .85zM120 84.055s2.183-.336 3 .03l-3-.03zM130 88s-2.126 2.365-1.994 3L130 88zM111.024 61s-.387 1.412 1.976 2l-1.976-2zM110 63s3.045 1.94 1.62 1.999C110.196 65.058 110 63 110 63zM115 55s3.201 1.587 2.99 1.96C117.779 57.333 115 55 115 55zM136 78.206l-.863.794c-.18-.706-.553-1.889-1.137-2.509l.89-.491 1.11 2.206z" opacity=".1"/>
        <path fill="#53517C" d="M136.88 52.741l1.227-.741s1.41.207 1.595 3.028c.185 2.82 1.474 8.456 1.474 8.456l.705 6.258s.246 1.188.031 1.78a6.34 6.34 0 0 0-.33 1.068c-.03.209-1.718 1.218-1.687 2.523.032 1.305-2.142 2.521-2.142 2.521s-1.412.797-1.872 1.366c0 0-.523-2.375-1.656-2.967-1.134-.593 2.392-5.31 2.392-5.31l.262-17.982z"/>
        <path fill="#000" d="M135 71s-4.34 1.469-3.979 1.94C131.383 73.41 135 71 135 71zM135 73s-2.17.735-1.99.97c.18.234 1.99-.97 1.99-.97zM133 74s-2.17.735-1.99.97c.18.234 1.99-.97 1.99-.97z" opacity=".1"/>
        <path fill="#6C63FF" d="M95 35v46h46c-.21-25.406-20.712-45.948-46-46z"/>
        <path fill="#000" d="M95 35v46h46c-.21-25.406-20.712-45.948-46-46z" opacity=".1"/>
        <path fill="#6C63FF" d="M95 33v46h46c-.21-25.408-20.712-45.95-46-46z"/>
        <path fill="#C37871" d="M129.064 81.222a1.09 1.09 0 0 1 .246-.702c.164-.14.368-.24.591-.29.197-.056.396-.11.595-.162.155-.045.316-.068.48-.068.33.011.617.19.883.36a.35.35 0 0 1 .126.116c.06.12-.069.245-.186.325a8.9 8.9 0 0 1-1.322.85c-.33.162-.77.346-1.158.349-.478.011-.286-.476-.255-.778z"/>
        <path fill="#000" d="M134 41.302c0 .127 0 .253-.015.378a.768.768 0 0 1-.072.041c-.093.033-.183.071-.27.116-.268.175-.208.558-.183.868.038.449-.059.898-.279 1.295a.474.474 0 0 1-.425-.386c-.03-.2-.038-.403-.026-.605-.026-.541-.328-1.023-.525-1.533-.365-.975-.284-2.055-.527-3.062-.07-.298-.186-.614-.448-.791-.348-.23-.83-.13-1.205.058-.374.189-.709.464-1.114.582-.625.182-1.29-.038-1.912-.224-.622-.187-1.326-.345-1.907-.059-.61.302-.884.99-1.071 1.629-.062.175-.091.36-.087.544.011.158.075.324.07.49 0 .354-.313.633-.435.968-.075.207-.057.718-.369.715a.204.204 0 0 1-.1-.03 5.057 5.057 0 0 1-.025-1.864c.462-2.687 2.962-4.598 5.782-4.42 2.82.177 5.04 2.384 5.136 5.105.005.064.007.125.007.185z" opacity=".1"/>
        <path fill="#4B3E3C" d="M121.417 40.151c-.02-.51.381-.989.29-1.492-.072-.395-.426-.681-.597-1.045a1.235 1.235 0 0 1 .207-1.335c.134-.145.303-.26.432-.408.257-.298.327-.698.45-1.069.122-.37.327-.758.708-.885.41-.136.89.086 1.286-.087a.321.321 0 0 0 .202-.209.715.715 0 0 0-.022-.21c-.028-.282.249-.502.514-.626 1.21-.565 2.639-.296 3.95-.016a2.438 2.438 0 0 1 .057-.769c.828.089 1.719.206 2.317.763.371.347.579.819.818 1.255.238.437.565.876 1.044 1.058.157.037.304.105.432.2a.787.787 0 0 1 .164.265l.314.75a.825.825 0 0 0 .143.251c.084.074.177.137.277.188.608.385.698 1.232.508 1.913-.19.68-.585 1.296-.736 1.987-.088.406-.139.904-.523 1.089a2.26 2.26 0 0 0-.27.117c-.266.174-.207.557-.181.867.038.45-.058.9-.276 1.297a.471.471 0 0 1-.424-.386c-.03-.201-.039-.404-.028-.607-.026-.541-.327-1.024-.523-1.534-.363-.976-.283-2.058-.523-3.066-.072-.3-.188-.614-.45-.792-.346-.232-.827-.133-1.2.059-.373.191-.705.462-1.108.58-.623.181-1.286-.036-1.907-.226s-1.32-.343-1.898-.056c-.608.302-.88.992-1.066 1.63-.062.175-.093.36-.09.545.013.158.075.326.072.49 0 .357-.313.634-.434.97-.075.208-.057.718-.367.716-.236 0-.475-.516-.59-.666-.356-.458-.947-.88-.972-1.506z"/>
        <g fill="#000" opacity=".1">
            <path d="M121.817 39.1c-.076-.398-.448-.686-.63-1.054a1.13 1.13 0 0 1-.1-.33c-.037.234-.002.472.1.687.173.365.544.651.627 1.042a.96.96 0 0 0 .003-.344zM124.652 34.01a.12.12 0 0 0 0-.026.375.375 0 0 0-.021.075.176.176 0 0 0 .02-.05zM129.336 33.15v-.036V33.15zM135.741 39.085c-.198.688-.617 1.312-.775 2.008-.094.413-.147.913-.552 1.102a2.742 2.742 0 0 0-.285.117c-.232.147-.229.438-.205.714a.459.459 0 0 1 .205-.356c.092-.045.187-.084.285-.118.405-.187.458-.69.552-1.1.158-.698.577-1.32.775-2.009.08-.269.11-.549.087-.827a2.354 2.354 0 0 1-.087.469zM133.647 44.5a.49.49 0 0 1-.447-.39 2.922 2.922 0 0 1-.03-.614c-.027-.546-.344-1.035-.551-1.549-.383-.987-.298-2.08-.552-3.099-.076-.302-.198-.62-.474-.8-.365-.234-.872-.133-1.265.06-.394.191-.744.468-1.17.586-.656.184-1.355-.036-2.01-.227-.655-.19-1.391-.349-2.001-.057-.642.305-.928 1.003-1.125 1.646a1.527 1.527 0 0 0-.094.552c0 .037.01.075.017.112a2.28 2.28 0 0 1 .077-.306c.197-.64.483-1.342 1.125-1.648.61-.29 1.348-.132 2.001.058.654.19 1.354.411 2.01.229.426-.12.776-.395 1.17-.587.393-.192.9-.295 1.265-.06.276.175.398.493.474.8.254 1.023.173 2.112.552 3.1.198.515.517 1.003.552 1.55a2.9 2.9 0 0 0 .029.613.49.49 0 0 0 .447.39c.228-.398.33-.849.293-1.299-.027.329-.127.65-.293.94zM123.547 42.086c-.08.21-.06.725-.388.724-.249 0-.5-.52-.623-.672-.345-.434-.907-.832-1.008-1.39a1.059 1.059 0 0 0-.016.22c.026.632.65 1.06 1.024 1.526.123.16.374.672.623.674.327 0 .308-.514.388-.723.127-.34.448-.621.456-.981a.912.912 0 0 0-.024-.205c-.074.29-.32.538-.432.827z"/>
        </g>
        <path fill="#6C63FF" d="M17 73h1v1h-1z"/>
        <path fill="#000" d="M17 73h1v1h-1z" opacity=".25"/>
        <path fill="#6C63FF" d="M62 26h1v1h-1z"/>
        <path fill="#000" d="M62 26h1v1h-1z" opacity=".25"/>
        <path fill="#FFF" d="M64 72.985V27h-.097C38.126 27 17.209 47.56 17 73l47-.015z" opacity=".2"/>
        <path fill="#6C63FF" d="M64 72.985V27h-.097C38.126 27 17.209 47.56 17 73l47-.015z"/>
        <path fill="#000" d="M64 72.985V27h-.097C38.126 27 17.209 47.56 17 73l47-.015z" opacity=".25"/>
        <path fill="#6C63FF" d="M63 71.985V26h-.097C37.126 26 16.209 46.56 16 72l47-.015z"/>
        <path fill="#000" d="M63 71.985V26h-.097C37.126 26 16.209 46.56 16 72l47-.015z" opacity=".15"/>
        <path fill="#6C63FF" d="M97.264 111l.736.69V113l-1-.23z"/>
        <path fill="#000" d="M97.264 111l.736.69V113l-1-.23z" opacity=".1"/>
        <path fill="#6C63FF" d="M32.295 111.093l-.295.078V112l1-.192-.246-.808z"/>
        <path fill="#000" d="M32.295 111.093l-.295.078V112l1-.192-.246-.808z" opacity=".1"/>
        <path fill="#6C63FF" d="M64.594 80L31 112.228A46.409 46.409 0 0 0 63.995 126 46.409 46.409 0 0 0 97 112.254L64.594 80z"/>
        <path fill="#6C63FF" d="M64.594 78L31 110.228A46.409 46.409 0 0 0 63.995 124 46.409 46.409 0 0 0 97 110.254L64.594 78z"/>
        <path fill="#000" d="M64.594 78L31 110.228A46.409 46.409 0 0 0 63.995 124 46.409 46.409 0 0 0 97 110.254L64.594 78z" opacity=".1"/>
        <path fill="#6C63FF" d="M64.594 80L31 112.228A46.409 46.409 0 0 0 63.995 126 46.409 46.409 0 0 0 97 112.254L64.594 80z"/>
        <path fill="#3ACC6C" d="M61 77.216L62.746 76l.254.517L61.008 78z"/>
        <path fill="#000" d="M61 77.216L62.746 76l.254.517L61.008 78z" opacity=".1"/>
        <path fill="#FF748E" d="M60.666 76.433L61.838 76l.162.324L60 77z"/>
        <path fill="#000" d="M60.666 76.433L61.838 76l.162.324L60 77z" opacity=".1"/>
        <path fill="#5E5A6B" d="M60.81 75.125L62 75v.597L60 76l.179-.773z"/>
        <path fill="#000" d="M60.81 75.125L62 75v.597L60 76l.179-.773z" opacity=".1"/>
        <path fill="#5E5A6B" d="M63 75L18.055 85A44.189 44.189 0 0 1 17 75.382V75h46z"/>
        <path fill="#000" d="M63 75L18.055 85A44.189 44.189 0 0 1 17 75.382V75h46z" opacity=".1"/>
        <path fill="#5E5A6B" d="M63 76L18.055 86A44.189 44.189 0 0 1 17 76.382V76h46z"/>
        <path fill="#FF748E" d="M18 87.38A46.065 46.065 0 0 0 22.797 100L64 77 18 87.38z"/>
        <path fill="#000" d="M18 87.38A46.065 46.065 0 0 0 22.797 100L64 77 18 87.38z" opacity=".1"/>
        <path fill="#FF748E" d="M18 87.38A46.065 46.065 0 0 0 22.797 100L64 77 18 87.38z"/>
        <path fill="#3ACC6C" d="M61.916 77L22 99.82l.02.037A46.41 46.41 0 0 0 29.487 110L62 77h-.084z"/>
        <path fill="#000" d="M61.916 77L22 99.82l.02.037A46.41 46.41 0 0 0 29.487 110L62 77h-.084z" opacity=".1"/>
        <path fill="#3ACC6C" d="M61.916 77L22 99.82l.02.037A46.41 46.41 0 0 0 29.487 110L62 77h-.084z"/>
    </g>
</svg>
