<?xml version="1.0" encoding="UTF-8"?>
<svg width="10px" height="10px" viewBox="0 0 10 10" version="1.1" xmlns="http://www.w3.org/2000/svg" xmlns:xlink="http://www.w3.org/1999/xlink">
    <!-- Generator: sketchtool 51.3 (57544) - http://www.bohemiancoding.com/sketch -->
    <title>CC8A53E3-BD54-4901-943E-02F17BC5E136</title>
    <desc>Created with sketchtool.</desc>
    <defs></defs>
    <g id="Employee-Information" stroke="none" stroke-width="1">
        <g id="Organization-chart-[search]" transform="translate(-1162.000000, -879.000000)" >
            <g id="zoom-button" transform="translate(1147.000000, 864.000000)">
                <g id="plus" transform="translate(15.000000, 15.000000)">
                    <path d="M9.58333333,4.16666667 L6.04166667,4.16666667 C5.91666667,4.16666667 5.83333333,4.08333333 5.83333333,3.95833333 L5.83333333,0.416666667 C5.83333333,0.166666667 5.66666667,0 5.41666667,0 L4.58333333,0 C4.33333333,0 4.16666667,0.166666667 4.16666667,0.416666667 L4.16666667,3.95833333 C4.16666667,4.08333333 4.08333333,4.16666667 3.95833333,4.16666667 L0.416666667,4.16666667 C0.166666667,4.16666667 0,4.33333333 0,4.58333333 L0,5.41666667 C0,5.66666667 0.166666667,5.83333333 0.416666667,5.83333333 L3.95833333,5.83333333 C4.08333333,5.83333333 4.16666667,5.91666667 4.16666667,6.04166667 L4.16666667,9.58333333 C4.16666667,9.83333333 4.33333333,10 4.58333333,10 L5.41666667,10 C5.66666667,10 5.83333333,9.83333333 5.83333333,9.58333333 L5.83333333,6.04166667 C5.83333333,5.91666667 5.91666667,5.83333333 6.04166667,5.83333333 L9.58333333,5.83333333 C9.83333333,5.83333333 10,5.66666667 10,5.41666667 L10,4.58333333 C10,4.33333333 9.83333333,4.16666667 9.58333333,4.16666667 Z" id="Shape"></path>
                </g>
            </g>
        </g>
    </g>
</svg>