<?xml version="1.0" encoding="UTF-8"?>
<svg width="26px" height="24px" viewBox="0 0 26 24" version="1.1" xmlns="http://www.w3.org/2000/svg" xmlns:xlink="http://www.w3.org/1999/xlink">
    <!-- Generator: sketchtool 52 (66869) - http://www.bohemiancoding.com/sketch -->
    <title>B1A2BFA6-CBFC-42FD-9EEF-DF8356051F3D</title>
    <desc>Created with sketchtool.</desc>
    <g id="Employee-Information" stroke="none" stroke-width="1" fill="none" fill-rule="evenodd">
        <g id="Setting" transform="translate(-165.000000, -338.000000)" fill="#4466A3" fill-rule="nonzero">
            <g id="employee" transform="translate(96.000000, 312.000000)">
                <g id="profile" transform="translate(69.000000, 26.000000)">
                    <path d="M13,14 C16.8650557,14 20,10.8601998 20,6.98926095 C20,3.11832213 16.8650093,0 13,0 C9.13499068,0 6,3.13980023 6,6.98926095 C6,10.8387217 9.13494427,14 13,14 Z M13,1.8279627 C15.8343402,1.8279627 18.1533922,4.15052599 18.1533922,6.98926095 C18.1533922,9.82799591 15.8343402,12.1505127 13,12.1505127 C10.1656598,12.1505127 7.84660783,9.82794942 7.84660783,6.98921446 C7.84660783,4.1504795 10.1656134,1.8279627 13,1.8279627 Z" id="Shape"></path>
                    <path d="M0.917888646,24 L25.0821114,24 C25.5944234,24 26,23.6216874 26,23.1438144 C26,18.6637221 22.0936088,15 17.2692828,15 L8.73071721,15 C3.92775678,15 0,18.6437928 0,23.1438144 C0,23.6216874 0.405576558,24 0.917888646,24 Z M8.73071721,16.7123713 L17.2692828,16.7123713 C20.7700974,16.7123713 23.6518645,19.1415952 24.1001722,22.2875857 L1.89982784,22.2875857 C2.34808938,19.1615245 5.22990256,16.7123713 8.73071721,16.7123713 Z" id="Shape"></path>
                </g>
            </g>
        </g>
    </g>
</svg>