<?xml version="1.0" encoding="UTF-8"?>
<svg width="38px" height="38px" viewBox="0 0 38 38" version="1.1" xmlns="http://www.w3.org/2000/svg" xmlns:xlink="http://www.w3.org/1999/xlink">
    <!-- Generator: sketchtool 51.3 (57544) - http://www.bohemiancoding.com/sketch -->
    <title>0FA6E7C8-69C4-467C-86B0-8F554AB39AF1</title>
    <desc>Created with sketchtool.</desc>
    <defs></defs>
    <g id="Employee-Information" stroke="none" stroke-width="1" fill="none" fill-rule="evenodd">
        <g id="Menu-switch" transform="translate(-33.000000, -808.000000)" fill="#032C5C" fill-rule="nonzero">
            <g id="request" transform="translate(33.000000, 808.000000)">
                <path d="M18.9994933,0 C8.50648338,0 0,8.50706 0,18.99962 C0,29.49218 8.50648338,38 18.9994933,38 C29.4925033,38 38,29.4926867 38,18.99962 C38,8.50655333 29.4925033,0 18.9994933,0 Z M28.0316469,13.6730333 L26.2270148,15.4776533 L22.5535304,11.8044467 L21.1599344,13.1980333 L24.8334189,16.8714933 L15.8233055,25.8807867 L12.1500743,22.20796 L10.7564784,23.6015467 L14.4297095,27.2747533 L13.5318902,28.1725667 L13.5147901,28.1554667 C13.4152294,28.3193733 13.2533484,28.4389467 13.0610671,28.4816333 L9.63559757,29.2454333 C9.58429723,29.25696 9.53211021,29.2625333 9.48055654,29.2625333 C9.29359529,29.2625333 9.11195408,29.18894 8.97730652,29.0539133 C8.80453203,28.8817733 8.73258488,28.6331267 8.78578524,28.3948667 L9.54921033,24.9704333 C9.59227728,24.77828 9.71210475,24.61602 9.87575917,24.5167133 L9.85840572,24.49936 L24.3580357,9.99919333 C24.5705838,9.78702667 24.9158794,9.78702667 25.1284275,9.99982667 L28.0319002,12.9026467 C28.2444483,13.1151933 28.2444483,13.4604867 28.0316469,13.6730333 Z" id="Shape"></path>
            </g>
        </g>
    </g>
</svg>