<?xml version="1.0" encoding="UTF-8"?>
<svg width="20px" height="20px" viewBox="0 0 20 20" version="1.1" xmlns="http://www.w3.org/2000/svg" xmlns:xlink="http://www.w3.org/1999/xlink">
    <!-- Generator: sketchtool 52 (66869) - http://www.bohemiancoding.com/sketch -->
    <title>2D85041A-3364-4EB0-A3A9-1AC433851553</title>
    <desc>Created with sketchtool.</desc>
    <g id="Employee-Information" stroke="none" stroke-width="1" >
        <g id="Appointment-mode" transform="translate(-460.000000, -91.000000)" >
            <g id="sub-menu" transform="translate(-3.000000, 72.000000)">
                <g id="resign" transform="translate(463.000000, 19.000000)">
                    <path d="M13.9837398,4.47504132 L13.9837398,1.05355372 C13.9837398,0.508099174 13.544878,0.0618181818 13.0081301,0.0618181818 L0.975609756,0.0618181818 C0.43902439,0.0618181818 0,0.508099174 0,1.05355372 L0,1.69818182 L0,14.6238017 L0,15.0702479 C0,15.433719 0.211382114,15.7808264 0.520325203,15.9461157 L7.93495935,19.8471074 C8.2601626,20.0123967 8.6504065,19.781157 8.6504065,19.4008264 L8.6504065,15.5991736 L13.0081301,15.5991736 C13.544878,15.5991736 13.9837398,15.1530579 13.9837398,14.607438 L13.9837398,9.18595041 L12.0325203,9.18595041 L12.0325203,13.1198347 C12.0325203,13.4008264 11.8211382,13.6157025 11.5447154,13.6157025 L8.66666667,13.6157025 L8.66666667,8.52479339 L8.66666667,5.30165289 L8.66666667,5.20247934 C8.66666667,4.83884298 8.45528455,4.49173554 8.14634146,4.32644628 L3.77235772,2.04545455 L11.5447154,2.04545455 C11.8211382,2.04545455 12.0325203,2.26033058 12.0325203,2.54132231 L12.0325203,4.49173554 L13.9837398,4.49173554 L13.9837398,4.47504132 Z" id="Shape"></path>
                    <path d="M16.4878049,2.85504132 L19.6585366,6.07818182 C20.0650407,6.49140496 20.0650407,7.10297521 19.6585366,7.51619835 L16.4878049,10.7393388 C16.0813008,11.152562 15.463252,11.1692562 15.056748,10.7560331 C14.6666667,10.3595041 14.7152846,9.69818182 15.0894309,9.3014876 L16.5201626,7.86347107 L10.9756098,7.86347107 C10.6993496,7.86347107 10.4227642,7.7477686 10.2439024,7.53289256 C9.78861789,7.03702479 9.90243902,6.16099174 10.4878049,5.83041322 C10.6341463,5.7477686 10.8130081,5.69818182 10.9756098,5.69818182 L16.5203252,5.69818182 C16.5203252,5.69818182 15.1058537,4.26016529 15.0895935,4.26016529 C14.7154472,3.88 14.6666667,3.20231405 15.0569106,2.82214876 C15.4471545,2.42545455 16.0813008,2.44181818 16.4878049,2.85504132 Z" id="Shape"></path>
                </g>
            </g>
        </g>
    </g>
</svg>