<svg xmlns="http://www.w3.org/2000/svg" width="200" height="150" viewBox="0 0 200 150">
    <defs>
        <linearGradient id="a" x1="50%" x2="50%" y1="100.005%" y2="-.003%">
            <stop offset="0%" stop-color="gray" stop-opacity=".25"/>
            <stop offset="54%" stop-color="gray" stop-opacity=".12"/>
            <stop offset="100%" stop-color="gray" stop-opacity=".1"/>
        </linearGradient>
        <linearGradient id="b" x1="49.998%" x2="49.998%" y1="100.012%" y2="0%">
            <stop offset="0%" stop-color="gray" stop-opacity=".25"/>
            <stop offset="54%" stop-color="gray" stop-opacity=".12"/>
            <stop offset="100%" stop-color="gray" stop-opacity=".1"/>
        </linearGradient>
        <linearGradient id="c" x1="49.996%" x2="49.996%" y1="100%" y2="0%">
            <stop offset="0%" stop-color="gray" stop-opacity=".25"/>
            <stop offset="54%" stop-color="gray" stop-opacity=".12"/>
            <stop offset="100%" stop-color="gray" stop-opacity=".1"/>
        </linearGradient>
        <linearGradient id="d" x1="50.002%" x2="50.002%" y1="100.027%" y2="-.002%">
            <stop offset="0%" stop-color="gray" stop-opacity=".25"/>
            <stop offset="54%" stop-color="gray" stop-opacity=".12"/>
            <stop offset="100%" stop-color="gray" stop-opacity=".1"/>
        </linearGradient>
    </defs>
    <g fill="none" fill-rule="evenodd" transform="translate(4 19)">
        <path fill="#6C63FF" d="M27.964.013c-1.488-.043-3.014 0-4.41.43-3.8 1.174-5.6 5.013-5.015 8.33.585 3.318 2.994 6.209 5.493 8.85 2.5 2.642 5.207 5.254 6.577 8.412.684 1.576 1.003 3.342.309 4.916-1.071 2.426-4.302 3.781-7.403 4.064-3.101.282-6.215-.268-9.328-.452-1.306-.076-2.648-.085-3.878.27-1.35.386-2.475 1.175-3.51 1.997C2.763 40.057-.467 44.458.056 49.083c.59 5.24 5.862 9.382 11.636 11.605 1.912.742 3.934 1.332 5.617 2.383 4.433 2.772 5.428 7.97 4.987 12.557-.442 4.588-1.945 9.18-1.108 13.727.984 5.289 5.341 10.067 11.218 12.299 5.237 1.988 11.79 1.856 16.44-.949 2.265-1.37 3.98-3.273 5.47-5.24a42.332 42.332 0 0 0 5.44-9.468c.648-1.577 1.257-3.272 2.77-4.367.924-.674 2.12-1.05 3.304-1.344 3.569-.884 7.328-1.125 10.93-1.912 3.601-.787 7.225-2.26 9.183-4.877 2.77-3.713 1.478-8.47 1.49-12.835.023-9.962 7.224-18.879 9.882-28.59.868-3.173 1.191-6.683-.748-9.514-1.317-1.922-3.539-3.308-5.874-4.38-5.136-2.355-10.975-3.404-16.717-4.425-7.981-1.419-17.673-1.602-23.858-6.192C44.18 3.156 36.06.013 27.964.013z" opacity=".2"/>
        <ellipse cx="105.5" cy="90" fill="#F5F5F5" rx="86.5" ry="23"/>
        <path fill="#6C63FF" d="M177.717 34s-6.924 6.682-3.014 16.597C178.613 60.512 168 77 168 77s.114-.017.325-.052c14.222-2.424 21.29-18.118 13.382-29.779-2.94-4.334-5.354-9.413-3.99-13.169z"/>
        <path stroke="#535461" stroke-width="2" d="M177.442 34s-3.8 8.19 0 14.872c3.799 6.681.651 25.433-9.442 28.128"/>
        <path fill="#6C63FF" d="M190 60.084s-7.632-1.216-8.326 5.623C180.98 72.547 167 73.495 167 73.495l.261.173c11.542 7.576 22.584 4.827 20.904-5.226-.61-3.748-.56-7.505 1.835-8.358z"/>
        <path fill="#F5F5F5" d="M190 60.084s-7.632-1.216-8.326 5.623C180.98 72.547 167 73.495 167 73.495l.261.173c11.542 7.576 22.584 4.827 20.904-5.226-.61-3.748-.56-7.505 1.835-8.358z" opacity=".2"/>
        <path stroke="#535461" stroke-width="2" d="M190 61s-5.924 1.283-5.437 6.566c.487 5.282-8.796 11.63-17.563 6.598"/>
        <path fill="url(#a)" fill-rule="nonzero" d="M171.943 78.176h-11.938a3.984 3.984 0 0 0 .416-1.78V22c0-2.208-1.79-3.999-3.998-3.999H64a3.996 3.996 0 0 0-3.999 4v54.398a3.984 3.984 0 0 0 .416 1.78h-12.36c-.584 0-1.057.473-1.057 1.058v.853A5.915 5.915 0 0 0 52.913 86h114.174A5.915 5.915 0 0 0 173 80.084v-.854a1.058 1.058 0 0 0-1.057-1.054zm-73.57 3.384l-1.02-1.162h25.408l-1.133 1.164-23.256-.002z"/>
        <rect width="98" height="61" x="61" y="18" fill="#535461" rx="5"/>
        <path fill="#FFF" d="M62 28h94v49H62z"/>
        <circle cx="109" cy="23" r="1" fill="#FFF"/>
        <path fill="#535461" d="M125.07 78l-3.22 3.027H99.149L96.239 78H50.033c-.57 0-1.032.424-1.032.946v.762C49 82.631 51.585 85 54.773 85h111.454c3.188 0 5.773-2.37 5.773-5.292v-.762c0-.522-.462-.946-1.032-.946H125.07z"/>
        <path fill="url(#b)" d="M92.357 29H52.643A3.63 3.63 0 0 0 49 32.616v54.768A3.63 3.63 0 0 0 52.643 91h39.714A3.63 3.63 0 0 0 96 87.384V32.616A3.63 3.63 0 0 0 92.357 29z"/>
        <rect width="45" height="60" x="50" y="30" fill="#535461" rx="5"/>
        <path fill="#FFF" d="M52 36h41v49H52z"/>
        <circle cx="73.5" cy="33.5" r="1" fill="#FFF"/>
        <circle cx="72.5" cy="87.5" r="1.5" fill="#FFF"/>
        <path fill="url(#c)" d="M62.933 47H42.067a2.104 2.104 0 0 0-1.46.58A1.952 1.952 0 0 0 40 48.984v44.032c.001.527.22 1.032.607 1.404.388.372.913.581 1.46.58h20.866a2.104 2.104 0 0 0 1.46-.58c.388-.372.606-.877.607-1.404V48.984a1.952 1.952 0 0 0-.607-1.404 2.104 2.104 0 0 0-1.46-.58z"/>
        <rect width="23" height="48" x="41" y="47" fill="#535461" rx="5"/>
        <path fill="#FFF" d="M42 52h20v39H42z"/>
        <circle cx="49.5" cy="49.5" r="1" fill="#FFF"/>
        <rect width="4" height="1" x="50" y="49" fill="#FFF" rx=".5"/>
        <circle cx="51" cy="93" r="1" fill="#FFF"/>
        <path stroke="#535461" stroke-width="2" d="M37.705 99s-1.79-8.456.336-14.684c.905-2.603 1.18-5.545.78-8.383A29.369 29.369 0 0 0 37.97 72"/>
        <path fill="#6C63FF" d="M40 68.904C40 69.955 38.5 73 38.5 73S37 69.953 37 68.904c0-1.051.672-1.904 1.5-1.904s1.5.853 1.5 1.904zM42.66 74.336C42.115 75.312 39 77 39 77s.057-3.979.603-4.955c.34-.67.969-1.072 1.64-1.044.67.028 1.273.48 1.57 1.177a2.392 2.392 0 0 1-.152 2.158zM43.935 83.799c-1.026.37-4.935.115-4.935.115s2.038-2.41 3.061-2.781c1.016-.33 2.213-.026 2.716.69.502.714.13 1.586-.842 1.977V83.8zM42.182 91.154C41.192 91.737 37 92 37 92s1.543-3.118 2.533-3.701c.99-.526 2.322-.34 3.03.422.707.762.54 1.833-.381 2.433z"/>
        <path fill="#6C63FF" d="M36.524 76.763C37.145 77.369 40 78 40 78s-.7-2.893-1.315-3.5a1.535 1.535 0 0 0-1.533-.447c-.552.15-.98.598-1.11 1.165a1.598 1.598 0 0 0 .482 1.546v-.001zM33.193 84.803c1 .364 4.807.113 4.807.113s-1.985-2.365-2.982-2.73a2.706 2.706 0 0 0-2.077.043c-.63.289-.989.804-.936 1.342.053.538.509 1.011 1.188 1.233v-.001zM31.818 93.154C32.808 93.737 37 94 37 94s-1.543-3.118-2.533-3.701c-.99-.526-2.322-.34-3.03.422-.707.762-.54 1.833.381 2.433z"/>
        <path fill="url(#d)" fill-rule="nonzero" d="M184 72.12c-2.045-2.491-4.523-5.354-4.175-8.668.28-2.685-.392-5.166-.26-7.86.186-3.827-.58-6.822-3.325-9.275-1.603-1.433-4.284-2.56-5.082-2.272-1.582.568-3.307.35-4.935.742-1.236.29-2.058.742-2.568 1.299-1.025.927-1.042 2.225-.575 3.607a6.115 6.115 0 0 0-.397 4.945 6.083 6.083 0 0 0 3.396 3.603c-1.14.479-2.125 1.58-2.509 3.817a26.179 26.179 0 0 1-1.206 4.51c-.241.113-.488.213-.74.298.056.023.113.038.169.058-.12.046-.239.093-.37.134.219.085.444.151.675.196-1.478 3.749-3.326 6.071-3.326 6.071s-3.446.765-4.785-.573c0 0 .218.256.514.64-1.31-.545-3.46-1.436-5.3-2.168-1.333-.533-1.675 0-1.662.742-.326.04-.64.147-.924.311a8.98 8.98 0 0 0-1.236-.667c-.765-.186-3.253-1.529-5.742 3.055-1.448 2.665-5.162 7.53-8.016 11.13-5.552 2.563-12.78 5.809-15.466 6.625h-1.722c-.225-.37-.382-.605-.382-.605l-.133.09-.058-.09s-3.38 2.35-6.813 2.37a6.442 6.442 0 0 1-1.449-.186c-1.578-.399-2.69-.577-3.484-.557-.94-.016-1.478.208-1.803.631a2.052 2.052 0 0 0-.305.57.432.432 0 0 0 .107.361c.046.065.096.127.15.186l.096.104c.432.448 1.22 1.044 2.198 1.708.283.185.582.39.894.592l.594.37.53.333.212.131.237.145.423.258.251.152.475.284.384.228c1.005.595 2.007 1.172 2.91 1.684l.632.379.06.033.407.228.702.392.483.267.225.124.242.134.048.026.421.23c.176.03.355-.02.492-.134.122-.52.42-1.632.739-1.718.32-.085 1.703-2.513 2.093-4.138h3.736a16.406 16.406 0 0 0 2.187-.338c-.964.69-1.92 1.124-2.662.939-1.57-.391-3.058.57-3.207 1.517 0 .02-.013.04-.019.06-.005.02-.01.039-.013.057l-.015.07c-.003.025 0 .04 0 .06v.256c0 .019.011.05.019.076.007.026 0 .033.013.048a.93.93 0 0 0 .04.099l.01.024c.02.04.044.08.07.117l.03.038a.784.784 0 0 0 .06.077l.043.042.07.067.052.043.083.06.06.042.1.059.067.035.126.06.063.027c.066.028.136.054.212.078.12.04.262.08.423.12l.16.04.236.054.123.028c.16.034.33.069.51.103l.25.047.203.037.467.081c.292.05.597.1.924.149l.806.122 1.049.15.233.032.37.052.54.072.37.049.959.122.3.037.603.074c.795.097 1.563.186 2.271.266l.819.092.413.047.185.018.495.054.276.03.34.035.478.05h.052l.306.032a.278.278 0 0 0 .309-.273v-.032a.272.272 0 0 0 .044-.144 6.33 6.33 0 0 1 .172-1.358c.02-.076.044-.154.07-.232l.03-.09c.033-.094.066-.185.105-.287.028-.069.052-.14.072-.211 0-.022.013-.045.02-.069.008-.024.019-.076.026-.115.385-1.319-.079-3.778-.212-4.745a5.169 5.169 0 0 0-.21-.909.368.368 0 0 0 .071 0c.199-.073.385-.175.555-.302 2.823-1.01 5.202-2.166 5.954-3.324a5.138 5.138 0 0 1 3.636.382c1.462.73 12.517 4.352 17.664 6.025.924.8 1.648 1.267 2.05 1.232 0 0 6.552 1.064 9.187-1.013.235.163.382.25.382.25s3.829-1.908 4.403-4.392c.185-.805.353-1.992.525-3.306a4.816 4.816 0 0 0 1.39-3.378c.12-4.17 1.728-8.933 2.922-13.17 1.448.115 2.008-.16 3.337-.818l-.06-.076c.095-.055.178-.092.261-.133zm-21.947 6.245l-.739-.246c.248-.333.462-.69.638-1.065l.101 1.311zm-4.118 1.755l4.434 2.671.039.544a3.91 3.91 0 0 0 .037 1.243c-1.955-1.744-4.242-3.86-4.512-4.46l.002.002zm-1.81-3.895c-.485-.2-.885-.382-1.16-.533.369.026.72.049 1.026.065.061.15.106.308.133.468zm-11.876 4.353s.764-1.717 2.488 1.147c.268.445.761 1.153 1.414 2.03l-5.018-.673c.59-.92.988-1.775 1.116-2.502v-.002z"/>
        <path fill="#F7C4A7" d="M154.89 74.408s-3.512-1.274-6.286-2.23c-2.773-.955-1.109 2.23-1.109 2.23s4.622 1.114 4.622 1.274c0 .159 3.883.318 3.883.318l-1.11-1.592z"/>
        <path fill="#000" d="M154.89 74.408s-3.512-1.274-6.286-2.23c-2.773-.955-1.109 2.23-1.109 2.23s4.622 1.114 4.622 1.274c0 .159 3.883.318 3.883.318l-1.11-1.592z" opacity=".05"/>
        <path fill="#575988" d="M171 59.846s-6.422-3.29-7.556 3.108c-1.133 6.4-4.722 10.787-4.722 10.787s-3.4.731-4.722-.548c0 0 3.211 3.656 1.7 4.022 0 0 3.4 2.377 4.911 1.645 1.511-.731 2.645-5.667 3.211-6.947.567-1.28 2.645-12.433 7.178-12.067z"/>
        <path fill="#000" d="M171 59.846s-6.422-3.29-7.556 3.108c-1.133 6.4-4.722 10.787-4.722 10.787s-3.4.731-4.722-.548c0 0 3.211 3.656 1.7 4.022 0 0 3.4 2.377 4.911 1.645 1.511-.731 2.645-5.667 3.211-6.947.567-1.28 2.645-12.433 7.178-12.067z" opacity=".1"/>
        <path fill="#F7C4A7" d="M167 56.184s3.927 4.76 4.114 8.727c.187 3.967 4.488-4.165 4.862-4.363.374-.199-3.74-6.942-4.114-9.124-.374-2.181-4.862 4.76-4.862 4.76z"/>
        <path fill="#F7C4A7" d="M170.28 59L168 61.255 169.075 66 172 62.993l-.344-3.006zM118.452 92H114l1.742 4L120 94.91z"/>
        <path fill="#000" d="M115.066 92s-4.294 2.828-7.963 1.948c-3.668-.88-4.665-.55-5.092.585-.395 1.045 10.246 6.572 11.942 7.444.054.028.118.03.173.007a.187.187 0 0 0 .11-.126c.116-.464.395-1.457.694-1.534.39-.099 2.163-3.239 2.066-4.473-.097-1.234-1.93-3.851-1.93-3.851z" opacity=".1"/>
        <path fill="#F3B5B7" d="M114.066 92s-4.294 2.828-7.963 1.948c-3.668-.88-4.665-.55-5.092.585-.395 1.045 10.246 6.572 11.942 7.444.054.028.118.03.173.007a.187.187 0 0 0 .11-.126c.116-.464.395-1.457.694-1.534.39-.099 2.163-3.239 2.066-4.473-.097-1.234-1.93-3.851-1.93-3.851z"/>
        <path fill="#575988" d="M151.714 83.688L139.408 82s-20.02 9.75-22.408 9.938l.551 4.312h3.673c1.47 0 15.796-3.188 17.817-6.375a4.828 4.828 0 0 1 3.49.375C144.367 91.188 162 97 162 97l-10.286-13.313z"/>
        <path fill="#000" d="M151.714 83.688L139.408 82s-20.02 9.75-22.408 9.938l.551 4.312h3.673c1.47 0 15.796-3.188 17.817-6.375a4.828 4.828 0 0 1 3.49.375C144.367 91.188 162 97 162 97l-10.286-13.313z" opacity=".1"/>
        <path fill="#F7C4A7" d="M129.444 91L127 93.1l2.444.9L133 92.2z"/>
        <path fill="#575988" d="M165.723 87.712s-6.595-5.855-7.051-6.917c-.456-1.061-11.269-8.28-12.001-8.47-.733-.19-3.115-1.52-5.496 3.04C138.793 79.924 130 90.94 130 90.94s2.748 3.989 3.664 3.799c.916-.19 11.175-9.118 11.908-13.487 0 0 .732-1.71 2.381 1.14 1.649 2.85 12.274 16.526 14.29 16.336 0 0 7.877 1.33 9.525-1.9 1.65-3.229-6.045-9.117-6.045-9.117z"/>
        <path fill="#DDDBE2" d="M168.605 59.275s-2.262 1.007-2.443 5.22c-.18 4.213-4.162 11.356-4.162 11.356l.362 8.426s4.343 4.396 4.705 7.144c.362 2.747 3.438 4.579 3.438 4.579s3.62-1.832 4.162-4.213c.543-2.381.905-8.242 1.81-10.44.904-2.198.361-15.936.361-15.936l-2.714-4.762L172.676 59l-3.8 4.396s-2.08-2.84-.271-4.121z"/>
        <path fill="#000" d="M163.632 82.694s-.544-6.717 1.088-8.21l3.264-9.515s1.178-4.571.997-4.944c-.181-.374-4.261 3.638-4.261 3.638L162 73.552 162.725 84l.907-1.306z" opacity=".1"/>
        <path fill="#575988" d="M163.611 82.699s-.537-6.691 1.075-8.178l3.222-9.479s1.254-4.646 1.074-5.018c-.179-.372-4.296 3.717-4.296 3.717L162 73.591 162.716 84l.895-1.301z"/>
        <path fill="#F7C4A7" d="M165 79.872s-9.45-2.872-10.017-3.59c-.567-.718-6.615-5.385-8.694-2.154-2.08 3.23 7.749 4.128 7.749 4.128L164.055 84l.945-4.128z"/>
        <path fill="#000" d="M129.896 92.5l-2.786-.5s-4.563 5.839-6.94 5.247c-2.378-.593-4.566 1.963-2.055 2.783 2.269.74 12.065 1.777 13.93 1.969a.275.275 0 0 0 .303-.267 5.982 5.982 0 0 1 .433-2.12c.503-1.232 0-3.877-.139-4.89a4.854 4.854 0 0 0-.548-1.691l-2.198-.53z" opacity=".1"/>
        <path fill="#F3B5B7" d="M129.905 92.5l-2.789-.5s-4.568 5.838-6.944 5.247c-2.377-.59-4.57 1.963-2.056 2.783 2.27.74 12.078 1.777 13.945 1.969a.276.276 0 0 0 .304-.267c.009-.725.15-1.443.416-2.117.503-1.232 0-3.877-.14-4.889a4.848 4.848 0 0 0-.548-1.692l-2.188-.534z"/>
        <circle cx="168.5" cy="53.5" r="5.5" fill="#000" opacity=".1"/>
        <circle cx="167.5" cy="53.5" r="5.5" fill="#F7C4A7"/>
        <path fill="#575988" d="M173.01 59s6.99 2.3 6.99 7.076-3.862 12.382-4.046 18.574c-.184 6.19-10.3 5.306-10.3 5.306s-1.471-20.873 0-22.465c1.471-1.592 8.093-7.783 7.357-8.491z"/>
        <path fill="#000" d="M172.547 69.806s-2.624 11.376-8.807 9.358c0 0-3.185 4.587-.937 6.605 0 0 5.434 1.284 8.994-2.202 3.56-3.486 6.183-4.77 6.745-8.99.563-4.22.937-10.091-.936-9.541-1.874.55-5.06 4.77-5.06 4.77z" opacity=".1"/>
        <path fill="#575988" d="M172.547 69.806s-2.624 11.376-8.807 9.358c0 0-3.185 4.587-.937 6.605 0 0 5.434 1.284 8.994-2.202 3.56-3.486 6.183-4.77 6.745-8.99.563-4.22.937-10.091-.936-9.541-1.874.55-5.06 4.77-5.06 4.77z"/>
        <path fill="#DDDBE2" d="M134 99c0 .016-.036.036-.054.05-.415.307-.732.625-.946.95.145-.14.313-.284.506-.427.237-.185.403-.377.494-.573zM118.224 99.919c-.758-.21-1.076-.555-1.09-.919-.312.507-.115 1.076.956 1.371 2.217.613 11.792 1.47 13.614 1.628a.302.302 0 0 0 .206-.056.214.214 0 0 0 .09-.167c.003-.118-.102-.218-.241-.231-1.998-.18-11.348-1.023-13.535-1.626zM102.249 94.4a2.4 2.4 0 0 1 .177-.4c-.19.206-.333.457-.416.732-.386 1.157 10.044 7.277 11.707 8.243a.18.18 0 0 0 .17.007.201.201 0 0 0 .108-.14.21.21 0 0 0-.094-.227c-1.838-1.074-12.034-7.071-11.652-8.215zM114.681 100.229c-.234.06-.464.36-.681.771l.07-.025c.195-.051.527-.424.93-.975a.856.856 0 0 1-.319.229z"/>
        <path fill="#000" d="M166.83 58.339c-.51 1.147-.617 2.44-.991 3.644-.743 2.385-2.607 4.36-4.839 5.121 1.878.764 4.094-.17 5.546-1.72 1.451-1.55 2.302-3.612 3.118-5.62 2.107 1.447 1.85 4.772 2.56 7.36a8.123 8.123 0 0 0 4.256 5.194 7.483 7.483 0 0 0 6.52-.135c-1.932-2.398-4.683-5.706-4.356-8.909.265-2.594-1.558-4.576-1.434-7.179.181-3.69-1.204-5.564-3.796-7.933-1.514-1.386.87-3.34-1.084-2.768-.768.225-1.578-.614-2.332-.337-1.493.553-3.123.34-4.66.708-7.986 1.915 2.236 10.898 1.491 12.574z" opacity=".1"/>
        <path fill="#FC6681" d="M167.83 58.368c-.51 1.145-.617 2.436-.991 3.637-.743 2.38-2.607 4.35-4.839 5.111 1.878.762 4.094-.17 5.546-1.716 1.451-1.547 2.302-3.605 3.118-5.609 2.107 1.444 1.85 4.762 2.56 7.345a8.11 8.11 0 0 0 4.256 5.184 7.497 7.497 0 0 0 6.52-.135c-1.932-2.394-4.503-5.143-4.175-8.339.265-2.589-.13-5.25 0-7.846.18-3.682-1.593-7.24-4.187-9.604-1.515-1.383-3.88-1.56-4.636-1.289-1.493.553-3.124.34-4.66.707-7.99 1.917 2.232 10.882 1.487 12.554z"/>
    </g>
</svg>
