<?xml version="1.0" encoding="UTF-8"?>
<svg width="20px" height="21px" viewBox="0 0 20 21" version="1.1" xmlns="http://www.w3.org/2000/svg" xmlns:xlink="http://www.w3.org/1999/xlink">
    <!-- Generator: sketchtool 52 (66869) - http://www.bohemiancoding.com/sketch -->
    <title>F0AED6E0-9A31-4832-86E6-E610E6DC7397</title>
    <desc>Created with sketchtool.</desc>
    <g id="Employee-Information" stroke="none" stroke-width="1" >
        <g id="Appointment-mode-[resign-1]" transform="translate(-924.000000, -90.000000)" >
            <g id="sub-menu" transform="translate(-3.000000, 72.000000)">
                <g id="trash-can" transform="translate(927.000000, 18.000000)">
                    <path d="M2,6 L3.36246154,18.5287109 C3.46015385,19.4322266 4.47051282,20.140625 5.66117949,20.140625 L15.138359,20.140625 C16.3290256,20.140625 17.3393846,19.4322266 17.4370256,18.5287109 L18.7994872,6 L2,6 Z M8.09205128,17.2109375 C8.09205128,17.5348047 7.748,17.796875 7.32282051,17.796875 C6.89764103,17.796875 6.55358974,17.5348047 6.55358974,17.2109375 L6.55358974,7.7578125 C6.55358974,7.43394531 6.89764103,7.171875 7.32282051,7.171875 C7.748,7.171875 8.09205128,7.43394531 8.09205128,7.7578125 L8.09205128,17.2109375 Z M11.1689744,17.2109375 C11.1689744,17.5348047 10.8249231,17.796875 10.3997436,17.796875 C9.9745641,17.796875 9.63051282,17.5348047 9.63051282,17.2109375 L9.63051282,7.7578125 C9.63051282,7.43394531 9.9745641,7.171875 10.3997436,7.171875 C10.8249231,7.171875 11.1689744,7.43394531 11.1689744,7.7578125 L11.1689744,17.2109375 Z M14.2458974,17.2109375 C14.2458974,17.5348047 13.9018462,17.796875 13.4766667,17.796875 C13.0514872,17.796875 12.7074359,17.5348047 12.7074359,17.2109375 L12.7074359,7.7578125 C12.7074359,7.43394531 13.0514872,7.171875 13.4766667,7.171875 C13.9018462,7.171875 14.2458974,7.43394531 14.2458974,7.7578125 L14.2458974,17.2109375 Z" id="Shape"></path>
                    <path d="M17.6923077,2.34375 L13.8461538,2.34375 L13.8461538,1.7578125 C13.8461538,0.788515625 12.8109744,0 11.5384615,0 L8.46153846,0 C7.18902564,0 6.15384615,0.788515625 6.15384615,1.7578125 L6.15384615,2.34375 L2.30769231,2.34375 C1.03317949,2.34375 0,3.13074219 0,4.1015625 C0,4.42515625 0.344410256,4.6875 0.769230769,4.6875 L19.2307692,4.6875 C19.6555897,4.6875 20,4.42515625 20,4.1015625 C20,3.13074219 18.9668205,2.34375 17.6923077,2.34375 Z M12.3076923,2.34375 L7.69230769,2.34375 L7.69230769,1.7578125 C7.69230769,1.43453125 8.03712821,1.171875 8.46153846,1.171875 L11.5384615,1.171875 C11.9628718,1.171875 12.3076923,1.43453125 12.3076923,1.7578125 L12.3076923,2.34375 Z" id="Shape"></path>
                </g>
            </g>
        </g>
    </g>
</svg>