<?xml version="1.0" encoding="UTF-8"?>
<svg width="16px" height="17px" viewBox="0 0 16 17" version="1.1" xmlns="http://www.w3.org/2000/svg" xmlns:xlink="http://www.w3.org/1999/xlink">
    <!-- Generator: sketchtool 52 (66869) - http://www.bohemiancoding.com/sketch -->
    <title>4F8DF1F2-C13B-4E12-8953-A52252B724BA</title>
    <desc>Created with sketchtool.</desc>
    <g id="Employee-Information" stroke="none" stroke-width="1" fill="none" fill-rule="evenodd">
        <g id="Setting" transform="translate(-1202.000000, -274.000000)" fill="#427FEC">
            <g id="line-1" transform="translate(292.000000, 274.000000)">
                <g id="unlocked" transform="translate(910.000000, 0.000000)">
                    <path d="M5,7 L5,17 L16,17 L16,7 L5,7 Z M11.0499951,12.4573803 L11.0499951,14.2916932 L9.95000494,14.2916932 L9.95000494,12.4573803 C9.6213355,12.2412309 9.39999341,11.8376446 9.39999341,11.374986 C9.39999341,10.6846105 9.89245402,10.1249953 10.4999835,10.1249953 C11.107513,10.1249953 11.5999736,10.6846105 11.5999736,11.374986 C11.6000066,11.8375697 11.3786645,12.2411934 11.0499951,12.4573803 Z" id="Shape" fill-rule="nonzero"></path>
                    <path d="M4.49996631,0 C2.01473429,0 0,1.97936901 0,4.42105089 C0,6.86273277 0,7 0,7 L2.25,7 L2.25,4.42105089 C2.25,3.20216287 3.25935493,2.21050889 4.5,2.21050889 C5.74064507,2.21050889 6.75,3.20216287 6.75,4.42105089 L6.75,7 L9,7 C9,7 9,6.86273277 9,4.42105089 C9,1.97936901 6.98523202,0 4.49996631,0 Z" id="Path"></path>
                </g>
            </g>
        </g>
    </g>
</svg>