<?xml version="1.0" encoding="UTF-8"?>
<svg width="16px" height="16px" viewBox="0 0 16 16" version="1.1" xmlns="http://www.w3.org/2000/svg" xmlns:xlink="http://www.w3.org/1999/xlink">
    <!-- Generator: sketchtool 52 (66869) - http://www.bohemiancoding.com/sketch -->
    <title>AF827C22-3274-496E-B970-024D1C0525B3</title>
    <desc>Created with sketchtool.</desc>
    <g id="Employee-Information" stroke="none" stroke-width="1" fill="none" fill-rule="evenodd">
        <g id="Advancement" transform="translate(-1012.000000, -401.000000)" fill="#427FEC">
            <g id="Group" transform="translate(367.000000, 219.000000)">
                <g id="current" transform="translate(277.000000, 57.000000)">
                    <g id="upload" transform="translate(368.000000, 125.000000)">
                        <path d="M11.8637305,4.23720635 L8.0137025,0.173714286 C7.90920174,0.064 7.75850064,0 7.60009949,0 C7.44169833,0 7.29099724,0.064 7.18649648,0.173714286 L3.33646843,4.23720635 C3.1945674,4.38755556 3.15936714,4.59987302 3.2495678,4.78171429 C3.33866845,4.96253968 3.53446988,5.07936508 3.75007145,5.07936508 L5.95008747,5.07936508 L5.95008747,11.6825397 C5.95008747,11.9629206 6.19648926,12.1904762 6.50009148,12.1904762 L8.7001075,12.1904762 C9.00370971,12.1904762 9.25011151,11.9629206 9.25011151,11.6825397 L9.25011151,5.07936508 L11.4501275,5.07936508 C11.6657291,5.07936508 11.8615305,4.96355556 11.9506312,4.78171429 C12.0397318,4.59987302 12.0067316,4.38653968 11.8637305,4.23720635 Z" id="Path"></path>
                        <path d="M13.8666667,11.4285714 L13.8666667,14.1714286 L2.13333333,14.1714286 L2.13333333,11.4285714 L0,11.4285714 L0,15.0857143 C0,15.5913143 0.477866667,16 1.06666667,16 L14.9333333,16 C15.5232,16 16,15.5913143 16,15.0857143 L16,11.4285714 L13.8666667,11.4285714 Z" id="Path"></path>
                    </g>
                </g>
            </g>
        </g>
    </g>
</svg>