<svg xmlns="http://www.w3.org/2000/svg" width="32" height="34" viewBox="0 0 16 17">
  <metadata><?xpacket begin="﻿" id="W5M0MpCehiHzreSzNTczkc9d"?>
<x:xmpmeta xmlns:x="adobe:ns:meta/" x:xmptk="Adobe XMP Core 5.6-c140 79.160451, 2017/05/06-01:08:21        ">
   <rdf:RDF xmlns:rdf="http://www.w3.org/1999/02/22-rdf-syntax-ns#">
      <rdf:Description rdf:about=""/>
   </rdf:RDF>
</x:xmpmeta>
                                                                                                    
                                                                                                    
                                                                                                    
                                                                                                    
                                                                                                    
                                                                                                    
                                                                                                    
                                                                                                    
                                                                                                    
                                                                                                    
                                                                                                    
                                                                                                    
                                                                                                    
                                                                                                    
                                                                                                    
                                                                                                    
                                                                                                    
                                                                                                    
                                                                                                    
                                                                                                    
                           
<?xpacket end="w"?></metadata>
<defs>
  </defs>
  <path id="My_Profile" data-name="My Profile" class="cls-1" d="M231.834,548.349a6.669,6.669,0,0,0,.966-3.5c0-3.228-2.149-5.844-4.8-5.844s-4.8,2.616-4.8,5.844a6.678,6.678,0,0,0,.966,3.5A6.831,6.831,0,0,0,220,554.406v0.531A1.064,1.064,0,0,0,221.066,556h13.867A1.065,1.065,0,0,0,236,554.937v-0.531A6.831,6.831,0,0,0,231.834,548.349ZM228,540.593c1.734,0,3.2,1.947,3.2,4.251s-1.466,4.25-3.2,4.25-3.2-1.947-3.2-4.25S226.265,540.593,228,540.593Zm-6.4,13.813a5.34,5.34,0,0,1,3.637-4.788,4.105,4.105,0,0,0,5.526,0,5.34,5.34,0,0,1,3.637,4.788H221.6Z" transform="translate(-220 -539)"/>
</svg>
