<?xml version="1.0" encoding="UTF-8"?>
<svg width="16px" height="16px" viewBox="0 0 16 16" version="1.1" xmlns="http://www.w3.org/2000/svg" xmlns:xlink="http://www.w3.org/1999/xlink">
    <!-- Generator: sketchtool 52 (66869) - http://www.bohemiancoding.com/sketch -->
    <title>52877807-CE41-48BF-8AA8-B8913537835E</title>
    <desc>Created with sketchtool.</desc>
    <g id="Page-1" stroke="none" stroke-width="1" fill="none" fill-rule="evenodd">
        <g id="Request" transform="translate(-237.000000, -115.000000)" fill="#F5A623">
            <g id="New-Request-Group" transform="translate(205.000000, 96.000000)">
                <g id="new-request" transform="translate(16.000000, 0.000000)">
                    <g id="leave" transform="translate(16.000000, 19.000000)">
                        <g id="log-out">
                            <path d="M15.3253828,6.7342 L12.5608582,4.16714144 C12.2844114,3.91044083 11.3333333,3.91044083 11.3333333,4.44494768 L11.3333333,10.3223336 C11.3333333,10.8587671 12.2844114,10.8587671 12.5608582,10.6001048 L15.3253828,8.03493782 C15.6038479,7.7763456 15.6038479,6.9909006 15.3253828,6.7342 Z" id="Path"></path>
                            <path d="M8.45033893,0 L2.11258473,0 L0,0 L0,1.96168582 L0,2.88120854 L0,10.4827586 L0,11.7701149 L6.3377542,15.6934866 L6.3377542,13.7318008 L8.45033893,13.7318008 C9.6159387,13.7318008 10.5629614,12.8524926 10.5629614,11.7701149 L10.5629614,1.96168582 C10.5629803,0.877399015 9.61591983,0 8.45033893,0 Z M8.44954671,11.77015 L6.33696198,11.77015 L6.33696198,3.92340668 L3.16808488,1.96168582 L8.44954671,1.96168582 L8.44954671,11.77015 Z" id="Shape" fill-rule="nonzero"></path>
                        </g>
                    </g>
                </g>
            </g>
        </g>
    </g>
</svg>