<?xml version="1.0" encoding="UTF-8"?>
<svg width="32px" height="26px" viewBox="0 0 32 26" version="1.1" xmlns="http://www.w3.org/2000/svg" xmlns:xlink="http://www.w3.org/1999/xlink">
    <!-- Generator: sketchtool 52.5 (67469) - http://www.bohemiancoding.com/sketch -->
    <title>E63FAAF8-19C4-4130-8E38-37A80449CC15</title>
    <desc>Created with sketchtool.</desc>
    <g id="Page-1" stroke="none" stroke-width="1" fill="none" fill-rule="evenodd">
        <g id="Setting" transform="translate(-178.000000, -430.000000)" fill="#0B8449">
            <g id="Group" transform="translate(86.000000, 87.000000)">
                <g id="work-week" transform="translate(26.000000, 313.000000)">
                    <g id="work-day" transform="translate(66.000000, 30.000000)">
                        <path d="M27.0982637,23 L21.4971731,23 L9.87724166,23 C9.39278974,23 9,23.3423311 9,23.7646313 L9,24.2352217 C9,24.6574852 9.39274758,25 9.87724166,25 L21.4972574,25 L27.098348,25 L30,25 L30,23.0001103 L27.0982637,23 Z" id="Path"></path>
                        <circle id="Oval" cx="9" cy="5" r="5"></circle>
                        <path d="M20.1217583,16.1141988 L9.33111723,16.1079917 L9.07562697,16.1071414 L9.07562697,14.8048386 L9.06675635,13.714768 C9.06675635,11.1109702 7.0371009,9 4.53337818,9 C4.44855541,9 4.36430495,9.00297601 4.2805859,9.00773763 L4.27420886,9 C1.91364244,9.00008503 0,10.9902717 0,13.4453539 L0,26 L9.07562697,26 L9.07562697,20.6517241 L8.95556699,20.6419032 C8.9470234,20.6410955 8.94489772,20.6419883 8.93958352,20.6419883 C8.32554847,20.6419883 7.73706244,20.3731269 7.32235066,19.9022793 L3.63871263,15.7204299 C3.52126887,15.5871471 3.52997597,15.3801868 3.65817076,15.2581278 C3.78624292,15.1359837 3.98532092,15.1450818 4.10268293,15.2783646 L7.78628008,19.4601715 C8.08559202,19.7999895 8.5077028,20.0078002 8.95217408,20.0145174 C8.9817292,20.0149426 9.38524028,20.0209796 9.38524028,20.0209796 L20.1217583,20.0209796 C21.1590487,20.0209796 22,19.1464148 22,18.067568 C22.0000409,16.9887212 21.1590487,16.1141988 20.1217583,16.1141988 Z" id="Path"></path>
                        <path d="M31.4251575,9.04682245 C30.9812624,8.89227307 30.4980762,9.13285116 30.3458694,9.58398755 L26.742775,20.273128 L13.8497385,20.273128 C13.3805582,20.273128 13,20.6596484 13,21.136522 C13,21.6133956 13.3805582,22 13.8497385,22 L27.3395792,22 C27.6285407,22 27.8836234,21.8529241 28.0369457,21.6288044 C28.0899536,21.5576806 28.1332111,21.477362 28.1633302,21.3882683 L31.9541214,10.1432371 C32.1057498,9.69235265 31.8693004,9.20128786 31.4251575,9.04682245 Z" id="Path"></path>
                    </g>
                </g>
            </g>
        </g>
    </g>
</svg>